<?xml version="1.0" encoding="UTF-8"?>
<svg xmlns="http://www.w3.org/2000/svg" xmlns:xlink="http://www.w3.org/1999/xlink" viewBox="0 0 595.28 841.89">
  <defs>
    <style>
      .cls-1 {
        fill: #fefefe;
      }

      .cls-1, .cls-2, .cls-3, .cls-4, .cls-5, .cls-6, .cls-7, .cls-8, .cls-9, .cls-10, .cls-11, .cls-12, .cls-13, .cls-14, .cls-15 {
        stroke-width: 0px;
      }

      .cls-2 {
        fill: #164690;
      }

      .cls-3 {
        fill: #fefeff;
      }

      .cls-4 {
        fill: #1f97d5;
      }

      .cls-5 {
        fill: #13408a;
      }

      .cls-6 {
        fill: #356aa2;
      }

      .cls-7 {
        fill: rgba(4, 0, 0, 0);
      }

      .cls-8 {
        fill: #a6d9ef;
      }

      .cls-9 {
        fill: #356ba3;
      }

      .cls-16 {
        fill: #040000;
        font-family: FZSSK--GBK1-0, FZShuSong-Z01;
        font-size: 4.17px;
        isolation: isolate;
      }

      .cls-10 {
        fill: #fff;
      }

      .cls-11 {
        fill: #fcfdfe;
      }

      .cls-12 {
        fill: #feffff;
      }

      .cls-13 {
        fill: #16468f;
      }

      .cls-14 {
        fill: #3469a1;
      }

      .cls-15 {
        fill: #3469a2;
      }
    </style>
  </defs>
  <g>
    <path class="cls-10" d="m67.1,57.04c-10.86,0-21.73,0-32.6.02-.36,0-.48-.05-.48-.49.02-9.36.02-18.74,0-28.11,0-.41.12-.47.44-.47,21.77,0,43.49.02,65.24-.02.42,0,.44.16.44.53-.02,9.34-.02,18.7,0,28.05,0,.44-.1.49-.47.49-10.85-.02-21.71,0-32.57,0Z"/>
    <path class="cls-4" d="m52.87,42.23c1.71-.89,3.38-2.84,3.09-4.52.44.27.61,1.06.44,1.82-.36,1.54-1.35,2.55-2.43,3.44-.16.16-.34.27-.48.42-.67.62-1.41,1.15-2.32,1.27-2.05.85-4.16,1.35-6.38,1.24-.98.25-1.88-.06-2.68-.62-.66-.44-1.31-.89-1.57-1.73-.34-1.04-.05-1.95.49-2.81.85-1.44,2.15-2.35,3.51-3.15.06-.02.16,0,.34,0-.38.34-.71.59-1.01.89-.66.62-1.21,1.33-1.44,2.27-.24.98.02,1.81.8,2.39.41.05.71.34,1.08.47.53.18,1.02.36,1.57.34,1.54.18,3.02-.13,4.5-.59.88-.29,1.64-.81,2.49-1.11Z"/>
    <path class="cls-13" d="m43.86,42.07c1.08-2.05,2.18-4.08,3.26-6.13.38-.71.76-1.42,1.17-2.17.41.71.8,1.4,1.18,2.05.55.53.76,1.29,1.15,1.95.3.5.68.98.76,1.6-.53.85-1.31,1.31-2.19,1.56-.48-.4-.67-.96-.83-1.47-.36.76-.76,1.59-1.31,2.35-.59.4-1.29.44-1.95.47-.4-.14-.86.11-1.23-.23Z"/>
    <path class="cls-13" d="m51.18,44.66c.76-.44,1.54-.85,2.32-1.27,1.08,2.03,2.18,4.03,3.33,6.15h-3c-.08,0-.18-.06-.25-.12-1.27-.8-2.54-1.6-3.78-2.43,1.01.1,1.95.53,2.98.74-.57-1.07-1.09-2.07-1.6-3.08Z"/>
    <path class="cls-14" d="m88.06,38.96c-.53.73-.98,1.26-.92,2.15.08,1.17-.18,1.38-1.29,1.24,0-.21.06-.42.21-.53.19-.13.36-.25.27-.53-.08-.34-.35-.13-.53-.17-.08-.02-.18.05-.25-.08.02-.21.18-.36.34-.48.59-.57.47-1.29.48-1.99,0-.34-.18-.3-.38-.27-.23.02-.4-.02-.4-.35,0-.35.13-.42.41-.4.19.02.35.02.38-.3.02-.24.74-.3.76-.08.02.44.26.38.5.36.25-.02.3.12.31.36.02.3-.08.41-.35.4-.21-.02-.47-.08-.44.35.02.4.27.25.44.26.42.02.83,0,1.24,0,.17,0,.34.02.34-.26-.02-.25-.16-.24-.3-.24-.17,0-.34-.02-.5,0-.25.02-.34-.1-.34-.36s.06-.35.31-.36c.34-.02.8.23.91-.44.02-.12.61-.13.62.02.08.67.53.34.8.41.19.06.47-.1.47.34.02.42-.23.36-.48.41-.25.06-.71-.27-.71.24s.47.25.71.24c.55-.05.55.3.47.68-.12.53-.41.92-.74,1.26-.23.23-.18.36.06.49.19.12.4.23.59.31.3.12.3.36.24.59-.08.26-.34.16-.42.08-.83-.65-1.67-.66-2.49,0-.1.08-.35.18-.42-.08-.06-.19-.1-.47.18-.57.08-.02.16-.06.21-.08q.74-.38.21-1.08c-.16-.19-.26-.44-.42-.67.49-.18.83-.08,1.08.38.25.44.53.44.8,0,.12-.18.24-.36.44-.66-.71,0-1.31-.02-1.9,0-.34.03-.61,0-.52-.59Z"/>
    <path class="cls-4" d="m45.13,42.18c.62-.13,1.29-.13,1.88-.44.71-.35,1.42-.65,2.17-.85.81-.35,1.54-.81,2.14-1.5.1-.34.34-.53.5-.81.62-1.05.36-1.88-.71-2.28-.3-.12-.62-.12-.91-.3-.1-.26.16-.18.23-.26.83-.06,1.67.02,2.47.31,1.33.5,1.63,1.59.83,2.85-.47.71-1.11,1.18-1.72,1.72-.19.41-.59.53-.92.73-.44.25-.91.44-1.35.67-1.05.44-2.13.74-3.24.85-.66.05-1.31.16-1.99.02-.34-.06-.67-.06-.91-.35-.18-.18-.49-.18-.65-.44.3-.13.57.17.85.08.45-.06.91-.06,1.34,0Z"/>
    <path class="cls-13" d="m42.12,45.25c.89.31,1.76.62,2.68.62-.3.57-.59,1.16-.98,1.86,1.05-.3,1.99-.57,2.92-.81.02.05.02.08.05.16-1.29.81-2.56,1.63-3.84,2.41-.16.1-.41.06-.59.06h-2.56c.79-1.49,1.55-2.9,2.33-4.31Z"/>
    <path class="cls-14" d="m61.71,37.07c.85,0,1.72.02,2.57,0,.25,0,.38.06.36.36,0,.31-.13.38-.38.36-1.38-.02-2.78.02-4.15-.02-.4,0-.53.12-.5.55.02.9.02,1.81,0,2.69-.02.57.17.73.68.71,1.29-.05,2.57-.02,3.86-.02.19,0,.47-.13.48.3,0,.44-.26.3-.47.31-1.5.02-2.99.02-4.48,0-.66,0-.89-.24-.89-.93,0-1.29.02-2.57-.02-3.86,0-.38.08-.5.44-.49.85.04,1.66.02,2.51.02Z"/>
    <path class="cls-14" d="m58.89,49.64c.53-1.42,1.02-2.7,1.49-4.01.16-.41.47-.23.71-.27.26-.05.4.12.49.36.4,1.08.8,2.13,1.17,3.21.08.18.38.5.08.59-.26.08-.76.3-.89-.26-.16-.59-.47-.67-.96-.68-.55-.02-.85.13-1.02.71-.17.57-.65.13-1.06.36Z"/>
    <path class="cls-14" d="m60,41.42c.3-.9.13-1.82.16-2.73.02-.44.1-.55.5-.55,1.01,0,2.01-.08,3.01-.12.21-.02.47-.08.44.34-.02.38-.25.26-.44.27-.76.05-1.54.08-2.28.13-.19.02-.36,0-.36.31s.17.31.36.31h2.41c.17,0,.38-.08.4.26.02.34-.13.4-.38.36-.34-.06-.44.12-.41.47.02.19-.02.42.02.61.05.35-.13.42-.4.41-.24-.02-.42.02-.44-.36-.05-1.13-.06-1.08-1.08-1.11-.38,0-.53.1-.53.53.05.87-.11.98-.98.86Z"/>
    <path class="cls-15" d="m73.88,41.22c.1-.42.12-.83.59-.74.21.05.23-.16.24-.34,0-.19-.05-.34-.24-.31h-.06c-.35.05-.83-.18-1.02.1-.23.4-.08.96-.06,1.44.02.25.23.23.4.23.5,0,1.01,0,1.5.02.13,0,.36-.08.34.17-.02.18-.02.53-.3.53-.76.02-1.54.05-2.28-.02-.34-.02-.5-.4-.53-.76,0-.67.02-1.35-.02-2.03-.02-.34.13-.36.38-.36.8.02,1.57.02,2.35,0,.27,0,.44.08.4.41-.02.18,0,.36,0,.57-.02.85-.25,1.14-1.04,1.14-.18-.03-.41-.03-.65-.03Z"/>
    <path class="cls-6" d="m84.12,38.77v1.11c0,.26-.02.55.35.5.18-.02.19.16.19.3s.02.36-.16.36c-.53,0-.44.4-.41.71.02.44-.06.59-.5.59s-.49-.25-.44-.59c.08-.57-.16-.76-.65-.71-.27.05-.57,0-.83.02s-.36-.12-.36-.4c0-.34.17-.31.36-.3h.12c.44-.05,1.02.23,1.29-.13.21-.27.08-.9.08-1.35v-1.11c0-.59.24-.76.76-.61.21.06.18.23.18.38.03.42.03.83.03,1.23Z"/>
    <path class="cls-14" d="m87.48,48.56c0-.57.02-1.11,0-1.67-.02-.31.08-.44.38-.42.38.02.76.06,1.13,0,.71-.12,1.29.57,1.31,1.31.06,1.04-.36,1.65-1.17,1.75-.08.02-.18.02-.27,0-.47-.08-.66.12-.57.62.06.34-.02.53-.4.53-.42,0-.4-.24-.4-.53.01-.53,0-1.05,0-1.59Z"/>
    <path class="cls-14" d="m81.09,47.42c0-.57.02-1.15,0-1.72-.02-.34.16-.36.38-.36.21.02.47,0,.4.34-.16.83.3.85.85.81.76-.05,1.05.3,1.08,1.13.02.53-.02,1.06.02,1.59.02.41-.21.34-.44.35-.25.02-.38-.05-.36-.36.02-.49-.02-.98.02-1.47.02-.59-.34-.59-.74-.65-.48-.05-.4.27-.4.57,0,.53-.02,1.02,0,1.54.02.4-.19.35-.44.36-.26.02-.36-.08-.36-.38,0-.55-.01-1.16-.01-1.75Z"/>
    <path class="cls-15" d="m78.68,45.37c.35,0,.57.02.8,0,.24-.02.34.08.34.36s-.08.42-.35.4c-.34-.02-.62,0-.96,0-.18,0-.38.02-.53.16-.55.5-.34,1.17-.3,1.78.02.53.41.76.85.8.3.02.59.02.9.02.24-.02.38.05.38.36s-.08.41-.35.4c-.41-.02-.83.02-1.24-.02-.76-.06-1.18-.44-1.4-1.24-.17-.66-.16-1.35.08-1.97.32-1.02,1.09-1.09,1.78-1.03Z"/>
    <path class="cls-14" d="m66.53,37.18c.26-.02.49-.02.57.34.06.24.24.16.36.16.49.02.98.02,1.44,0,.3,0,.6.08.76-.36.12-.3.48-.1.71-.12.21-.02.13.16.12.3-.02.35.25.17.36.17.3-.02.38.12.38.44,0,.36-.19.31-.41.34-.24.02-.53-.16-.68.3-.1.26-.71.16-.83-.17-.08-.16-.17-.13-.26-.13-.49-.02-.98-.02-1.44-.02-.08,0-.17-.02-.24.08-.27.44-.6.48-.92.06-.16-.21-.34-.12-.5-.13-.21-.02-.4.02-.41-.34,0-.34.1-.44.4-.41.08.02.3.05.25-.12-.2-.53.15-.34.35-.39Z"/>
    <path class="cls-15" d="m79.65,40.69c0-.34-.02-.66,0-.98.02-.44.05-.83-.57-.71-.19.05-.24-.1-.25-.3,0-.21.05-.36.26-.35.08.02.18,0,.27,0,.16,0,.24-.06.24-.25,0-.21-.13-.19-.25-.21-.21-.02-.53.16-.5-.34.02-.44.34-.34.53-.35.5-.06,1.01-.05,1.5-.06.21-.02.3.06.3.31s-.08.34-.3.31c-.12-.02-.23.02-.34.02-.18.02-.25.13-.24.34.02.18.12.23.26.24.17,0,.35-.02.5.05.18.08.12.27.1.44-.02.25-.23.18-.35.17-.44-.08-.53.16-.53.59.02.76,0,1.56.02,2.32.02.34-.08.44-.38.44s-.34-.16-.34-.42c.09-.43.07-.83.07-1.25Z"/>
    <path class="cls-12" d="m50.19,35.95h.06c.83.1,1.69.25,1.99,1.24.26.93-.34,1.59-.91,2.18-.61-1.17-1.24-2.35-1.84-3.54h.16c.16.13.38-.04.54.11Z"/>
    <path class="cls-15" d="m72.83,48.02q0-1.54,1.38-1.54c1.01,0,1.21.21,1.24,1.31.02.44,0,.85,0,1.29,0,.27,0,.5-.36.5s-.4-.17-.38-.49c.02-.47,0-.93,0-1.4.02-.57-.34-.57-.71-.59-.48-.02-.38.3-.38.59,0,.47-.02.93,0,1.4.02.3,0,.49-.36.49-.4,0-.44-.18-.41-.53-.01-.34-.01-.69-.01-1.03Z"/>
    <path class="cls-13" d="m49.7,41.84c.8-.4,1.57-.76,2.28-1.24.3.55.59,1.08.85,1.63-.71.59-1.56.85-2.39,1.18-.41-.4-.7-.9-.75-1.57Z"/>
    <path class="cls-15" d="m68.64,42.32q-1.69,0-1.69-1.86c0-.25.02-.49,0-.73-.02-.35-.05-.59.44-.61.49,0,.48.24.49.62.02.59-.25,1.4.13,1.75.34.3,1.04.08,1.57.12.16.02.44-.16.42.18-.02.25-.08.59-.47.57-.29-.03-.59-.03-.89-.03Z"/>
    <path class="cls-14" d="m77.96,39.56v1.9c0,.53-.23.85-.73.85-.16,0-.41.1-.47-.08-.08-.19.02-.49.18-.59.25-.17.23-.4.23-.62,0-1.16,0-2.32.02-3.47,0-.17-.16-.53.23-.47.27.02.59,0,.57.53-.05.62-.03,1.28-.03,1.94Z"/>
    <path class="cls-14" d="m68.74,49.56c-.68-.02-.96-.34-.98-1.06,0-.26.02-.53,0-.8-.02-.26.13-.65-.36-.62-.16.02-.16-.17-.16-.27,0-.12-.02-.3.13-.3.53.02.35-.41.36-.67.02-.27-.02-.5.36-.5s.47.16.44.5c-.02.38-.08.76.48.66.18-.05.19.13.19.27,0,.17.02.36-.21.34-.5-.08-.49.25-.47.61.02.24.02.49,0,.73-.02.25.08.41.3.44.25.02.42.08.38.44-.02.41-.31.15-.47.24Z"/>
    <path class="cls-6" d="m64.17,48v-.06c0-1.59.08-1.67,1.56-1.44.49.08.83.76.59,1.24-.08.19-.25.1-.4.13-.16.02-.27-.02-.3-.25-.02-.35-.21-.53-.53-.48-.31.06-.17.36-.17.57-.02.49-.02.98,0,1.47.02.34-.08.44-.38.44-.26,0-.42-.06-.4-.41.04-.44.02-.83.02-1.21Z"/>
    <path class="cls-15" d="m75.81,38.92c-.65.25-.96-.08-1.08-.71-.08-.3-.17-.53-.53-.47-.35.06-.8-.17-.91.42-.16.66-.53.81-1.14.65.18-.49.36-.98.57-1.47.08-.18.19-.21.36-.21.21.02.41,0,.61,0q1.64.04,2.13,1.78Z"/>
    <path class="cls-14" d="m71.35,47.49c0,.57-.02,1.15.02,1.71.02.36-.16.38-.41.38-.26,0-.41-.05-.41-.4.02-1.15.02-2.27,0-3.41-.02-.4.16-.42.44-.42.31-.02.38.13.38.44-.03.55-.03,1.13-.03,1.7Z"/>
    <path class="cls-6" d="m76.96,39.42c0,.53-.02,1.02,0,1.54.02.34-.1.44-.4.42-.25-.02-.42-.02-.42-.38.02-1.04.02-2.08,0-3.12,0-.34.08-.42.38-.44.34,0,.44.12.42.47,0,.52.02,1,.02,1.52Z"/>
    <path class="cls-2" d="m43.57,42.55c.96.27,1.95.23,2.91.16-.02.57-.31.96-.67,1.33-.96-.02-1.84-.3-2.59-.93.13-.19.25-.38.35-.55Z"/>
    <path class="cls-15" d="m65.99,42.32c-.35.08-.53-.02-.47-.48.1-.74.16-1.49.26-2.22.06-.42.47-.61.83-.47.16.06.13.17.12.3-.1.85-.23,1.73-.3,2.59-.05.36-.27.25-.45.28Z"/>
    <path class="cls-15" d="m70.44,39.17c.34-.06.47.08.48.47.06.8.17,1.56.26,2.33.02.18.13.42-.16.36-.23-.05-.6.26-.67-.24-.13-.81-.23-1.63-.34-2.44-.05-.41.08-.56.42-.47Z"/>
    <path class="cls-9" d="m81.59,37.24c.27-.05.65-.17.8.06.25.4.36.89.53,1.33-.6.4-.06.8-.02,1.21.02.13-.05.19-.16.18-.25-.02-.57.16-.71-.17-.17-.36-.27-.74-.44-1.13-.02-.05-.05-.08-.02-.12q.12-.77,0-1.37Z"/>
    <path class="cls-15" d="m86.03,48.06v.98c0,.3.05.55-.38.55-.4,0-.42-.18-.41-.53.02-.71.02-1.38,0-2.08-.02-.34.02-.5.41-.53.42,0,.4.25.38.55-.02.35,0,.7,0,1.06Z"/>
    <path class="cls-9" d="m69.18,41.22c-.34.06-.53.02-.53-.42,0-.36-.16-.71-.17-1.08-.02-.21-.21-.59.21-.59.26,0,.66-.19.67.42,0,.38.13.76.18,1.14.06.36.07.69-.36.53Z"/>
    <path class="cls-9" d="m78.87,41.52c0-.67.17-1.33.12-1.99-.02-.23.1-.26.27-.26s.3.05.27.26c-.05.85-.08,1.75-.13,2.62-.02.25-.19.19-.34.19-.18.02-.23-.1-.23-.26.04-.19.04-.38.04-.56Z"/>
    <path class="cls-6" d="m80.54,39.95v-.49c0-.19.12-.23.25-.23.16,0,.3-.02.31.24.02.85.08,1.71.12,2.56.02.21-.06.3-.25.3s-.31-.05-.31-.3c-.02-.71-.06-1.38-.08-2.05-.02-.04-.04-.04-.04-.04Z"/>
    <path class="cls-6" d="m85.64,46.13c-.26.05-.42-.02-.42-.36s.12-.42.4-.42c.25.02.42.05.42.4,0,.32-.1.44-.4.38Z"/>
    <path class="cls-5" d="m45.13,42.18h-1.35c.02-.05.06-.08.08-.13.44.11.87-.1,1.27.13Z"/>
    <path class="cls-8" d="m50.19,35.95c-.19,0-.4.08-.57-.1.25-.05.53-.08.8-.12-.08.06-.16.14-.23.21Z"/>
    <path class="cls-12" d="m45.81,44.05c.23-.44.44-.89.67-1.33,1.11-.16,2.17-.49,3.23-.85.26.53.53,1.05.8,1.57-1.54.49-3.08.85-4.7.62Z"/>
    <path class="cls-3" d="m49.19,40.88c-.67.44-1.38.74-2.17.85.44-.8.85-1.6,1.29-2.44.3.57.59,1.08.88,1.59Z"/>
    <path class="cls-11" d="m61.02,46.51c.16.44.31.85.48,1.31q-1.11.08-.71-.96c.06-.13.06-.29.23-.36Z"/>
    <path class="cls-1" d="m88.26,47.88c.13-.21-.25-.66.21-.76.34-.08.71-.08.9.31.21.4.23.81-.06,1.18-.24.34-.59.31-.92.26-.16-.02-.13-.18-.13-.3,0-.18,0-.41,0-.69Z"/>
  </g>
  <a xlink:href="http://www.artinchip.com">
    <g>
      <rect x="59.67" y="52.52" width="33.97" height="3.78" opacity="0"/>
      <text><tspan x="0" y="0"   fill="black">www.artinchip.com</tspan></text>
    </g>
  </a>
</svg>