<?xml version="1.0" encoding="utf-8"?>
<!-- Generator: Adobe Illustrator 28.0.0, SVG Export Plug-In . SVG Version: 6.00 Build 0)  -->
<svg version="1.1" id="图层_1" xmlns="http://www.w3.org/2000/svg" xmlns:xlink="http://www.w3.org/1999/xlink" x="0px" y="0px"
	 viewBox="0 0 1920 1080" style="enable-background:new 0 0 1920 1080;" xml:space="preserve">
<style type="text/css">
	.st0{fill:#FEFEFE;}
	.st1{fill:#00A1E8;}
	.st2{fill:#154999;}
	.st3{fill:#356EAB;}
	.st4{fill:#366EAC;}
	.st5{fill:#376FAC;}
	.st6{fill:#356EAC;}
	.st7{fill:#FDFEFE;}
	.st8{fill:#15499A;}
	.st9{fill:#366FAC;}
	.st10{fill:#154293;}
	.st11{fill:#A8DEF6;}
	.st12{fill:#FDFDFE;}
	.st13{fill:#FBFCFD;}
	.st14{fill:#FDFDFD;}
</style>
<g>
	<path class="st0" d="M973.2,1013.6c-370.7,0-741.2-0.1-1111.9,0.4c-12.3,0-16.1-1.4-16.1-16.6c0.6-319.6,0.6-639.2,0.1-958.8
		c0-13.8,3.7-15.7,14.9-15.7c741.9,0.2,1483.7,0.3,2225.7-0.3c14.2,0,15,4.8,15,17.8c-0.4,318.9-0.4,637.8,0.1,956.7
		c0,14.9-3.5,16.8-15.9,16.8C1714.4,1013.5,1343.7,1013.6,973.2,1013.6z"/>
	<path class="st1" d="M488.1,508.9c58.3-30.1,115.8-96.6,105.1-154.4c14.5,9.4,21.1,36.2,15.2,61.8c-12.2,52.3-45.6,86.8-82.9,117.9
		c-5.5,4.6-10.9,9.5-16.3,14.3c-23.1,21.4-48,39-78.9,43.4c-70,29.8-142,46.3-217.5,42c-33.7,8.4-63.6-1.8-91.7-21.6
		c-22.2-14.9-44.4-30.2-53.4-59.1c-11.1-35.3-1.4-66.7,16.5-96.1c29.8-49.1,73.3-80,119.5-107.2c1.9-1.1,4.8-0.2,11-0.2
		c-13,11.5-23.9,20.5-34.1,30.3c-22.2,21.3-41,45.2-49.1,77.4c-8.3,33.3,0.9,61.3,27.3,81.2c13.6,1.4,24.2,11.1,36.8,15.5
		c17.4,6.1,34.8,12.1,53.4,11.1c52.7,6.4,103.4-4.1,153.6-20.3C432.5,537.1,459,519.2,488.1,508.9z"/>
	<path class="st2" d="M180.7,503.2c37.1-69.7,74.2-139.5,111.4-209.1c13-24.4,26.3-48.5,39.9-73.7c13.9,24.4,27.1,47.5,40.3,70.6
		c18.5,18.1,26.3,43.9,39,66.1c9.9,17.3,23.4,33.2,26.1,54.8c-18.2,29.2-44.7,44.4-75.1,53.1c-16.3-13.4-23.1-32.6-28.7-49.9
		c-12.5,25.7-26.3,54.5-44.4,80.6c-20.5,13.5-43.6,15-66.7,15.8C208.8,505.9,193,515,180.7,503.2z"/>
	<path class="st2" d="M430.2,591.9c26.3-14.5,52.6-28.9,78.9-43.4c37.3,68.9,74.6,137.8,113.8,210c-36.1,0-69.4,0.1-102.6-0.2
		c-2.9,0-6-2-8.6-3.7c-43.2-27.1-86.3-54.3-129-82.9c34.2,3.2,66,18,101.6,25.1C465.4,660.3,447.9,626.1,430.2,591.9z"/>
	<path class="st3" d="M1688.1,396.6c-18,25-33.7,42.7-31.3,73.4c3.1,40.1-6,46.6-43.9,41.7c0-7.2,1.9-14.4,7.3-17.9
		c6.7-4.3,12.1-8.8,9.8-17.7c-2.8-10.9-11.7-4.1-17.7-5.9c-2.9-0.8-6.3,1.2-8.8-2.5c0.9-7.4,6.4-12.1,10.8-16.2
		c19.8-18.8,15.8-43.6,16.1-67.6c0.2-11.2-6.4-10-12.7-9.8c-7.7,0.3-13.2-0.3-13.4-11.8c-0.2-11.8,4.5-14.4,13.7-13.4
		c6.6,0.6,11.6,0.4,12.9-10c1-8.3,25.1-9.9,25.6-2.3c1,14.6,9.1,12.9,17.1,12.3c8.8-0.7,10.3,3.9,10.6,12.3
		c0.3,9.9-2.6,13.9-11.9,13.1c-7.4-0.6-15.8-2.3-14.9,11.6c0.8,13.4,9.5,8.7,15.4,8.9c14,0.6,28,0.2,42,0.2c5.9,0,11.5,0.6,11.1-9.3
		c-0.3-8.4-5.1-8.2-10.3-8.2c-5.7,0-11.5-0.5-17.2,0.1c-8.5,0.7-10.9-3.5-10.9-12.3c-0.1-8.8,2.1-12,10.7-12.3
		c11.4-0.6,26.6,7.8,30.9-14.7c0.6-3.6,21-4.5,21.6,1c2.9,23,17.8,11.5,27.4,13.9c6.7,1.7,15.7-3.3,15.9,11
		c0.3,14.1-7.6,12.2-16,13.9c-8.5,1.8-24.2-9.4-24.4,8.1c-0.2,17.3,15.9,8.8,23.8,8.2c18.4-1.2,18.4,9.9,15.6,23.3
		c-3.8,17.4-13.6,31.3-25.5,43.1c-7.7,7.6-6,12.3,2,16.7c6.7,3.7,13.4,7.8,20.5,10.4c10,3.7,10,12.2,8,20.1c-2.3,9-11,5.3-14.2,2.9
		c-28.6-21.7-56.4-22.3-85-0.2c-3.3,2.6-12,6.1-14.2-2.7c-1.8-6.7-3.2-15.7,6.2-19.1c2.4-0.8,4.9-1.7,7.2-2.8
		c25.2-12.7,25.1-12.6,7.1-36.7c-5.1-6.8-9.1-14.6-14.1-22.8c16.7-6,28.1-2.6,36.7,12.8c8.4,15.1,17.8,15.3,27.1,0.2
		c3.9-6.3,8.2-12.2,15.1-22.3c-23.7,0-44.2-0.6-64.7,0.2C1693.9,418.1,1684.8,417.7,1688.1,396.6z"/>
	<path class="st1" d="M223.7,507.4c21.6-4.3,44-4.1,64.3-15.3c23.9-12,48.5-21.9,73.9-29.4c27.5-11.6,52.3-27.8,72.9-51.2
		c3.5-10.8,11.4-18.3,16.9-27.5c21.3-35.6,12.3-64.1-24.5-78.2c-10.2-3.9-21.5-3.8-31-9.9c-3.3-9.3,5.3-6.1,7.9-9
		c28.6-2,56.9,0.6,84.1,10.6c45.4,16.9,55.9,54.5,28.5,97.1c-15.7,24.3-37.7,40.6-58.5,58.5c-6.9,13.7-20.1,18.1-31.5,24.7
		c-15,8.7-30.9,15.1-46.4,22.8c-35.8,14.6-72.7,25.1-110.7,29.7c-22.5,1.4-45,4.8-67.5,1c-11.1-1.8-22.7-1.8-31.1-11.8
		c-6.3-6.4-16.4-6-21.8-14.6c10.3-4.5,19.3,5.9,29.1,2.3C193.3,504.9,208.5,504.8,223.7,507.4z"/>
	<path class="st2" d="M120.9,612.2c29.9,10.6,59.9,21.3,91.7,21.6c-10.3,19.7-20.6,39.3-33.3,63.5c35.6-9.9,67.6-18.9,99.6-27.8
		c0.5,1.6,0.9,3,1.5,4.6c-43.6,27.5-87,55.5-131,82.3c-5.5,3.3-13.6,2-20.5,2c-27.8,0.2-55.7,0.1-87.3,0.1
		C69.1,707.8,95.1,660,120.9,612.2z"/>
	<path class="st3" d="M788.9,332.3c29.3,0,58.6,0.3,87.9-0.2c8.5-0.1,12.6,1.7,12.5,12.4c-0.1,10.7-4.1,12.6-12.6,12.5
		c-47.2-0.3-94.3,0.4-141.4-0.5c-13.3-0.2-17.7,3.8-17.2,18.6c1,30.6,1.1,61.3,0,91.9c-0.7,19.5,5.9,25,23.3,24.4
		c43.9-1.3,87.9-0.6,131.8-0.3c6.5,0,15.9-4.5,16,10.3c0,14.7-9.3,10.3-15.9,10.4c-50.9,0.3-101.9,0.3-152.9,0.1
		c-22.3-0.1-30-8.3-30.1-32c-0.2-43.8,0.4-87.8-0.3-131.6c-0.2-12.8,2.9-16.9,14.8-16.4C732.8,333,760.8,332.3,788.9,332.3z"/>
	<path class="st3" d="M693.2,761.2c18.1-48.7,34.5-92.7,50.7-136.6c5.1-13.6,15.8-7.9,24.5-9.4c9.2-1.5,13.5,3.8,16.7,12.4
		c13.3,36.5,27.2,72.6,39.9,109.2c2.2,6.4,12.6,16.9,2.8,20.2c-8.9,3-25.7,10.2-30.3-9.1c-4.8-20.1-15.8-23-33-23.5
		c-18.5-0.6-29.1,4.4-34.9,24.5C723.8,768.4,707.7,753.8,693.2,761.2z"/>
	<path class="st3" d="M730.9,481.1c10-30.4,4.2-62,4.8-92.9c0.3-14.6,3.5-18.5,16.9-18.5c34.4-0.1,68.7-2.5,103.1-3.7
		c7.1-0.3,15.8-3,15.4,11.1c-0.5,13-8.8,9.3-14.9,9.7c-26.1,1.6-52,2.9-78.1,4.1c-6.9,0.3-12.3,0.2-12.3,10.7
		c0,10.7,5.7,10.4,12.4,10.4c27.4-0.1,54.8-0.2,82.2,0.1c5.7,0,13-2.8,13.4,8.9c0.5,11.1-4.2,13.4-12.6,12.2
		c-11.2-1.7-14.7,4-13.7,15.5c0.6,6.9-0.5,14,0.3,20.9c1.2,11.7-4.1,14.1-13.4,13.6c-8.1-0.4-14,0.4-14.5-12.5
		c-1.3-37.9-2-37.2-36.9-37.8c-13-0.2-17.5,3.2-17.4,18.3C765.6,482.2,760.9,485.5,730.9,481.1z"/>
	<path class="st4" d="M1204.3,474.4c3.4-14.3,3.6-28.2,20.6-25.3c7.1,1.2,7.9-4.7,8-10.8c0.2-6.5-1.3-11-8.3-10.4
		c-0.6,0.1-1.3-0.1-1.9,0c-11.8,1.4-28.6-6.4-34.5,3.5c-7.7,13.3-2.9,32.3-2,48.9c0.4,8.6,7.7,7.6,13.4,7.6
		c17.1,0.1,34.4-0.2,51.5,0.3c4.2,0.1,12.4-3,11,5.9c-1,6.3-0.4,17.4-10,17.6c-26.1,0.5-52.2,1.4-78.1-0.9
		c-11.2-1-17.3-13.2-17.4-26.3c-0.2-22.9,0.4-46-0.3-68.9c-0.3-11,4.2-12.4,12.6-12.3c26.7,0.4,53.4,0.5,80.1,0
		c9.6-0.2,14.5,2.5,13.4,13.8c-0.6,6.2,0,12.5-0.1,18.8c-0.6,29.8-8.6,38.5-35.4,38.6C1220,474.4,1213,474.4,1204.3,474.4z"/>
	<path class="st5" d="M1553.2,390.9c0,12.5,0.2,25,0,37.5c-0.2,9.3-1.1,18.6,12,17c6.3-0.7,6.6,5,6.5,10c-0.1,4.8,0.6,12.1-4.6,12.1
		c-17.6,0.1-14.6,13.5-13.7,24.5c1.1,14.5-1.7,20.7-17.1,20.7c-15.8,0-16.8-8.4-15.1-20.4c2.7-19.4-4.6-26.2-21.9-23.8
		c-9.4,1.3-19.1-0.2-28.6,0.3c-9,0.5-12.2-3.6-12.2-13.4c0-10.8,5.9-10.4,12.4-10.2c1.3,0,2.6,0.1,3.8,0c15-1.6,34.9,7.5,43.7-4.1
		c7.3-9.7,2.3-30.5,2.5-46.4c0.2-12.5,0-25,0-37.5c0.1-19.9,8.1-26,25.8-20.8c7.4,2.1,6.2,7.6,6.3,12.9
		C1553.3,363.1,1553.2,377,1553.2,390.9z"/>
	<path class="st3" d="M1668.7,724.7c0-18.8,0.5-37.6-0.2-56.4c-0.4-10.7,2.3-15.1,12.7-14.4c12.7,0.9,25.7,1.8,38.1-0.1
		c24.4-3.9,43.7,19.7,45,45c1.8,35-12.1,56-39.9,59.6c-3.1,0.4-6.4,0.7-9.5,0.2c-15.8-3-22.2,3.7-19.5,21.2
		c1.7,11.1-0.4,17.6-13.5,17.6c-14.1,0.1-13.3-8.2-13.1-18.3C1668.9,760.9,1668.7,742.7,1668.7,724.7z"/>
	<path class="st3" d="M1450.9,685.5c0-19.4,0.5-39-0.2-58.4c-0.4-11.2,5-12.3,12.9-12.1c7.4,0.3,15.5-0.1,13.4,11.4
		c-5.1,28.4,9.9,28.9,29.1,27.9c25.7-1.3,35.6,9.9,36.4,38c0.5,18.1-0.6,36.2,0.3,54.2c0.6,13.6-7.1,11.5-14.6,12
		c-8.5,0.6-13-1.5-12.4-12.3c0.7-16.7-0.3-33.3,0.3-50c0.6-20.5-11.5-20.4-25.1-21.7c-16.1-1.5-13.5,9.5-13.5,19.7
		c0,17.4-0.6,34.8,0.2,52.1c0.6,13.4-6.8,11.8-14.6,12.3c-8.9,0.6-12.4-2.5-12.1-12.8C1451.3,725.9,1450.9,705.7,1450.9,685.5z"/>
	<path class="st6" d="M1367.9,615.3c11.6,0,19.3,0.4,26.8-0.1c8.2-0.5,11.1,3,11.1,12.1c0.1,9.6-2.6,14-12,13.5
		c-10.8-0.6-21.6-0.1-32.4,0.1c-6.4,0.1-12.8,0.6-18,5.3c-18.5,16.9-11.1,39.9-10.1,60.3c0.8,17.5,13.7,25.6,29.2,26.6
		c10.1,0.6,20.4,0.6,30.5,0.3c8.2-0.4,13,1.2,12.8,12.2c-0.1,9.9-2.7,13.6-12,13.2c-13.9-0.7-28,0.4-41.9-0.5
		c-25.9-1.7-40.7-14.6-47.6-42.2c-5.6-22.5-5.5-45.6,2.3-67.2C1318.5,616.1,1344.8,614.2,1367.9,615.3z"/>
	<path class="st3" d="M953.8,336.4c8.9-1.1,16.8-0.5,19.3,11.3c1.8,8.3,8.1,5.2,12.5,5.3c16.6,0.4,33.2,0.3,49.6,0.1
		c10.2-0.1,20.4,3,26.3-12.4c3.9-9.9,16-3.5,24.4-3.9c7.4-0.4,4.1,5.5,3.9,10.3c-0.6,12,8.5,5.8,12.1,5.6
		c10.3-0.4,12.8,3.8,12.8,14.5c0.1,12.3-6.5,10.5-13.6,11.3c-8.3,0.9-18.1-5.2-23.3,9.9c-3.2,9-24.1,4.6-28.7-5.7
		c-2.4-5.4-5.9-4.2-9.3-4.3c-16.6-0.3-33.2-0.4-49.6-0.3c-2.8,0-5.8-1-8.3,2.8c-9.8,15.3-20.4,16.2-31.7,1.7
		c-5.5-7.1-11.5-3.6-17.3-4.1c-7.2-0.7-13.5,0.5-13.6-11.5c-0.1-11.3,3.5-14.8,13.2-13.8c3,0.3,10.1,1.6,8.5-3.9
		C935.4,331.6,947.3,337.6,953.8,336.4z"/>
	<path class="st6" d="M1401.3,456.6c0-11.1-0.4-22.3,0.1-33.3c0.6-14.7,1.3-28.6-18.8-24.1c-6.8,1.6-8.3-3.5-8.4-10
		c-0.1-7.4,1.2-12.3,9.3-11.6c3.1,0.3,6.4-0.1,9.5,0c5.3,0.1,8.2-2,8.3-8.5c0-7.3-4.2-6.8-8.8-7.4c-7.1-0.9-17.7,4.9-17.3-11.1
		c0.4-15.1,11.3-11.2,18.1-11.9c17-1.7,34.3-1.2,51.4-2c7.1-0.3,10.2,1.9,10.2,10.4c0,8.3-2.9,11.2-10,10.6
		c-3.8-0.3-7.6,0.3-11.4,0.6c-6.4,0.5-8.7,4.5-8.3,11.1c0.4,6.4,4,7.9,8.9,8.1c5.7,0.2,11.9-0.8,16.9,1.2c6.1,2.4,3.6,9.6,3.2,14.7
		c-0.7,8.7-7.6,6.4-11.9,5.7c-14.8-2.4-18.3,4.6-17.7,19.8c1.1,26.3-0.1,52.8,0.5,79.2c0.3,10.8-2.6,14.6-12.8,14.5
		c-10.1-0.1-11.2-5.3-11.1-14.2C1401.6,484.4,1401.3,470.5,1401.3,456.6z"/>
	<path class="st7" d="M396.5,294.3c0.6,0,1.3,0,1.9,0.1c28.4,3.4,57.8,8.4,67.5,42.6c9.2,32.2-11.3,54.3-31.2,74.4
		c-20.9-40.2-41.8-80.4-62.6-120.6c1.8,0,3.6-0.1,5.4-0.1C383.3,295.5,390.7,289.7,396.5,294.3z"/>
	<path class="st4" d="M1168.6,706.1c0-52,0-52,46.6-52c34.4,0,41.3,7.2,42.1,44.2c0.3,14.6-0.2,29.1,0.1,43.8
		c0.2,9.8,0.2,17-12.4,17c-12.1,0-13.4-5.8-13-16.4c0.6-15.9-0.1-31.9,0.2-47.9c0.3-19.1-10.9-19.3-24.1-20.3
		c-16.3-1.1-13.1,10.1-13.1,20c-0.1,15.9-0.4,32,0.1,47.9c0.3,10-0.1,16.5-12.5,16.7c-13.2,0.2-14.5-6.4-13.9-17.7
		C1169.1,729.7,1168.6,717.9,1168.6,706.1z"/>
	<path class="st2" d="M379.9,495.7c26.5-13.4,53.3-25.9,78.3-42.6c9.9,18.6,19.9,37.2,29.8,55.8c-24.4,20.1-53.1,29.8-81.4,40.3
		C391.4,535.1,381,518.3,379.9,495.7z"/>
	<path class="st4" d="M1025.6,512c-57.4,0-57.4,0-57.4-63.5c0-8.4,0.3-16.7-0.1-25c-0.5-11.6-1.3-20.7,14.8-20.9
		c16.5-0.2,16.2,8.2,16.6,21.4c0.5,20.5-8.7,47.8,4.2,59.5c11.1,10,35.2,2.5,53.4,3.7c5,0.4,15-5.5,14.3,6.1
		c-0.6,8.5-2.2,20-15.5,18.9C1045.9,511.4,1035.7,512,1025.6,512z"/>
	<path class="st3" d="M1343.8,417.7c0,21.6,0.2,43.1-0.1,64.6c-0.2,17.8-7.6,29-24.9,29.7c-5.4,0.2-13.6,3.2-15.8-2.4
		c-2.6-6.6,0.7-16.5,6.3-20.2c8.6-5.7,7.7-13.2,7.7-21.4c0-39.6-0.2-79.2,0.3-118.8c0.1-5.9-5.1-17.4,7.6-15.9
		c9.4,1.1,20.4,0,19.3,17.7C1342.7,373.1,1343.8,395.4,1343.8,417.7z"/>
	<path class="st3" d="M1029.1,758.6c-23.2-0.7-32.7-11.2-33.1-36c-0.1-9,0.3-18.1-0.1-27.1c-0.4-9.3,4.2-22-12.1-21.2
		c-4.9,0.3-4.6-5.6-4.6-9.7c0-4.1-0.5-10,4.3-9.9c18,0.7,11.8-13.6,12.2-23c0.4-9.7-0.3-17,12.5-17c12.3,0,15.5,4.9,14.5,17
		c-1.1,12.7-2.5,26.2,16.2,22.5c6.3-1.2,6.8,4.2,6.8,9.5c0,5.7,0.4,12.3-7.3,11c-17-3.1-16.5,8.6-15.8,21.1c0.4,8.3,0.6,16.7,0.1,25
		c-0.5,8.5,3.1,13.6,10.3,14.6c8.6,1,14.1,3,12.9,14.7C1044.3,764.9,1034.1,755.7,1029.1,758.6z"/>
	<path class="st5" d="M872.9,705.5c0-0.7,0-1.4,0-2.1c0-54.3,2.7-56.8,53-49.3c16.8,2.5,28.1,25.6,20.5,41.7
		c-3.1,6.7-8.8,3.5-13.4,4.1c-5.5,0.6-9.6-0.3-9.9-8.4c-0.6-11.6-7.1-18.2-17.8-16.1c-10.5,2-5.6,12.3-5.9,18.9
		c-0.7,16.7-0.7,33.4-0.1,50.1c0.4,10.8-2.9,14.6-13,14.5c-9.3-0.2-14.2-2-13.4-13.7C873.6,732.1,873,718.8,872.9,705.5z"/>
	<path class="st4" d="M1270.3,396.4c-22,8.5-32.5-2.2-37.2-23.6c-2.2-9.9-5.9-17.7-17.8-15.6c-11.6,2-26.8-5.7-31,14.3
		c-4.7,22.3-17.6,27.9-38.4,21.9c6.3-16.6,12.5-33.3,18.8-49.9c2.3-6.1,6.8-7.4,12.3-7.1c7,0.3,13.9,0.1,20.9,0.1
		C1252.9,336.3,1252.9,336.3,1270.3,396.4z"/>
	<path class="st3" d="M1118.3,687.8c0,19.4-0.6,38.9,0.3,58.2c0.6,12.5-5.4,12.7-13.9,12.9c-8.9,0.1-13.9-1.2-13.7-13.3
		c0.6-38.8,0.6-77.6,0-116.3c-0.3-13.3,5.5-14,15-14.3c10.4-0.4,12.9,4.2,12.6,14.6C1117.9,649,1118.3,668.3,1118.3,687.8z"/>
	<path class="st5" d="M1309.1,412.7c0,17.4-0.6,34.7,0.2,52c0.5,11.1-3.3,14.5-13.1,14.1c-8.6-0.3-14.2-0.6-14-13
		c0.6-35.4,0.6-70.8,0.1-106.3c-0.2-10.8,2.8-14.4,12.9-14.5c10.8-0.1,14.6,3.6,14.1,15.5C1308.5,378,1309.1,395.4,1309.1,412.7z"/>
	<path class="st8" d="M170.8,519.6c32.7,9.4,66,7.7,99.2,5.4c-0.3,19.5-10.7,33-22.9,45.1c-32.4-0.6-62.2-10.1-88.3-31.8
		C162.7,532.1,166.7,525.8,170.8,519.6z"/>
	<path class="st4" d="M935.3,511.9c-12,2.4-18.1-1-15.9-16.1c3.5-25.1,5.4-50.7,8.9-75.8c1.9-14.4,15.7-21.1,28.4-15.8
		c5.1,2.1,4.3,5.7,3.8,9.9c-3.5,29.4-7.5,58.8-10.1,88.3C949.1,515.1,941.4,511.2,935.3,511.9z"/>
	<path class="st4" d="M1087.1,404.3c11.3-2.1,15.5,2.5,16.3,15.5c1.8,26.6,5.6,53.1,8.9,79.7c0.7,6,4.5,14-5.4,12.2
		c-7.7-1.5-20.4,9-22.9-8.2c-4.1-27.8-7.5-55.7-11.4-83.5C1070.7,406.6,1075.5,401.7,1087.1,404.3z"/>
	<path class="st9" d="M1467.1,338c9.4-1.4,21.9-5.9,27,2c8.5,13.3,12.3,30,18,45.3c-20.3,13.4-1.7,27.3-0.3,40.9
		c0.5,4.3-1.4,6.8-5.3,6.4c-8.4-1.1-19.1,5.3-24.4-5.8c-5.9-12.2-9.8-25.5-14.5-38.3c-0.5-1.3-1.3-2.8-1-4
		C1471.5,358.8,1471.5,358.8,1467.1,338z"/>
	<path class="st4" d="M1618.9,707.4c0,11.1-0.2,22.2,0,33.3c0.2,9.9,1.4,18.5-12.9,18.4c-13.1-0.1-14.2-6.1-13.9-17.4
		c0.6-23.6,0.6-47.3,0-70.8c-0.3-11.3,0.8-17.3,13.9-17.4c14.3-0.1,13.1,8.5,12.9,18.4C1618.7,683.8,1618.9,695.6,1618.9,707.4z"/>
	<path class="st9" d="M1043.8,474.7c-11,1.8-17.7,0.4-18-14.1c-0.2-12.2-4.9-24.2-5.9-36.5c-0.6-7.3-7.1-19.8,7.4-20.1
		c9.3-0.2,22.5-6.5,22.7,14.3c0.1,12.9,4.4,25.6,6.4,38.5C1058.4,468.4,1058.6,479.2,1043.8,474.7z"/>
	<path class="st9" d="M1374.4,484.3c-0.1-22.8,5.7-45.4,3.9-68.3c-0.6-7.6,3.4-9.2,9.4-9.1c5.8,0,9.9,1.3,9.5,9
		c-1.4,29.8-2.6,59.5-4.1,89.3c-0.4,8.6-6.5,6.5-11.3,6.9c-6,0.5-7.6-3.2-7.5-8.9C1374.5,496.8,1374.4,490.5,1374.4,484.3z"/>
	<path class="st5" d="M1431.8,431.3c0-5.5,0.1-11.1,0-16.7c-0.1-6.7,3.7-7.9,8.7-7.8c5.3,0.1,10.1-0.3,10.4,8.1
		c1.1,29.1,2.4,58.3,3.8,87.4c0.4,7-2.1,9.9-8.8,9.9c-6.7,0-10.4-1.3-10.6-10.1c-0.5-23.6-1.8-47.2-2.9-70.7
		C1432.3,431.3,1432,431.3,1431.8,431.3z"/>
	<path class="st5" d="M1605.9,641.5c-8.9,1.5-14.1-0.4-14-12.5c0.1-11.1,3.6-14.3,13.3-14c8.8,0.3,14.1,1.2,14,13.4
		C1619.2,639.6,1615.5,643.5,1605.9,641.5z"/>
	<path class="st10" d="M223.7,507.4c-15.2,0-30.5,0-45.7,0c0.9-1.4,1.8-2.8,2.7-4.1C194.9,506.1,209.9,499.3,223.7,507.4z"/>
	<path class="st11" d="M396.5,294.3c-6.5,0.1-13.4,2.7-19-3.5c8.8-1.3,17.8-2.6,26.6-3.9C401.6,289.4,399,291.9,396.5,294.3z"/>
	<path class="st7" d="M247,570.1c7.6-15.1,15.3-30.1,22.9-45.1c37.6-5.3,73.9-16.7,109.9-29.2c8.9,17.8,17.9,35.6,26.8,53.4
		C354.5,566.4,301.9,578.7,247,570.1z"/>
	<path class="st12" d="M361.9,462.7c-22.9,15-47.3,25.2-73.9,29.4c14.5-27.4,28.9-54.8,43.9-83.2
		C342.5,427.8,352.1,445.2,361.9,462.7z"/>
	<path class="st13" d="M765.5,655c5.3,14.6,10.6,29.1,16,44.1c-37.4,2.8-37.4,2.8-23.6-32.3C759.7,662.4,760,657.1,765.5,655z"/>
	<path class="st14" d="M1695.4,701.6c4.3-7.1-8.4-22.2,7.1-26c11-2.7,23.6-2.3,30.5,10.6c7.2,13.4,7.8,27.9-1.7,40.4
		c-8.1,10.8-20,10.5-31.5,9.3c-5.1-0.6-4.3-6-4.4-9.9C1695.3,718.4,1695.4,710.8,1695.4,701.6z"/>
</g>
</svg>
