<?xml version="1.0" encoding="utf-8"?>
<!-- Generator: Adobe Illustrator 28.0.0, SVG Export Plug-In . SVG Version: 6.00 Build 0)  -->
<svg version="1.1" xmlns="http://www.w3.org/2000/svg" xmlns:xlink="http://www.w3.org/1999/xlink" x="0px" y="0px"
	 viewBox="0 0 1920 1080" style="enable-background:new 0 0 1920 1080;" xml:space="preserve">
<style type="text/css">
	.st0{fill:#00A1E8;}
	.st1{fill:#154999;}
	.st2{fill:#17A9EA;}
</style>
<g id="图层_2">
</g>
<g id="图层_1">
	<g>
		<g>
			<path class="st0" d="M111.2,77.1c-1.6,0.6-3.3,1.2-4.9,1.8c-4.1,1.3-8.4,2.3-12.7,2.9c-3.6,0.5-7.2,0.7-10.8,0.5
				c-0.3,0-0.6,0-0.8,0c-0.5-0.1-1-0.1-1.6-0.1c-1.9-0.2-3.9-0.5-5.8-1c-1.7-0.4-3.4-1-5-1.8c-1.4-0.7-2.7-1.5-3.9-2.5
				c-2-1.8-3.4-3.9-3.8-6.6c0-0.3-0.1-0.6-0.1-0.9c0-1.3,0.1-2.5,0.4-3.7c0.4-1.5,1-2.8,1.7-4.1c0.6-1.1,1.3-2.1,2.1-3.1
				c1-1.2,2-2.4,3.2-3.4c0.9-0.8,1.9-1.6,2.8-2.4c1.2-0.9,2.5-1.8,3.8-2.7c2.1-1.4,4.3-2.6,6.6-3.7c2-0.9,4-1.7,6-2.5
				c0.1,0,0.2,0,0.3,0c-0.4,0.2-0.7,0.4-1.1,0.6c-3.2,1.5-6.2,3.4-8.9,5.6c-1,0.8-2,1.7-2.9,2.7c-2,2-3.6,4.3-4.6,7
				c-0.3,0.9-0.6,1.8-0.6,2.8c-0.1,0.1-0.1,0.3-0.1,0.5c0,0.2,0,0.3,0,0.5c0,0.2,0,0.3,0.1,0.5c0,1.3,0.5,2.6,1.1,3.7
				c0.7,1.2,1.6,2.2,2.7,3c0.1,0.1,0.2,0.1,0.3,0.2c0.1,0.2,0.2,0.2,0.4,0.3c0.5,0.4,1.1,0.7,1.6,1c1.8,0.9,3.7,1.5,5.7,2
				c1.3,0.3,2.7,0.5,4,0.6c0.1,0,0.2,0.1,0.3,0.1c1.9,0.2,3.8,0.2,5.8,0.1c4.2-0.2,8.3-0.8,12.4-1.9c1.1-0.3,2.2-0.6,3.3-1
				c0.1,0,0.3,0,0.4-0.1c3.4-1.1,6.6-2.5,9.7-4.2c0.3-0.2,0.7-0.3,1-0.6c0.8-0.4,1.5-0.9,2.2-1.3c1.1-0.7,2.1-1.4,3.1-2.2
				c0.7-0.5,1.3-1,1.9-1.6c0.8-0.7,1.5-1.4,2.2-2.2c0.6-0.7,1.2-1.4,1.8-2.1c0.8-1.1,1.6-2.4,2.1-3.7c0.4-1,0.7-2,0.8-3.1
				c0.1-1,0-2-0.2-3c-0.1-0.6-0.4-1.2-0.6-1.7c0-0.1,0-0.1,0.1-0.2c1.3,1.4,2.2,3,2.6,4.8c0.6,2.5,0.2,4.8-0.7,7.2
				c-0.8,1.9-1.9,3.7-3.1,5.3c-0.8,1.1-1.7,2-2.7,3c-2,2-4.2,3.7-6.6,5.2c-0.1,0.1-0.2,0.1-0.3,0.2c-0.6,0.3-1.1,0.7-1.7,1
				c-1.7,1-3.4,1.9-5.1,2.8C113.8,76,112.5,76.5,111.2,77.1z"/>
			<path class="st1" d="M77.2,66.6c0.6-1,1.2-2,1.7-3c0.8-1.4,1.6-2.8,2.5-4.2c0.7-1.1,1.3-2.2,2-3.3c0.8-1.4,1.6-2.8,2.4-4.1
				c1-1.7,2-3.3,3-5c0.8-1.4,1.6-2.8,2.4-4.2c0.7-1.1,1.4-2.2,2-3.4c0.8-1.4,1.6-2.8,2.4-4.1c0.8-1.4,1.6-2.7,2.4-4.1
				c0.1-0.1,0.1-0.1,0.2,0.1c0.4,0.7,0.8,1.3,1.2,2c3.8,6.5,7.7,13,11.5,19.5c0.4,0.7,0.8,1.3,1.2,2c-0.4,0.5-1,0.9-1.5,1.3
				c-2.6,2.1-5.5,3.8-8.5,5.3c-0.8-1.3-1.5-2.6-2.3-4c-0.6-1-1.1-2-1.7-3c-0.5,0.9-1,1.8-1.6,2.7c-1.5,2.7-3.1,5.3-4.6,8
				c-0.1,0-0.2,0.1-0.2,0.1c-1.7,0.5-3.4,0.8-5.1,1.1c-1.6,0.3-3.2,0.4-4.8,0.5c-1.3,0.1-2.6,0-4,0C77.6,66.8,77.4,66.8,77.2,66.6z"
				/>
			<path class="st1" d="M111.2,77.1c1.3-0.6,2.6-1.1,3.9-1.8c1.8-0.8,3.5-1.8,5.1-2.8c0.6-0.3,1.1-0.7,1.7-1c0.6,1,1.2,2,1.8,3
				c1.4,2.3,2.7,4.6,4.1,6.9c1.2,2,2.3,4,3.5,5.9c1.4,2.3,2.7,4.6,4.1,7c0.2,0.4,0.4,0.7,0.7,1.1c0.4,0.6,0.7,1.2,1.1,1.8
				c0.2,0.3,0.1,0.3-0.2,0.3c-2.7,0-5.5,0-8.2,0c-1.8,0-3.5,0-5.3,0c-0.3,0-0.5-0.1-0.7-0.2c-6.5-3.8-13-7.5-19.5-11.3
				c0,0,0,0,0-0.1c5.2,1.4,10.4,2.8,15.7,4.2C116.2,85.8,113.7,81.5,111.2,77.1z"/>
			<path class="st0" d="M102.1,61.4c3-1.4,5.9-3.2,8.5-5.3c0.5-0.4,1-0.8,1.5-1.3c1.7-1.6,3.2-3.3,4-5.6c1-2.8,0.1-5.3-2.4-6.9
				c-1.6-1-3.3-1.5-5.1-1.9c-1.3-0.2-2.6-0.4-3.9-0.4c-0.1,0-0.3,0-0.4,0c0,0-0.1-0.1-0.1-0.1c1.3-0.1,2.6-0.3,3.9-0.4
				c0.1,0,0.3,0,0.4-0.1c0.5,0,1,0,1.4,0c0.5,0,1.1,0,1.6,0c0.4,0,0.9,0,1.3,0c0.1,0.1,0.3,0.1,0.4,0.1c2.1,0.2,4.2,0.5,6.2,1.2
				c1.4,0.5,2.6,1.1,3.7,2.1c1.2,1.1,1.9,2.4,2,3.9c0,0.2-0.1,0.3,0,0.5v0c-0.1,0.2,0,0.4-0.1,0.5c-0.2,2-1.1,3.6-2.3,5.2
				c-1.7,2.3-3.9,4.1-6.2,5.8c-0.5,0.4-1.1,0.7-1.6,1.1c-0.1,0-0.1,0-0.2,0.1c-2.7,1.7-5.6,3.2-8.5,4.4c-0.7,0.3-1.4,0.5-2,0.8
				c-0.1,0-0.2,0-0.4,0.1c-0.8,0.3-1.6,0.6-2.4,0.8c-3.1,1-6.3,1.8-9.6,2.3c-0.7,0.1-1.5,0.2-2.2,0.3c-0.2,0-0.4,0-0.6,0
				c-1.5,0.2-2.9,0.2-4.4,0.3c-0.8,0-1.5,0-2.3-0.1c-1.2,0-2.3-0.2-3.5-0.4c-0.9-0.2-1.8-0.4-2.6-0.6c-1.6-0.5-3.3-1.4-4-2.1
				c0.3-0.1,0.6,0.1,0.8,0.1c1.2,0.3,2.4,0.5,3.6,0.6c0.1,0,0.2,0,0.3-0.1c0.2,0.1,0.4,0.1,0.7,0.1c1.3,0,2.6,0.1,4,0
				c1.6-0.1,3.2-0.2,4.8-0.5c1.7-0.3,3.5-0.6,5.1-1.1c0.1,0,0.2-0.1,0.2-0.1c0.1,0,0.1,0,0.1,0C95.5,64.1,98.9,62.9,102.1,61.4z"/>
			<path class="st1" d="M104.3,65.2c0.6-0.3,1.3-0.6,2-0.8c3-1.2,5.8-2.7,8.5-4.4c0.1,0,0.1-0.1,0.2-0.1c0.7,1.2,1.4,2.4,2.1,3.6
				c0.7,1.2,1.4,2.3,2.1,3.5c-0.2,0.3-0.6,0.4-1,0.6c-3.1,1.7-6.4,3.1-9.7,4.2c-0.1,0-0.3,0.1-0.4,0.1c0,0,0-0.1-0.1-0.1
				C106.8,69.6,105.6,67.4,104.3,65.2z"/>
			<path class="st1" d="M76.3,68c0.9,0.2,1.7,0.5,2.6,0.6c1.2,0.2,2.3,0.4,3.5,0.4c0.8,0,1.5,0.1,2.3,0.1c1.5-0.1,2.9-0.1,4.4-0.3
				c0.2,0,0.4,0,0.6,0c-0.1,0.1-0.1,0.2-0.2,0.3c-1,1.8-2.1,3.6-3.1,5.4c-1.4-0.1-2.7-0.3-4-0.6c-2-0.4-3.9-1.1-5.7-2
				c-0.6-0.3-1.1-0.6-1.6-1c-0.1-0.1-0.3-0.2-0.4-0.3C75.3,69.8,75.8,68.9,76.3,68z"/>
			<path class="st2" d="M132.6,45.9c-0.1,0-0.1,0.1-0.1,0.2c-0.1-0.1-0.1-0.2-0.2-0.4C132.5,45.7,132.6,45.8,132.6,45.9z"/>
			<path class="st1" d="M69.6,79.5c1.6,0.7,3.3,1.3,5,1.8c1.9,0.5,3.8,0.8,5.8,1c0.5,0,1,0.1,1.6,0.1c-1.5,2.6-3,5.2-4.5,7.9
				c5.3-1.4,10.5-2.8,15.7-4.2c0,0.2-0.2,0.2-0.2,0.2c-6.5,3.7-13,7.5-19.5,11.2c-0.1,0.1-0.3,0.1-0.4,0.1c-4.6,0-9.2,0-13.8,0
				c-0.1,0-0.1,0-0.2,0C62.5,91.6,66.1,85.5,69.6,79.5z"/>
		</g>
	</g>
</g>
</svg>
