<?xml version="1.0" encoding="utf-8"?>
<!-- Generator: Adobe Illustrator 28.0.0, SVG Export Plug-In . SVG Version: 6.00 Build 0)  -->
<svg version="1.1" id="图层_1" xmlns="http://www.w3.org/2000/svg" xmlns:xlink="http://www.w3.org/1999/xlink" x="0px" y="0px"
	 viewBox="0 0 1920 1080" style="enable-background:new 0 0 1920 1080;" xml:space="preserve">
<style type="text/css">
	.st0{fill:#FEFEFE;}
	.st1{fill:#00A1E8;}
	.st2{fill:#154999;}
	.st3{fill:#356EAB;}
	.st4{fill:#366EAC;}
	.st5{fill:#376FAC;}
	.st6{fill:#356EAC;}
	.st7{fill:#FDFEFE;}
	.st8{fill:#15499A;}
	.st9{fill:#366FAC;}
	.st10{fill:#154293;}
	.st11{fill:#A8DEF6;}
	.st12{fill:#FDFDFE;}
	.st13{fill:#FBFCFD;}
	.st14{fill:#FDFDFD;}
	.st15{font-family:'FZSSK--GBK1-0';}
	.st16{font-size:176.2724px;}
</style>
<g>
	<path class="st0" d="M945.6,906.8c-304.6,0-609.4,0-914.5,0.5c-10.1,0-13.4-1.4-13.4-13.6c0.5-262.6,0.5-525.8,0-788.5
		c0-11.4,3.3-13,12.3-13c610.5,0,1219.9,0.5,1829.9-0.5c11.8,0,12.3,4.3,12.3,14.9c-0.5,262.1-0.5,524.6,0,786.6
		c0,12.3-2.7,13.6-13,13.6C1555,906.3,1250.4,906.8,945.6,906.8z"/>
	<path class="st1" d="M546.6,491.2c47.9-25,94.8-79.6,86.7-126.8c12.3,7.6,17.2,29.7,12.3,51c-10.1,43.1-38,71.4-68.2,96.6
		c-4.3,4.3-9.5,7.6-13.4,11.8c-18.8,17.5-39.5,32.2-65.1,35.5c-57.6,24-116.7,38-179.1,34.7c-27.6,7.1-52.6-1.6-75.2-17.5
		c-18.6-12.3-36.8-25-44-48.5c-9.5-29.1-1.4-54.8,13.6-78.9c24-40.4,60.3-66,98.5-88.4c1.6-0.6,4.3,0,9.5,0
		c-10.7,9.5-19.9,16.7-28.3,25c-18.6,17.5-34.1,37.4-40.4,63.8c-6.8,27.6,0.6,50.8,22.6,67.1c11.4,1.4,20,9.5,30.3,13
		c14.9,4.9,28.6,10.1,44,9.5c43.1,4.9,84.8-3.8,126.2-16.7C501.3,514.4,522.6,499.7,546.6,491.2z"/>
	<path class="st2" d="M293.8,486.7c30.3-57.5,61.1-114.6,91.5-172c10.7-20,21.3-39.8,32.8-60.8c11.4,20,22.6,39.2,33,57.6
		c15.5,14.9,21.3,36.2,32.2,54.8c8.5,14.1,19.2,27.6,21.3,45c-14.9,24-36.8,36.8-61.3,43.8c-13.4-11.2-18.8-26.8-23.4-41.1
		c-10.1,21.3-21.3,44.7-36.8,66c-16.7,11.2-36.2,12.3-54.8,13C317.1,489.1,304.3,496.2,293.8,486.7z"/>
	<path class="st2" d="M499.2,559.4c21.3-12.3,43.1-24,65.1-35.5c30.3,57,61.1,112.9,93.5,172.6c-29.7,0-57.5,0-84.3,0
		c-2.2,0-4.9-1.6-7.1-3.3c-35.5-22.6-71.2-45-106.1-68.2c28.3,2.7,54.8,14.9,83.7,20.7C528,615.8,513.7,587.7,499.2,559.4z"/>
	<path class="st3" d="M1533.5,399.7c-14.9,20.4-27.6,35.4-25.9,60.3c2.2,32.8-4.9,38.7-36.2,34.7c0-6,1.6-11.8,6-14.9
		c5.4-3.8,10.1-7.1,7.6-14.9c-2.2-9.5-9.8-3.8-14.9-4.7c-2.2-0.6-4.9,1.4-7.1-2.1c0.6-6,4.9-10.1,9.5-13.4
		c16.6-15.9,13-36.2,13.4-55.8c0-9.5-4.9-8.5-10.7-7.6c-6.3,0.5-11.2-0.5-11.2-9.8c0-9.8,3.8-11.8,11.4-11.2
		c5.4,0.5,9.8,0.5,10.7-8.5c0.6-6.8,20.7-8.5,21.3-2.1c0.6,12.3,7.4,10.7,14.1,10.1c7.1-0.5,8.5,3.3,8.7,10.1
		c0.5,8.5-2.1,11.4-9.8,11.2c-6-0.5-13-2.1-12.3,9.8c0.6,11.2,7.6,7.1,12.3,7.4c11.8,0.5,23.2,0,34.7,0c4.7,0,9.5,0.5,9.5-7.4
		c-0.5-7.1-4.3-6.8-8.5-6.8c-4.7,0-9.5-0.5-14.1,0c-7.1,0.5-9.5-2.7-9.5-10.1c0-7.1,1.6-9.8,8.7-10.1c9.5-0.5,22.3,6.3,25.6-12.3
		c0.5-3.3,17.2-3.8,17.5,0.6c2.2,18.8,14.9,9.5,22.6,11.4c5.4,1.6,13-2.7,13,9.5c0.5,11.8-6.3,10.1-13.4,11.4
		c-7.1,1.6-20-7.6-20,6.8c0,14.1,13,7.1,19.9,6.8c15.5-1.4,15.5,8.5,13,19.2c-3.3,14.9-11.4,25.9-20.7,35.4
		c-6.3,6.3-4.9,10.1,1.6,13.6c5.4,3.3,11.2,6.3,16.7,8.7c8.5,3.3,8.5,10.1,6.8,16.6c-2.1,7.4-9.5,4.3-11.8,2.2
		c-23.4-18.2-46.9-18.6-69.8,0c-2.7,2.1-9.8,4.9-11.8-2.2c-1.6-5.4-2.7-13,4.9-15.9c2.1-0.6,4.3-1.6,6-2.2
		c20.7-10.7,20.7-10.7,6-30.3c-4.3-5.4-7.4-12.3-11.8-18.8c13.6-4.9,23.2-2.1,30.3,10.7c7.1,12.3,14.9,12.3,22.6,0
		c3.3-4.9,6.8-10.1,12.3-18.6c-19.9,0-36.8-0.5-53.2,0C1538.3,417.1,1530.9,416.5,1533.5,399.7z"/>
	<path class="st1" d="M329.3,489.8c17.5-3.8,36.2-3.8,52.6-12.3c19.9-9.8,39.8-18.2,60.8-24c22.7-9.8,43.1-22.7,60.1-42
		c2.7-9.5,9.5-14.9,14.1-22.7c17.5-29.5,10.1-52.6-20-64c-8.5-3.3-17.5-3.3-25.6-8.5c-2.7-7.4,4.3-4.9,6.3-7.4
		c23.4-1.6,46.9,0.5,69.2,8.7c37.4,14.1,45.8,44.7,23.4,79.9c-13,20-31,33-48.3,48.3c-5.4,11.4-16.6,14.9-25.9,20.4
		c-12.3,7.1-25.6,12.3-38,18.8c-29.5,12.3-59.7,20.7-90.8,24c-18.6,1.4-36.8,4.3-55.8,0.6c-9.5-1.6-18.8-1.6-25.6-9.8
		c-4.9-4.9-13.6-4.9-18.2-12.3c8.5-3.8,16.1,4.7,24,2.1C304.3,487.9,317.1,487.9,329.3,489.8z"/>
	<path class="st2" d="M245,576.1c25,8.7,49.4,17.5,75.2,17.5c-8.5,16.1-16.7,32.7-27.6,52.3c29.5-8.5,55.8-15.9,82-22.7
		c0.5,1.4,0.6,2.2,1.4,4.3c-36.2,22.7-71.9,45.8-107.6,67.7c-4.3,2.7-11.4,1.6-16.7,1.6c-22.7,0-45.8,0-71.9,0
		C201.9,655.1,223.3,615.6,245,576.1z"/>
	<path class="st3" d="M794.4,346.5c24,0,48.3,0.5,72,0c7.1,0,10.7,1.6,10.1,10.1c0,8.7-3.8,10.7-10.7,10.1
		c-38.8-0.5-77.9,0.5-116.5-0.5c-11.2,0-14.9,3.3-14.1,15.5c0.6,25.1,0.6,50.8,0,75.6c-0.5,16.1,4.7,20.4,19.2,20
		c36.2-1.4,72-0.5,108.2-0.5c5.4,0,13-3.8,13.4,8.5c0,12.3-7.4,8.5-13,8.7c-42,0.5-83.9,0.5-125.7,0c-18.6,0-25-6.8-25-26.2
		c0-36.2,0.5-72-0.5-108.2c0-10.7,2.2-14.1,12.3-13.6C747.9,346.9,770.8,346.5,794.4,346.5z"/>
	<path class="st3" d="M715.5,699c14.9-39.8,28.6-75.8,41.7-112.6c4.3-11.4,13-6.3,20-7.6c7.4-1.4,11.2,3.3,13.6,10.1
		c11.2,30.3,22.6,59.7,32.8,90c2.1,4.9,10.7,14.1,2.2,16.6c-7.4,2.2-21.3,8.5-25-7.4c-4.3-16.6-13-18.8-27-19.2
		c-15.5-0.5-24,3.8-28.6,20C740.5,704.8,727.1,692.5,715.5,699z"/>
	<path class="st3" d="M746.5,468.7c8.5-25.1,3.8-51,4.3-76.6c0.5-12.3,2.7-15.5,14.1-15.5c28.3,0,56.4-2.1,84.5-3.3
		c6-0.5,13-2.2,12.3,9.5c-0.5,10.7-7.1,7.4-12.3,7.6c-21.3,1.4-43.1,2.2-64,3.8c-5.4,0.5-10.1,0-10.1,8.7c0,8.7,4.7,8.7,10.1,8.7
		c22.6,0,45,0,67.7,0c4.7,0,10.7-2.2,11.2,7.4c0.5,9.5-3.8,11.2-10.7,10.1c-9.5-1.6-12.3,3.3-11.4,13c0.5,5.4-0.5,11.8,0.5,17.2
		c1.4,9.8-3.8,11.8-11.2,11.4c-6.8-0.5-11.8,0.5-12.3-10.1c-1.4-31.6-1.6-30.3-30.3-31c-10.7,0-14.9,2.7-14.9,14.9
		C775.2,468.9,770.8,471.8,746.5,468.7z"/>
	<path class="st4" d="M1135.8,462.9c2.7-11.8,3.3-23.2,16.7-20.7c6,1.4,6.3-4.3,6.8-9.5c0-5.4-1.4-9.5-6.8-8.7c-0.5,0-1.4,0-1.6,0
		c-9.8,1.4-23.4-4.9-28.6,2.7c-6.3,11.2-2.2,26.8-1.6,40.4c0.5,7.1,6.3,6.3,11.2,6.3c14.1,0,28.3,0,42,0.5c3.8,0,10.1-2.2,9.5,4.7
		c-0.6,4.9-0.5,14.9-8.5,14.9c-21.3,0.5-43.1,1.4-64-0.6c-9.5-0.6-14.1-11.2-14.9-21.3c0-18.8,0.5-38-0.5-57
		c-0.5-9.5,3.8-10.1,10.7-10.1c22.3,0.5,44,0.5,66,0c7.6,0,12.3,2.1,11.2,11.4c-0.5,4.9,0,10.1,0,15.9c-0.5,24-7.1,32-29.1,32
		C1149,462.9,1142.7,462.9,1135.8,462.9z"/>
	<path class="st5" d="M1422.9,394.2c0,10.1,0,20.4,0,31c0,7.4-0.6,15.5,9.8,14.1c4.9-0.5,5.4,4.3,5.4,8.5c0,4.1,0.5,10.1-4.3,10.1
		c-14.9,0-12.3,11.2-11.4,20c0.6,12.3-1.6,16.7-14.1,16.7c-13,0-13.6-7.1-12.3-16.7c2.2-16.1-4.3-21.3-18.2-19.9
		c-7.6,1.4-15.9,0-23.4,0.5s-10.1-3.3-10.1-11.2c0-9.5,4.7-8.7,10.1-8.5c1.4,0,2.1,0,3.3,0c12.3-1.4,28.6,6.3,36.2-3.8
		c6-7.6,2.1-25.1,2.1-38c0-10.1,0-20.4,0-31c0-16.6,6.8-21.3,21.3-17.2c6,1.6,4.9,6.3,4.9,10.7
		C1422.9,371.5,1422.9,382.8,1422.9,394.2z"/>
	<path class="st3" d="M1517.3,668.8c0-15.9,0.5-31,0-46.9c-0.5-8.7,2.1-12.3,10.7-11.8c10.7,0.6,21.3,1.6,31.6,0
		c20-3.3,36.2,16.1,36.8,36.8c1.6,29.1-10.1,46.3-32.8,49c-2.2,0.5-4.9,0.5-7.6,0c-13-2.2-18.6,3.3-16.1,17.5
		c1.6,9.5-0.5,14.9-11.2,14.9c-11.8,0-11.2-6.8-11.2-14.9C1517.9,698.5,1517.3,684,1517.3,668.8z"/>
	<path class="st3" d="M1338.2,636.8c0-16.1,0.5-32.2,0-48.3c-0.5-9.5,4.3-10.1,10.7-10.1c6,0.5,13,0,11.2,9.5
		c-4.3,23.4,8.5,24,24,22.7c21.3-1.4,29.5,8.5,30.3,31.6c0.5,14.9-0.5,29.7,0.5,44.7c0.5,11.4-6,9.5-12.3,9.8
		c-7.1,0.5-10.7-1.4-10.1-10.1c0.5-13.6-0.5-27.6,0.5-41.1c0.5-16.7-9.5-16.7-20.7-18.2c-13.4-1.4-11.2,7.6-11.2,16.1
		c0,14.9-0.5,28.6,0,43.1c0.5,11.2-5.4,9.8-12.3,10.1c-7.4,0.5-10.1-2.1-10.1-10.7C1338.5,670.3,1338.2,653.2,1338.2,636.8z"/>
	<path class="st6" d="M1270.5,579.3c9.8,0,16.1,0.5,22.3,0c6.8-0.5,9.5,2.2,9.5,10.1c0,8.1-2.1,11.8-9.8,11.2
		c-9.5-0.5-17.5,0-26.8,0c-4.9,0-10.7,0.5-14.9,4.3c-15.5,14.1-9.5,32.8-8.5,49.9c0.6,14.9,11.4,21.3,24,22.3
		c8.5,0.5,16.7,0.5,25.1,0.5c6.8-0.5,10.7,1.4,10.7,10.1c0,8.5-2.2,11.4-9.8,11.2c-11.4-0.5-23.2,0.5-34.7-0.5
		c-21.3-1.6-33-12.3-39.2-34.9c-4.7-18.6-4.3-38,2.1-55.3C1229.6,579.6,1251.2,577.7,1270.5,579.3z"/>
	<path class="st3" d="M929.7,349.5c7.4-0.6,13.6-0.5,16.1,9.5c1.6,6.8,6.8,4.3,10.1,4.3c13.6,0.5,27.6,0.5,40.4,0
		c8.5,0,16.9,2.2,21.3-10.1c3.3-8.5,13.4-2.7,20-3.3c6-0.5,3.8,4.3,3.3,8.5c-0.5,9.8,7.1,4.7,10.1,4.7c8.5-0.5,10.7,3.3,10.7,12.3
		c0,10.1-5.4,8.7-11.4,9.5c-6.8,0.6-14.9-4.3-19.2,8.5c-2.7,7.4-20,4.3-23.4-4.7c-2.1-4.3-4.7-3.8-7.4-3.8
		c-13.6-0.5-27.6-0.5-40.4-0.5c-2.2,0-4.7-0.6-6.8,2.2c-7.6,12.3-16.9,13.4-25.9,1.6c-4.3-6-9.5-3.3-14.1-3.8
		c-6-0.5-11.2,0.5-11.4-9.5c0-9.5,2.7-12.3,11.2-11.4c2.2,0.5,8.5,1.4,7.1-3.3C914.4,345.6,924,350.8,929.7,349.5z"/>
	<path class="st6" d="M1297.7,448.1c0-9.5-0.5-18.6,0-27.6c0.5-12.3,1.4-23.4-15.9-20c-5.4,1.4-6.8-2.7-7.1-8.5
		c0-6,1.4-10.1,7.4-9.8c2.2,0.5,4.9,0,7.6,0c4.3,0,6.8-1.6,6.8-7.1c0-6-3.8-5.4-7.1-6c-6-0.6-14.9,4.3-14.1-9.5
		c0.5-12.3,9.5-9.5,14.9-9.8c14.1-1.6,28.3-1.4,42-1.6c6-0.5,8.5,1.6,8.5,8.7s-2.2,9.5-8.5,8.7c-3.3-0.5-6.3,0.5-9.5,0.5
		c-4.9,0.5-7.1,3.8-6.8,9.5c0.5,4.9,3.3,6.3,7.4,6.8c4.7,0,9.8-0.6,14.1,1.4c4.9,2.1,3.3,7.6,2.7,12.3c-0.5,7.1-6.3,4.9-9.8,4.7
		c-12.3-2.1-14.9,4.3-14.9,16.6c0.6,21.3,0,43.8,0.5,65.1c0.5,9.5-2.1,12.3-10.7,12.3c-8.5,0-9.5-4.3-9.5-11.8
		C1298.3,471.3,1297.7,459.9,1297.7,448.1z"/>
	<path class="st7" d="M471.4,315.1c0.5,0,1.4,0,1.6,0c23.4,2.7,47.5,7.1,55.8,34.9c7.4,26.2-9.5,44.7-25.6,61.1
		c-17.2-32.8-34.7-66-51.5-99.2c1.6,0,3.3,0,4.3,0C460.7,315.7,466.7,310.7,471.4,315.1z"/>
	<path class="st4" d="M1106.4,653.8c0-43.1,0-43.1,38.7-43.1c28.3,0,34.1,6,34.7,36.8c0.5,12.3,0,24,0,36.2c0,7.6,0,14.1-10.1,14.1
		c-10.1,0-11.2-4.7-10.7-13.6c0.5-13,0-26.2,0-39.2c0.5-15.9-9.5-16.1-20-16.7c-13.4-0.6-10.7,8.5-10.7,16.6c0,13-0.5,26.2,0,39.2
		c0.5,8.5,0,13.6-10.1,13.6c-11.2,0-12.3-4.9-11.4-14.9C1106.4,673,1106.4,663.3,1106.4,653.8z"/>
	<path class="st2" d="M457.5,480.3c22.3-11.2,44-21.3,64-34.9c8.5,15.5,16.6,30.3,24,45.8c-20,16.6-43.8,24-67.1,33
		C467,513.1,458.8,498.9,457.5,480.3z"/>
	<path class="st4" d="M988.9,493.9c-47.5,0-47.5,0-47.5-52.3c0-7.1,0.5-13.6,0-20.4c-0.5-9.8-1.4-16.7,12.3-17.2
		c13.6,0,13.4,6.8,13.6,17.5c0.5,16.7-7.1,39.2,3.8,49c9.5,8.5,29.1,2.1,44,3.3c4.3,0.5,12.3-4.3,11.8,4.9
		c-0.5,7.1-2.1,16.6-13,15.9C1005.7,493.7,997.1,493.9,988.9,493.9z"/>
	<path class="st3" d="M1250.4,416.5c0,17.5,0,35.4,0,53.2c0,14.9-6.3,24-20.4,24c-4.3,0-11.4,2.7-13-2.1c-2.1-5.4,0.5-13.6,4.9-16.6
		c7.1-4.7,6.3-11.2,6.3-17.5c0-32.7,0-65.1,0.5-97.3c0-4.7-4.3-14.9,6.3-13c7.6,0.6,16.7,0,16.1,14.9
		C1249.8,379.5,1250.4,397.9,1250.4,416.5z"/>
	<path class="st3" d="M991.6,696.8c-19.2-0.5-26.8-9.5-27.6-29.7c0-7.4,0.5-14.9,0-22.6c-0.5-7.4,3.8-18.2-10.1-17.5
		c-4.3,0.5-4.3-4.7-4.3-7.6c0-3.3-0.5-8.5,3.8-8.5c14.9,0.5,9.8-11.4,10.1-18.8c0.5-7.6-0.5-14.1,10.1-14.1c10.1,0,13,4.3,12.3,14.1
		c-0.6,10.7-2.1,21.3,13.4,18.6c4.9-1.4,5.4,3.8,5.4,7.6c0,4.7,0.5,10.1-6,9.5c-14.1-2.2-13.6,7.1-13,17.2c0.5,6.8,0.5,13.6,0,20.4
		c-0.5,7.1,2.2,11.4,8.5,12.3c7.1,0.6,11.8,2.2,10.7,12.3C1004.2,701.7,996,694.3,991.6,696.8z"/>
	<path class="st5" d="M863.4,653.2c0-0.5,0-1.4,0-1.6c0-44.7,2.2-46.9,43.8-40.4c13.6,2.1,23.2,21.3,16.7,34.7
		c-2.2,5.4-7.1,2.7-11.2,3.8c-4.3,0.5-7.6-0.5-8.5-7.1c-0.5-9.8-6-14.9-14.9-13.4c-8.7,1.6-4.7,10.1-4.7,15.9
		c-0.5,13.6-0.5,27.6,0,41.1c0.5,9.5-2.2,12.3-10.7,12.3c-7.4,0-11.8-1.6-11.2-11.4C864,674.8,863.4,663.9,863.4,653.2z"/>
	<path class="st4" d="M1189.9,398.5c-18.2,7.1-26.8-2.1-30.3-19.9c-2.1-8.5-4.7-14.9-14.9-13c-9.8,1.6-22.3-4.7-25.6,11.8
		c-4.3,18.6-14.9,22.7-32,18.2c4.9-13.6,10.1-27.6,15.9-41.1c2.1-4.9,5.4-6,10.1-6c6,0.5,11.4,0,17.2,0
		C1176.2,349.5,1176.2,349.5,1189.9,398.5z"/>
	<path class="st3" d="M1064.9,638.7c0,16.1-0.5,32.2,0.5,47.9c0.5,10.1-4.3,10.7-11.4,10.7c-7.4,0-11.4-1.4-11.4-11.2
		c0.5-32.2,0.5-63.8,0-95.8c-0.5-11.2,4.3-11.8,12.3-11.8c8.7-0.5,10.7,3.8,10.7,12.3C1064.9,606.5,1064.9,622.6,1064.9,638.7z"/>
	<path class="st5" d="M1222.1,412.5c0,14.9-0.5,28.6,0,43.1c0.5,9.5-2.7,12.3-11.2,11.8c-7.1-0.5-11.8-0.5-11.8-10.7
		c0.5-29.1,0.5-58.4,0-87.5c0-9.5,2.2-11.8,10.7-12.3c9.5,0,12.3,3.3,11.8,13C1221.5,384.3,1222.1,397.9,1222.1,412.5z"/>
	<path class="st8" d="M285.7,500.3c26.8,7.6,54.8,6.3,81.6,4.3c-0.5,16.1-8.7,27-18.8,37.4c-26.8-0.5-51.5-8.5-72.5-26.2
		C279.7,510.4,282.9,505.2,285.7,500.3z"/>
	<path class="st4" d="M914.4,493.9c-9.8,2.1-14.9-0.6-13-13.4c2.7-20.7,4.3-41.7,7.4-62.4c1.6-11.8,13-17.2,23.4-13
		c4.3,1.6,3.8,4.7,3.3,8.5c-2.7,24-6.3,48.5-8.5,72.5C925.7,496.2,919.3,493.1,914.4,493.9z"/>
	<path class="st4" d="M1039.3,405.6c9.5-1.6,13,2.1,13.4,13c1.6,22.3,4.7,43.8,7.4,65.5c0.5,4.9,3.8,11.8-4.3,10.1
		c-6.3-1.4-16.9,7.4-18.8-6.8c-3.8-22.7-6.3-45.8-9.5-68.5C1025.9,407.3,1029.8,403.1,1039.3,405.6z"/>
	<path class="st9" d="M1352,351.4c7.6-1.4,18.2-4.7,22.6,1.6c7.1,11.2,10.1,25,14.9,37.4c-16.9,11.2-1.6,22.6-0.5,34.1
		c0.5,3.8-1.4,5.4-4.3,4.9c-7.1-0.6-15.9,4.3-20-4.7c-4.7-10.1-7.6-20.7-12.3-31.6c-0.5-1.4-1.4-2.2-0.6-3.3
		C1355.1,368.2,1355.1,368.2,1352,351.4z"/>
	<path class="st4" d="M1476.7,654.8c0,9.5,0,18.6,0,27.6c0,8.5,1.4,15.5-10.7,15.5c-11.2,0-11.8-4.9-11.4-14.9
		c0.5-19.9,0.5-38.8,0-58.4c-0.5-9.5,0.6-14.1,11.4-14.9c11.8,0,11.2,7.1,10.7,15.5C1476.1,635,1476.7,644.9,1476.7,654.8z"/>
	<path class="st9" d="M1004,462.9c-9.5,1.6-14.9,0.5-14.9-11.8c0-10.1-4.3-20-4.7-30.3c-0.5-6-6-16.6,6-16.6
		c7.4,0,18.6-5.4,18.8,11.8c0,10.7,3.8,21.3,4.9,32C1015.8,458.2,1015.9,467.3,1004,462.9z"/>
	<path class="st9" d="M1275.8,471.3c0-18.8,4.7-37.4,3.3-55.9c-0.5-6.3,2.7-7.4,7.6-7.4c4.7,0,8.5,1.4,7.6,7.4
		c-1.4,24-2.1,49-3.8,73.6c-0.5,7.1-5.4,5.4-9.5,5.4c-4.9,0.5-6.3-2.7-6.3-7.4C1275.8,481.5,1275.8,476.3,1275.8,471.3z"/>
	<path class="st5" d="M1322.7,427.4c0-4.3,0-9.5,0-13.6c0-5.4,3.3-6.3,7.1-6.3c4.3,0,8.5-0.5,8.7,6.8c0.6,24,2.1,47.9,3.3,71.9
		c0.5,6-1.6,8.5-7.1,8.5s-8.7-1.4-8.7-8.5c-0.5-19.9-1.6-38.8-2.2-57.6C1323.2,427.4,1322.7,427.4,1322.7,427.4z"/>
	<path class="st5" d="M1465.6,600.6c-7.4,1.4-11.8-0.5-11.8-10.1c0-9.5,3.3-11.8,11.2-11.8c7.1,0.5,11.8,1.4,11.8,11.2
		C1476.7,598.9,1474,602.2,1465.6,600.6z"/>
	<path class="st10" d="M329.3,489.8c-12.3,0-25.1,0-38,0c0.6-1.4,1.6-2.2,2.2-3.8C305.8,489.1,317.9,483.4,329.3,489.8z"/>
	<path class="st11" d="M471.4,315.1c-5.4,0-11.2,2.2-15.9-2.7c7.1-1.4,14.9-2.1,22.3-3.3C475.7,310.7,473.5,313,471.4,315.1z"/>
	<path class="st7" d="M348.3,542.2c6.3-12.3,12.3-25,18.8-37.4c31-4.3,60.8-13.6,90.7-24c7.4,14.9,14.9,29.5,22.3,44
		C437.1,538.7,393.7,548.8,348.3,542.2z"/>
	<path class="st12" d="M443.3,453.4c-18.8,12.3-38.8,20.7-60.8,24c12.3-22.6,24-45,36.2-68.5C427.2,424.7,435.3,439.2,443.3,453.4z"
		/>
	<path class="st13" d="M775.2,611.2c4.3,12.3,8.7,24,13.4,36.8c-31,2.2-31,2.2-19.9-26.8C770.5,617.4,770.5,613.1,775.2,611.2z"/>
	<path class="st14" d="M1539.1,649.6c3.8-6-7.1-18.6,6-21.3c9.5-2.2,19.9-2.1,25.1,8.7c6,11.2,6.3,22.7-1.6,33
		c-6.8,9.5-16.6,8.7-25.9,7.4c-4.3-0.5-3.8-4.9-3.8-8.5C1539.1,663.9,1539.1,657.5,1539.1,649.6z"/>
	<text transform="matrix(1 0 0 1 304.1016 924.3449)" class="st15 st16">www.artinchip.com</text>
</g>
</svg>
