<?xml version="1.0" encoding="utf-8"?>
<!-- Generator: Adobe Illustrator 28.0.0, SVG Export Plug-In . SVG Version: 6.00 Build 0)  -->
<svg version="1.0" id="图层_1" xmlns="http://www.w3.org/2000/svg" xmlns:xlink="http://www.w3.org/1999/xlink" x="0px" y="0px"
	 viewBox="0 0 595.3 841.9" style="enable-background:new 0 0 595.3 841.9;" xml:space="preserve">
<style type="text/css">
	.st0{fill:none;stroke:#040000;stroke-width:0;stroke-linecap:round;stroke-linejoin:round;stroke-miterlimit:10;}
	.st1{fill:#040000;}
	.st2{fill-rule:evenodd;clip-rule:evenodd;fill:#040000;}
</style>
<path class="st0" d="M837.1,692V149 M411,413.3h-67 M51.9,692h785.2 M454.9,392.5h-4.1 M470.5,392.5h8.5 M466.3,369.1v15.6
	 M466.3,382.9v11.6 M459.1,369.1v15.6 M459.1,382.9v11.6 M534.4,248.3v-4.1 M534.4,263.8v9 M558.2,259.7h-25.9 M551,252.4h-18.7
	 M564.8,367.1h15.6 M562.4,251.3H578 M598.3,256.6v105.2 M560.3,365.9h40.1 M553,252.4h47.3 M560.4,231.6v15.6 M444.6,231.6v15.6
	 M352.6,236.8h1v8.3h-1V236.8 M552.6,387.3v3 M532.7,387.3v3 M532.7,390.3v3 M546.3,393.3h-13.6 M546.3,390.3v3 M546.3,387.3v3
	 M543.5,387.3v6 M536.7,390.3v3 M536.7,387.3v3 M549.5,387.3v3 M546.3,387.3h6.3 M532.7,387.3h13.6 M536.3,390.4
	c0-0.9-0.7-1.6-1.6-1.6c-0.9,0-1.6,0.7-1.6,1.6c0,0.9,0.7,1.6,1.6,1.6C535.6,392,536.3,391.3,536.3,390.4L536.3,390.4z M534.7,388.6
	v3.5 M261.2,441.2h15.4 M265.7,441.2v3.4 M261.2,441.2v3.4 M273.1,441.2v3.4 M276.6,441.2v3.4 M276.6,444.5h-15.4 M261.2,456.7h15.4
	 M265.7,456.7v3.4 M273.1,456.7v3.4 M276.6,456.7v3.4 M276.6,460h-15.4 M92.6,210.3v4.2 M92.6,212.5h-3.2 M51.9,149v543 M51.9,149
	h785.2 M256.8,454.2V447 M241.5,442.9h17.4 M258.9,442.8h2.4 M246.7,462.5v14.2 M88.4,462.5V473 M516.1,382.5v22.4 M522.6,390.3h9.9
	 M532.9,390.4h3.5 M552.6,390.3h-15.9 M563.4,274.7h4.1 M552,253.5v23.3 M616.4,255.4v107.5 M575.9,367.1h42.6 M448.7,207.3h107.5
	 M560.4,235.8v-30.5 M449.9,223h105.2 M559.2,259.7v-38.8 M269.3,245.1v128.2 M104,212.1h128.2 M240.4,235.8V210 M95.7,235.8V210
	 M225.1,457.3h-5.6 M219.6,454.2h-1.7 M219.6,458.3h-1.7 M217.9,457.3h-5.6 M212.3,454.2h-1.7 M212.3,458.3h-1.7 M210.7,457.3h-5.6
	 M205.1,454.2h-1.7 M205.1,458.3h-1.7 M203.4,457.3h-5.6 M197.8,458.3h-1.7 M197.8,454.2h-1.7 M196.2,457.3h-5.6 M190.6,454.2H189
	 M190.6,458.3H189 M189,457.3h-5.6 M183.4,454.2h-1.7 M181.7,457.3h-5.6 M183.4,458.3h-1.7 M176.1,458.3h-1.7 M176.1,454.2h-1.7
	 M174.5,457.3h-5.6 M168.9,458.3h-1.7 M168.9,454.2h-1.7 M167.3,457.3h-5.6 M161.7,458.3H160 M161.7,454.2H160 M160,457.3h-5.6
	 M154.4,454.2h-1.7 M154.4,458.3h-1.7 M152.8,457.3h-5.6 M145.5,457.3H140 M147.2,458.3h-1.7 M147.2,454.2h-1.7 M138.3,457.3h-5.6
	 M140,458.3h-1.7 M140,454.2h-1.7 M132.7,454.2h-1.7 M132.7,458.3h-1.7 M131.1,457.3h-5.6 M125.5,454.2h-1.7 M125.5,458.3h-1.7
	 M123.8,457.3h-5.6 M116.6,457.3H111 M118.3,454.2h-1.7 M118.3,458.3h-1.7 M111,454.2h-1.7 M111,458.3h-1.7 M109.4,457.3H95.7
	 M226.8,458.3v-4.2 M225.1,458.3v-4.2 M219.6,458.3v-4.2 M217.9,458.3v-4.2 M212.3,458.3v-4.2 M210.7,458.3v-4.2 M205.1,458.3v-4.2
	 M203.4,458.3v-4.2 M197.8,458.3v-4.2 M196.2,458.3v-4.2 M190.6,458.3v-4.2 M189,458.3v-4.2 M183.4,458.3v-4.2 M181.7,458.3v-4.2
	 M176.1,458.3v-4.2 M174.5,458.3v-4.2 M168.9,458.3v-4.2 M167.3,458.3v-4.2 M161.7,458.3v-4.2 M160,458.3v-4.2 M154.4,458.3v-4.2
	 M152.8,458.3v-4.2 M147.2,458.3v-4.2 M145.5,458.3v-4.2 M140,458.3v-4.2 M138.3,458.3v-4.2 M132.7,458.3v-4.2 M131.1,458.3v-4.2
	 M125.5,458.3v-4.2 M123.8,458.3v-4.2 M118.3,458.3v-4.2 M116.6,458.3v-4.2 M226.8,454.2h-1.7 M111,458.3v-4.2 M109.4,458.3v-4.2
	 M95.7,442.9v14.5 M240.4,442.9v14.5 M240.4,442.9H95.7 M240.4,457.3h-13.7 M226.8,458.3h-1.7 M168.1,438v25 M352.6,252.1v5.6
	 M349.5,257.7v1.7 M353.6,257.7v1.7 M352.6,259.4v5.6 M349.5,264.9v1.7 M353.6,264.9v1.7 M352.6,266.6v5.6 M349.5,272.2v1.7
	 M353.6,272.2v1.7 M352.6,273.8v5.6 M353.6,279.4v1.7 M349.5,279.4v1.7 M352.6,281.1v5.6 M349.5,286.6v1.7 M353.6,286.6v1.7
	 M352.6,288.3v5.6 M349.5,293.9v1.7 M352.6,295.5v5.6 M353.6,293.9v1.7 M353.6,301.1v1.7 M349.5,301.1v1.7 M352.6,302.8v5.6
	 M353.6,308.3v1.7 M349.5,308.3v1.7 M352.6,310v5.6 M353.6,315.6v1.7 M349.5,315.6v1.7 M352.6,317.2v5.6 M349.5,322.8v1.7
	 M353.6,322.8v1.7 M352.6,324.5v5.6 M352.6,331.7v5.6 M353.6,330.1v1.7 M349.5,330.1v1.7 M352.6,338.9v5.6 M353.6,337.3v1.7
	 M349.5,337.3v1.7 M349.5,344.5v1.7 M353.6,344.5v1.7 M352.6,346.2v5.6 M349.5,351.8v1.7"/>
<path class="st0" d="M353.6,351.8v1.7 M352.6,353.4v5.6 M352.6,360.6v5.6 M349.5,359v1.7 M353.6,359v1.7 M349.5,366.2v1.7
	 M353.6,366.2v1.7 M352.6,367.9v13.6 M353.6,250.5h-4.2 M353.6,252.1h-4.2 M353.6,257.7h-4.2 M353.6,259.4h-4.2 M353.6,264.9h-4.2
	 M353.6,266.6h-4.2 M353.6,272.2h-4.2 M353.6,273.8h-4.2 M353.6,279.4h-4.2 M353.6,281.1h-4.2 M353.6,286.6h-4.2 M353.6,288.3h-4.2
	 M353.6,293.9h-4.2 M353.6,295.5h-4.2 M353.6,301.1h-4.2 M353.6,302.8h-4.2 M353.6,308.3h-4.2 M353.6,310h-4.2 M353.6,315.6h-4.2
	 M353.6,317.2h-4.2 M353.6,322.8h-4.2 M353.6,324.5h-4.2 M353.6,330.1h-4.2 M353.6,331.7h-4.2 M353.6,337.3h-4.2 M353.6,338.9h-4.2
	 M353.6,344.5h-4.2 M353.6,346.2h-4.2 M353.6,351.8h-4.2 M353.6,353.4h-4.2 M353.6,359h-4.2 M353.6,360.6h-4.2 M349.5,250.5v1.7
	 M353.6,366.2h-4.2 M353.6,367.9h-4.2 M338.2,381.5h14.5 M338.2,236.8h14.5 M338.2,236.8v144.7 M352.6,236.8v13.7 M353.6,250.5v1.7
	 M332.2,309.2H359 M168.1,375v17.4 M168.1,368.4v3.3 M168.1,345.5v19.7 M168.1,338.9v3.3 M168.1,315.9v19.7 M168.1,309.4v3.3
	 M168.1,286.4v19.7 M168.1,279.8v3.3 M168.1,256.9v19.7 M168.1,250.3v3.3 M168.1,229.6V247 M95.7,381.5h144.7 M95.7,236.8h144.7
	 M95.7,236.8v144.7 M240.4,236.8v144.7 M232.2,309.2h20 M225.6,309.2h3.3 M202.7,309.2h19.7 M196.1,309.2h3.3 M173.1,309.2h19.7
	 M166.6,309.2h3.3 M143.6,309.2h19.7 M137,309.2h3.3 M114.1,309.2h19.7 M107.5,309.2h3.3 M84.3,309.2h20 M673.2,164.5H714
	 M673.2,164.5v12.9 M673.2,177.4v26 M714,164.5h26.6 M740.5,164.5h26.6 M767.1,164.5h26.6 M714,164.5v12.9 M793.7,164.5v12.9
	 M714,177.4h26.6 M714,177.4v11.9 M740.5,177.4h26.6 M740.5,177.4v11.9 M767.1,177.4h26.6 M767.1,177.4v11.9 M793.7,177.4v11.9
	 M673.2,189.3H714 M714,189.3h26.6 M740.5,189.3h26.6 M767.1,189.3h26.6 M673.2,203.4H714 M673.2,203.4v14.1 M714,203.4h26.6
	 M714,203.4v14.1 M740.5,203.4h26.6 M740.5,203.4v14.1 M767.1,203.4h26.6 M767.1,203.4v14.1 M793.7,203.4v14.1 M673.2,217.4H714
	 M714,217.4h26.6 M740.5,217.4h26.6 M767.1,217.4h26.6 M673.2,217.4H714 M673.2,217.4v14.1 M714,217.4h26.6 M714,217.4v14.1
	 M740.5,217.4h26.6 M740.5,217.4v14.1 M767.1,217.4h26.6 M767.1,217.4v14.1 M793.7,217.4v14.1 M673.2,231.5H714 M714,231.5h26.6
	 M740.5,231.5h26.6 M767.1,231.5h26.6 M673.2,231.5H714 M673.2,245.5v14.1 M714,231.5h26.6 M714,245.5v14.1 M740.5,231.5h26.6
	 M740.5,245.5v14.1 M767.1,231.5h26.6 M767.1,245.5v14.1 M793.7,245.5v14.1 M673.2,259.6H714 M714,259.6h26.6 M740.5,259.6h26.6
	 M767.1,259.6h26.6 M673.2,259.6H714 M673.2,259.6v14.1 M714,259.6h26.6 M714,259.6v14.1 M740.5,259.6h26.6 M740.5,259.6v14.1
	 M767.1,259.6h26.6 M767.1,259.6v14.1 M793.7,259.6v14.1 M673.2,273.6H714 M714,273.6h26.6 M740.5,273.6h26.6 M767.1,273.6h26.6
	 M673.2,273.6H714 M673.2,287.7v14.1 M714,273.6h26.6 M740.5,273.6h26.6 M767.1,273.6h26.6 M714,287.7v14.1 M793.7,287.7v14.1
	 M673.2,301.7H714 M673.2,301.7v14.1 M714,301.7h26.6 M740.5,301.7h26.6 M767.1,301.7h26.6 M714,301.7v14.1 M793.7,301.7v14.1
	 M673.2,315.8H714 M673.2,315.8v14.1 M714,315.8h26.6 M714,315.8v14.1 M740.5,315.8h26.6 M740.5,315.8v14.1 M767.1,315.8h26.6
	 M767.1,315.8v14.1 M793.7,315.8v14.1 M673.2,329.8H714 M714,329.8h26.6 M740.5,329.8h26.6 M767.1,329.8h26.6 M673.2,329.8H714
	 M673.2,414.1H714 M714,329.8h26.6 M714,414.1h26.6 M740.5,329.8h26.6 M740.5,414.1h26.6 M767.1,329.8h26.6 M767.1,414.1h26.6
	 M673.2,357.9V372 M714,357.9V372 M740.5,357.9V372 M767.1,357.9V372 M793.7,357.9V372 M673.2,372H714 M714,372h26.6 M740.5,372
	h26.6 M767.1,372h26.6 M673.2,414.1H714 M714,414.1h26.6 M740.5,414.1h26.6 M767.1,414.1h26.6 M673.2,343.9v14.1 M714,343.9v14.1
	 M793.7,343.9v14.1 M673.2,357.9H714 M714,357.9h26.6 M740.5,357.9h26.6 M767.1,357.9h26.6 M673.2,400.1v14.1 M714,400.1v14.1
	 M740.5,400.1v14.1 M767.1,400.1v14.1 M793.7,400.1v14.1 M673.2,414.1H714 M714,414.1h26.6 M740.5,414.1h26.6 M767.1,414.1h26.6
	 M673.2,428.2H714 M714,428.2h26.6 M740.5,428.2h26.6 M767.1,428.2h26.6 M673.2,414.1v14.1 M714,414.1v14.1 M740.5,414.1v14.1
	 M767.1,414.1v14.1 M793.7,414.1v14.1 M673.2,428.2H714 M714,428.2h26.6 M740.5,428.2h26.6 M767.1,428.2h26.6"/>
<path class="st1" d="M87.3,245.7c-0.1,0.1-0.2,0.2-0.3,0.3c-0.1,0.1-0.3,0.1-0.5,0.1h-0.2v0.1h0.4c0.1,0,0.1,0,0.2,0.1
	c0,0,0.1,0.1,0.1,0.2v3c0,0.1,0,0.2-0.1,0.3c-0.1,0.1-0.2,0.1-0.4,0.1h-0.2v0.1h1.8v-0.1h-0.2c-0.1,0-0.3,0-0.3-0.1
	c-0.1-0.1-0.1-0.2-0.1-0.3v-3.8H87.3z"/>
<path class="st1" d="M88.3,261.1c-0.1,0.2-0.3,0.5-0.6,0.8c-0.3,0.3-0.6,0.6-0.8,0.8c-0.2,0.2-0.3,0.4-0.4,0.6v0.3h2.3l0.1-1.1h-0.1
	c0,0.2-0.1,0.4-0.2,0.5c-0.1,0.1-0.2,0.2-0.4,0.2h-1.5c0.1-0.1,0.2-0.3,0.5-0.6c0.3-0.3,0.6-0.7,1.1-1.1c0.2-0.2,0.3-0.4,0.4-0.6
	c0.1-0.2,0.1-0.4,0.1-0.6c0-0.3-0.1-0.5-0.3-0.7s-0.5-0.3-0.9-0.3c-0.3,0-0.5,0.1-0.8,0.3c-0.2,0.2-0.4,0.4-0.4,0.8
	c0,0.1,0,0.2,0.1,0.3c0.1,0.1,0.1,0.1,0.2,0.1c0.1,0,0.1,0,0.2-0.1c0,0,0.1-0.1,0.1-0.2c0-0.1,0-0.1-0.1-0.2
	c-0.1-0.1-0.1-0.2-0.1-0.2c0-0.2,0.1-0.3,0.2-0.4c0.1-0.1,0.3-0.2,0.5-0.2c0.3,0,0.5,0.1,0.6,0.2c0.1,0.2,0.2,0.4,0.2,0.7
	C88.4,260.6,88.4,260.8,88.3,261.1L88.3,261.1z"/>
<path class="st1" d="M87.9,213.6c0,0,0,0.1,0,0.1c0,0,0,0,0,0.1c0,0-0.1,0-0.1,0h-0.1v0.1h0.8v-0.1h-0.1c0,0-0.1,0-0.1,0
	c0,0-0.1-0.1-0.1-0.1l-0.7-2.8l-0.3,0.1l-0.7,2.7c0,0.1,0,0.1-0.1,0.1c0,0-0.1,0-0.1,0h-0.1v0.1h0.7v-0.1h0c-0.1,0-0.1,0-0.1-0.1
	c0,0,0-0.1,0-0.1c0,0,0-0.1,0-0.1l0.2-0.7h0.8L87.9,213.6z M87.7,212.7h-0.7l0.4-1.5h0L87.7,212.7z"/>
<path class="st0" d="M89.5,212.6c0-1.1-0.9-2.1-2.1-2.1c-1.1,0-2.1,0.9-2.1,2.1s0.9,2.1,2.1,2.1C88.5,214.6,89.5,213.7,89.5,212.6
	L89.5,212.6z M109.7,248.7c0-1-0.8-1.8-1.8-1.8c-1,0-1.8,0.8-1.8,1.8c0,1,0.8,1.8,1.8,1.8C108.9,250.5,109.7,249.7,109.7,248.7
	L109.7,248.7z"/>
<polyline class="st2" points="106.1,248.7 106.1,249 106.2,249.3 106.4,249.6 106.6,249.9 106.8,250.1 107.1,250.3 107.4,250.4 
	107.7,250.5 108.1,250.5 108.4,250.4 108.7,250.3 109,250.1 109.2,249.9 109.4,249.6 109.6,249.3 109.7,249 109.7,248.7 
	109.7,248.4 109.6,248 109.4,247.8 109.2,247.5 109,247.3 108.7,247.1 108.4,247 108.1,246.9 107.7,246.9 107.4,247 107.1,247.1 
	106.8,247.3 106.6,247.5 106.4,247.8 106.2,248 106.1,248.4 106.1,248.7 "/>
<polyline class="st0" points="112.2,244.6 109.1,247.3 111.2,243.7 112.2,244.6 "/>
<polyline class="st1" points="112.2,244.6 109.1,247.3 111.2,243.7 112.2,244.6 "/>
<path class="st0" d="M241.5,236.8h29.9 M270.7,245.1h-2.8l1.4-8.3L270.7,245.1"/>
<polyline class="st1" points="270.7,245.1 267.9,245.1 269.3,236.8 270.7,245.1 "/>
<polyline class="st0" points="351.5,240.8 349.4,240.8 349.4,244.6 351.5,244.6 351.5,240.8 "/>
<path class="st1" d="M167.5,208.8c-0.5,0.5-1,0.8-1.7,0.8c-0.2,0-0.3,0-0.4-0.1c-0.1-0.1-0.1-0.2-0.1-0.3v-6.6
	c0-0.1,0.1-0.2,0.2-0.3s0.3-0.1,0.5-0.1c0.7,0,1.3,0.3,1.7,0.8c0.4,0.5,0.6,1.5,0.6,2.8C168.2,207.3,168,208.3,167.5,208.8
	L167.5,208.8z M164.6,209.2c0,0.1,0,0.2-0.1,0.3c-0.1,0.1-0.2,0.1-0.3,0.1h-0.3v0.3h2c1.1,0,1.9-0.3,2.5-1s0.8-1.7,0.8-3.1
	c0-1.3-0.3-2.2-0.9-2.9c-0.6-0.6-1.3-0.9-2.3-0.9h-2.1v0.3h0.3c0.2,0,0.3,0,0.3,0.1s0.1,0.2,0.1,0.3V209.2z"/>
<path class="st0" d="M445.7,251.4v-30.4 M449.9,222.3v1.4l-4.1-0.7L449.9,222.3"/>
<polyline class="st1" points="449.9,222.3 449.9,223.7 445.7,223 449.9,222.3 "/>
<path class="st0" d="M444.6,242.5v-37.2 M448.7,206.6v1.4l-4.1-0.7L448.7,206.6"/>
<polyline class="st1" points="448.7,206.6 448.7,208 444.6,207.3 448.7,206.6 "/>
<path class="st0" d="M450.8,245.1H420 M443.6,236.8H420 M422,249.2v9.2 M422,232.7v-4.1 M422.7,249.2h-1.4l0.7-4.1L422.7,249.2"/>
<polyline class="st1" points="422.7,249.2 421.3,249.2 422,245.1 422.7,249.2 "/>
<polyline class="st0" points="421.3,232.7 422.7,232.7 422,236.8 421.3,232.7 "/>
<polyline class="st1" points="421.3,232.7 422.7,232.7 422,236.8 421.3,232.7 "/>
<path class="st1" d="M500.8,202.2h-0.7v0.1h0.1c0.1,0,0.1,0,0.2,0s0,0.1,0,0.1v3.3c0,0.1,0,0.1,0,0.1s-0.1,0-0.2,0H500v0.1h0.9v-0.1
	h-0.2c-0.1,0-0.1,0-0.1,0c0,0-0.1-0.1-0.1-0.1v-3.1h0l1.8,3.5h0.1v-3.6c0-0.1,0-0.1,0.1-0.1c0,0,0.1,0,0.1,0h0.2v-0.1H502v0.1h0.2
	c0.1,0,0.1,0,0.2,0s0,0.1,0,0.1v2.7h0L500.8,202.2z M505.1,205.4c-0.1,0.2-0.1,0.4-0.3,0.5c-0.1,0.1-0.3,0.2-0.4,0.2
	c-0.2,0-0.4-0.1-0.5-0.3s-0.2-0.4-0.2-0.8c0-0.4,0.1-0.6,0.2-0.9c0.1-0.2,0.3-0.3,0.5-0.3c0.1,0,0.2,0,0.4,0.1
	c0.1,0,0.2,0.1,0.3,0.3V205.4z M504.8,206.1c0.1-0.1,0.2-0.2,0.3-0.3v0.4h0c0.1,0,0.2-0.1,0.3-0.1s0.2,0,0.2,0h0.1v-0.1h-0.2
	c-0.1,0-0.1,0-0.1,0s0-0.1,0-0.2v-3.7c-0.1,0.1-0.2,0.1-0.2,0.1s-0.2,0-0.2,0h-0.3v0.1h0.2c0.1,0,0.1,0,0.2,0.1s0,0.1,0,0.2v1.2
	c-0.1-0.1-0.2-0.2-0.3-0.2s-0.3-0.1-0.4-0.1c-0.3,0-0.5,0.1-0.8,0.4c-0.2,0.2-0.3,0.6-0.3,1c0,0.4,0.1,0.8,0.3,1
	c0.2,0.2,0.4,0.3,0.7,0.3C504.5,206.2,504.6,206.2,504.8,206.1L504.8,206.1z"/>
<polyline class="st0" points="556.2,208 556.2,206.6 560.4,207.3 556.2,208 "/>
<polyline class="st1" points="556.2,208 556.2,206.6 560.4,207.3 556.2,208 "/>
<polyline class="st0" points="104,210.7 104,213.4 95.7,212.1 104,210.7 "/>
<polyline class="st1" points="104,210.7 104,213.4 95.7,212.1 104,210.7 "/>
<polyline class="st0" points="232.2,213.4 232.2,210.7 240.4,212.1 232.2,213.4 "/>
<polyline class="st1" points="232.2,213.4 232.2,210.7 240.4,212.1 232.2,213.4 "/>
<path class="st1" d="M501.9,221.4c-0.2,0.3-0.5,0.4-0.9,0.4c-0.1,0-0.1,0-0.2,0s-0.1-0.1-0.1-0.1v-3.3c0-0.1,0-0.1,0.1-0.1
	s0.1,0,0.2,0c0.4,0,0.6,0.1,0.8,0.4c0.2,0.3,0.3,0.7,0.3,1.4C502.2,220.6,502.1,221.1,501.9,221.4L501.9,221.4z M500.4,221.6
	c0,0.1,0,0.1,0,0.1s-0.1,0-0.2,0H500v0.1h1c0.5,0,1-0.2,1.2-0.5s0.4-0.9,0.4-1.6c0-0.6-0.1-1.1-0.4-1.4c-0.3-0.3-0.7-0.5-1.1-0.5h-1
	v0.1h0.1c0.1,0,0.1,0,0.2,0s0,0.1,0,0.1V221.6z M504.8,219.6c-0.1,0.2-0.3,0.5-0.6,0.7c-0.3,0.3-0.5,0.6-0.7,0.8
	c-0.2,0.2-0.3,0.4-0.4,0.5v0.3h2.1l0.1-1h-0.1c0,0.2-0.1,0.4-0.2,0.5c-0.1,0.1-0.2,0.2-0.3,0.2h-1.4c0-0.1,0.2-0.3,0.4-0.5
	c0.2-0.3,0.6-0.6,1-1c0.2-0.2,0.3-0.3,0.4-0.5c0.1-0.2,0.1-0.4,0.1-0.6c0-0.3-0.1-0.5-0.3-0.7s-0.4-0.3-0.8-0.3
	c-0.3,0-0.5,0.1-0.7,0.3c-0.2,0.2-0.3,0.4-0.3,0.7c0,0.1,0,0.2,0.1,0.3s0.1,0.1,0.2,0.1c0.1,0,0.1,0,0.2-0.1c0,0,0.1-0.1,0.1-0.2
	c0-0.1,0-0.1-0.1-0.2c-0.1-0.1-0.1-0.1-0.1-0.2c0-0.2,0.1-0.3,0.2-0.4s0.3-0.1,0.5-0.1c0.2,0,0.4,0.1,0.6,0.2s0.2,0.4,0.2,0.6
	C505,219.1,504.9,219.3,504.8,219.6L504.8,219.6z"/>
<path class="st1" d="M109,228.6c0.2-0.1,0.3-0.2,0.5-0.2c0.2,0,0.4,0.1,0.5,0.3c0.1,0.2,0.2,0.4,0.2,0.8c0,0.5-0.1,0.8-0.2,1
	s-0.3,0.3-0.6,0.3s-0.5-0.1-0.6-0.4c-0.2-0.3-0.3-0.7-0.3-1.2C108.7,228.9,108.9,228.7,109,228.6L109,228.6z M109,228.3
	c-0.2,0.1-0.3,0.3-0.4,0.5c0-0.9,0.1-1.4,0.3-1.7c0.2-0.3,0.4-0.4,0.7-0.4c0.1,0,0.2,0,0.3,0.1c0.1,0,0.1,0.1,0.1,0.2
	c0,0,0,0.1,0,0.1c0,0,0,0.1,0,0.1c0,0.1,0,0.1,0.1,0.2c0,0,0.1,0.1,0.2,0.1c0.1,0,0.2,0,0.2-0.1c0-0.1,0.1-0.1,0.1-0.2
	s-0.1-0.2-0.2-0.3s-0.3-0.2-0.6-0.2c-0.5,0-0.9,0.2-1.1,0.6c-0.3,0.4-0.4,1-0.4,1.7c0,0.6,0.1,1.1,0.3,1.5c0.2,0.3,0.6,0.5,1,0.5
	c0.3,0,0.6-0.1,0.8-0.4c0.2-0.2,0.4-0.6,0.4-1.1c0-0.3-0.1-0.6-0.3-0.9c-0.2-0.3-0.5-0.4-0.9-0.4C109.4,228.2,109.2,228.2,109,228.3
	L109,228.3z M111.8,229.2c0.1-0.2,0.3-0.4,0.5-0.5c0.4,0.2,0.7,0.3,0.9,0.5c0.2,0.2,0.3,0.4,0.3,0.6c0,0.2-0.1,0.5-0.2,0.6
	s-0.4,0.2-0.7,0.2c-0.3,0-0.5-0.1-0.7-0.2s-0.3-0.4-0.3-0.6C111.6,229.6,111.7,229.4,111.8,229.2L111.8,229.2z M113.6,229.2
	c-0.1-0.2-0.3-0.4-0.6-0.5c0.3-0.1,0.5-0.3,0.6-0.5c0.1-0.2,0.2-0.4,0.2-0.6c0-0.3-0.1-0.5-0.3-0.7c-0.2-0.2-0.5-0.3-0.8-0.3
	c-0.4,0-0.7,0.1-0.9,0.3c-0.2,0.2-0.3,0.4-0.3,0.7c0,0.2,0.1,0.4,0.2,0.6c0.1,0.2,0.3,0.3,0.5,0.4c-0.3,0.1-0.5,0.3-0.6,0.5
	c-0.1,0.2-0.2,0.4-0.2,0.7s0.1,0.5,0.4,0.7c0.2,0.2,0.5,0.3,0.9,0.3c0.4,0,0.7-0.1,0.9-0.3c0.2-0.2,0.3-0.5,0.3-0.8
	C113.8,229.6,113.8,229.4,113.6,229.2L113.6,229.2z M113.3,228.2c-0.1,0.1-0.2,0.3-0.4,0.4c-0.3-0.1-0.6-0.3-0.8-0.5
	c-0.2-0.2-0.3-0.3-0.3-0.5c0-0.2,0.1-0.4,0.2-0.5c0.1-0.2,0.4-0.2,0.7-0.2c0.3,0,0.5,0.1,0.6,0.3c0.1,0.2,0.2,0.4,0.2,0.6
	C113.4,227.8,113.4,228,113.3,228.2L113.3,228.2z"/>
<path class="st0" d="M111.7,244.1l10.2-12.4 M121.9,231.7l1.7-0.3"/>
<path class="st1" d="M126.5,231c0.2,0,0.3-0.1,0.5-0.2c0.1-0.1,0.2-0.3,0.2-0.5c0-0.2-0.1-0.3-0.2-0.4c-0.1-0.1-0.3-0.2-0.5-0.2
	h-0.8v0.1h0.1c0,0,0.1,0,0.1,0c0,0,0,0,0,0.1v2c0,0,0,0.1,0,0.1c0,0,0,0-0.1,0h-0.1v0.1h0.7v-0.1h-0.1c0,0-0.1,0-0.1,0
	c0,0,0,0,0-0.1V231H126.5z M126.1,230.9v-1c0,0,0-0.1,0-0.1c0,0,0.1,0,0.1,0h0.2c0.2,0,0.3,0,0.4,0.1s0.1,0.2,0.1,0.4
	c0,0.2-0.1,0.3-0.2,0.4c-0.1,0.1-0.2,0.1-0.4,0.1H126.1z M128,229.8C128,229.8,128.1,229.9,128,229.8c0.1,0,0.1,0.1,0.1,0.1v2
	c0,0,0,0.1,0,0.1c0,0,0,0-0.1,0h-0.3v0.1h1.1v-0.1h-0.3c0,0-0.1,0-0.1,0c0,0,0,0,0-0.1v-2c0,0,0-0.1,0-0.1c0,0,0.1,0,0.1,0h0.3v-0.1
	h-1.1v0.1H128z M129.6,229.8h-0.4v0.1h0.1c0,0,0.1,0,0.1,0c0,0,0,0,0,0.1v2c0,0,0,0.1,0,0.1c0,0,0,0-0.1,0h-0.1v0.1h0.6v-0.1h-0.1
	c0,0-0.1,0-0.1,0c0,0,0,0,0-0.1v-1.9h0l1.1,2.1h0.1V230c0,0,0-0.1,0-0.1c0,0,0.1,0,0.1,0h0.1v-0.1h-0.6v0.1h0.1c0,0,0.1,0,0.1,0
	c0,0,0,0,0,0.1v1.6h0L129.6,229.8z M133.6,229.7c0,0.1-0.1,0.1-0.2,0.2c-0.1,0-0.2,0.1-0.3,0.1h-0.1v0.1h0.2c0,0,0.1,0,0.1,0
	c0,0,0,0.1,0,0.1v1.7c0,0.1,0,0.1-0.1,0.2c0,0-0.1,0.1-0.2,0.1h-0.1v0.1h1v-0.1h-0.1c-0.1,0-0.1,0-0.2-0.1c0,0-0.1-0.1-0.1-0.2
	L133.6,229.7L133.6,229.7z M136,229.3c-0.3,0.2-0.5,0.5-0.6,0.8c-0.1,0.3-0.2,0.5-0.2,0.8c0,0.3,0.1,0.6,0.2,0.8
	c0.1,0.3,0.3,0.5,0.6,0.7l0.1-0.1c-0.2-0.2-0.4-0.5-0.5-0.7c-0.1-0.2-0.2-0.5-0.2-0.8c0-0.3,0.1-0.5,0.2-0.8
	C135.7,229.9,135.8,229.6,136,229.3L136,229.3z M136.8,230C136.8,229.9,136.8,229.9,136.8,230c0.1-0.1,0.1-0.1,0.1-0.1h0.1v-0.1
	h-0.7v0.1h0.1c0,0,0.1,0,0.1,0c0,0,0,0,0,0.1v2c0,0,0,0.1,0,0.1c0,0,0,0-0.1,0h-0.1v0.1h1.4l0.1-0.5l-0.1,0c0,0.2-0.1,0.3-0.2,0.4
	s-0.2,0.1-0.3,0.1h-0.4c0,0-0.1,0-0.1,0c0,0,0,0,0-0.1V230z M138.9,232.1c0.1,0,0.2-0.1,0.3-0.1c0,0.1,0,0.1,0.1,0.1
	c0,0,0.1,0,0.2,0c0.1,0,0.1,0,0.2-0.1c0,0,0.1-0.1,0.1-0.3h-0.1c0,0.1,0,0.1,0,0.2c0,0,0,0.1-0.1,0.1c0,0-0.1,0-0.1,0s0-0.1,0-0.1
	V231c0-0.1,0-0.2-0.1-0.3c-0.1-0.1-0.2-0.1-0.4-0.1c-0.2,0-0.3,0-0.4,0.1s-0.2,0.2-0.2,0.2c0,0,0,0.1,0,0.1c0,0,0.1,0,0.1,0
	c0.1,0,0.1,0,0.1,0s0,0,0-0.1c0,0,0,0,0-0.1c0-0.1,0-0.1,0.1-0.2c0.1-0.1,0.2-0.1,0.3-0.1c0.1,0,0.2,0,0.3,0.1
	c0,0.1,0.1,0.1,0.1,0.2v0.2c-0.4,0-0.7,0.1-0.9,0.2c-0.1,0.1-0.2,0.2-0.2,0.4c0,0.1,0,0.2,0.1,0.3c0.1,0.1,0.2,0.1,0.4,0.1
	C138.8,232.2,138.9,232.1,138.9,232.1L138.9,232.1z M138.5,231.4c0.1-0.1,0.3-0.1,0.7-0.2v0.7c-0.1,0.1-0.2,0.1-0.3,0.1
	c-0.1,0-0.2,0-0.2,0c-0.1,0-0.2,0-0.2-0.1c0-0.1-0.1-0.1-0.1-0.2C138.4,231.6,138.4,231.5,138.5,231.4L138.5,231.4z M140.1,231.2
	c0,0.1,0.1,0.1,0.2,0.1c0.1,0,0.2,0.1,0.3,0.1c0.1,0,0.2,0.1,0.3,0.1c0,0,0.1,0,0.1,0.1c0,0,0.1,0.1,0.1,0.2c0,0.1,0,0.2-0.1,0.2
	c-0.1,0-0.2,0.1-0.3,0.1c-0.2,0-0.3,0-0.4-0.1s-0.2-0.2-0.2-0.3l-0.1,0l0,0.5c0,0,0.1,0,0.1,0c0,0,0.1,0,0.1,0c0,0,0.1,0,0.2,0
	c0.1,0,0.1,0,0.3,0c0.2,0,0.3,0,0.4-0.1c0.1-0.1,0.1-0.2,0.1-0.3c0-0.1,0-0.1-0.1-0.2c-0.1-0.1-0.1-0.1-0.2-0.1
	c-0.1,0-0.2-0.1-0.3-0.1c-0.1,0-0.2-0.1-0.3-0.1c-0.1,0-0.1,0-0.2-0.1c0,0,0-0.1,0-0.2c0-0.1,0-0.1,0.1-0.2c0.1,0,0.2-0.1,0.3-0.1
	c0.1,0,0.2,0,0.3,0.1c0.1,0.1,0.1,0.2,0.2,0.3l0.1,0l-0.1-0.5c0,0,0,0-0.1,0.1c0,0,0,0-0.1,0c0,0-0.1,0-0.2,0c-0.1,0-0.1,0-0.2,0
	c-0.1,0-0.3,0-0.4,0.1s-0.2,0.2-0.2,0.3C140.1,231.1,140.1,231.1,140.1,231.2L140.1,231.2z M142,231.3c0-0.2,0-0.3,0.1-0.5
	c0.1-0.1,0.2-0.2,0.3-0.2c0.1,0,0.2,0.1,0.3,0.2c0.1,0.1,0.1,0.3,0.1,0.5H142z M143.1,231.4c0-0.3-0.1-0.5-0.2-0.6
	c-0.1-0.1-0.3-0.2-0.5-0.2c-0.2,0-0.4,0.1-0.5,0.2c-0.1,0.2-0.2,0.3-0.2,0.6c0,0.3,0.1,0.5,0.2,0.6c0.1,0.1,0.3,0.2,0.5,0.2
	c0.2,0,0.3,0,0.4-0.1c0.1-0.1,0.2-0.2,0.2-0.3l-0.1,0c0,0.1-0.1,0.2-0.2,0.3c-0.1,0.1-0.2,0.1-0.3,0.1c-0.2,0-0.3-0.1-0.4-0.2
	c-0.1-0.1-0.1-0.3-0.1-0.5H143.1z M144,230.5L144,230.5c-0.1,0-0.2,0-0.2,0c-0.1,0-0.2,0-0.2,0h-0.1v0.1h0.3c0,0,0.1,0,0.1,0
	c0,0,0,0.1,0,0.1v1.2c0,0,0,0.1,0,0.1c0,0,0,0-0.1,0h-0.3v0.1h1v-0.1h-0.3c0,0-0.1,0-0.1,0c0,0,0,0,0-0.1v-0.8
	c0.1-0.2,0.2-0.3,0.3-0.4c0.1-0.1,0.2-0.1,0.3-0.1c0,0,0.1,0,0.1,0c0,0,0,0,0,0.1c0,0,0,0.1,0,0.1c0,0,0.1,0,0.1,0c0,0,0.1,0,0.1,0
	c0,0,0-0.1,0-0.1c0-0.1,0-0.1-0.1-0.1c-0.1,0-0.1-0.1-0.2-0.1c-0.1,0-0.2,0-0.3,0.1s-0.2,0.2-0.3,0.3V230.5z M148.4,230
	C148.4,229.9,148.4,229.9,148.4,230c0.1-0.1,0.1-0.1,0.1-0.1h0.1v-0.1h-0.4l-0.4,1.9h0l-0.4-1.9h-0.4v0.1h0.1c0,0,0.1,0,0.1,0
	c0,0,0,0,0,0.1v2c0,0,0,0.1,0,0.1c0,0,0,0-0.1,0h0v0.1h0.4v-0.1h0c0,0-0.1,0-0.1,0c0,0,0,0,0-0.1v-1.8h0l0.4,2h0.1l0.5-2h0v1.8
	c0,0,0,0.1,0,0.1c0,0,0,0-0.1,0H148v0.1h0.6v-0.1h-0.1c0,0-0.1,0-0.1,0c0,0,0,0,0-0.1V230z M149.6,232.1c0.1,0,0.2-0.1,0.3-0.1
	c0,0.1,0,0.1,0.1,0.1c0,0,0.1,0,0.2,0c0.1,0,0.1,0,0.2-0.1c0,0,0.1-0.1,0.1-0.3h-0.1c0,0.1,0,0.1,0,0.2c0,0,0,0.1-0.1,0.1
	c0,0-0.1,0-0.1,0s0-0.1,0-0.1V231c0-0.1,0-0.2-0.1-0.3c-0.1-0.1-0.2-0.1-0.4-0.1c-0.2,0-0.3,0-0.4,0.1s-0.2,0.2-0.2,0.2
	c0,0,0,0.1,0,0.1c0,0,0.1,0,0.1,0c0.1,0,0.1,0,0.1,0s0,0,0-0.1c0,0,0,0,0-0.1c0-0.1,0-0.1,0.1-0.2c0.1-0.1,0.2-0.1,0.3-0.1
	c0.1,0,0.2,0,0.3,0.1c0,0.1,0.1,0.1,0.1,0.2v0.2c-0.4,0-0.7,0.1-0.9,0.2c-0.1,0.1-0.2,0.2-0.2,0.4c0,0.1,0,0.2,0.1,0.3
	c0.1,0.1,0.2,0.1,0.4,0.1C149.4,232.2,149.5,232.1,149.6,232.1L149.6,232.1z M149.2,231.4c0.1-0.1,0.3-0.1,0.7-0.2v0.7
	c-0.1,0.1-0.2,0.1-0.3,0.1c-0.1,0-0.2,0-0.2,0c-0.1,0-0.2,0-0.2-0.1c0-0.1-0.1-0.1-0.1-0.2C149,231.6,149.1,231.5,149.2,231.4
	L149.2,231.4z M151.1,230.5L151.1,230.5c-0.1,0-0.2,0-0.2,0c-0.1,0-0.2,0-0.2,0h-0.1v0.1h0.3c0,0,0.1,0,0.1,0c0,0,0,0.1,0,0.1v1.2
	c0,0,0,0.1,0,0.1c0,0,0,0-0.1,0h-0.3v0.1h1v-0.1h-0.3c0,0-0.1,0-0.1,0c0,0,0,0,0-0.1v-0.8c0.1-0.2,0.2-0.3,0.3-0.4
	c0.1-0.1,0.2-0.1,0.3-0.1c0,0,0.1,0,0.1,0c0,0,0,0,0,0.1c0,0,0,0.1,0,0.1c0,0,0.1,0,0.1,0c0,0,0.1,0,0.1,0c0,0,0-0.1,0-0.1
	c0-0.1,0-0.1-0.1-0.1c-0.1,0-0.1-0.1-0.2-0.1c-0.1,0-0.2,0-0.3,0.1s-0.2,0.2-0.3,0.3V230.5z M153.4,230.8c0,0,0.1-0.1,0.1-0.1
	s0.1,0,0.1,0h0.1v-0.1h-0.6v0.1h0.1c0,0,0.1,0,0.1,0c0,0,0,0.1,0,0.1l-0.6,0.6v-1.8h0c0,0-0.1,0.1-0.1,0.1c0,0-0.1,0-0.1,0h-0.1v0.1
	h0.1c0,0,0.1,0,0.1,0c0,0,0,0,0,0.1v2c0,0,0,0.1,0,0.1c0,0,0,0-0.1,0h-0.1v0.1h0.6v-0.1h-0.1c0,0-0.1,0-0.1,0c0,0,0,0,0-0.1v-0.4
	l0.3-0.3l0.4,0.7c0,0,0,0.1,0,0.1s0,0-0.1,0h0v0.1h0.6v-0.1h-0.1c0,0-0.1,0-0.1,0c0,0,0,0-0.1-0.1l-0.5-0.8L153.4,230.8z"/>
<path class="st1" d="M154.6,230.1c0.1,0.3,0.2,0.5,0.2,0.8c0,0.3-0.1,0.6-0.2,0.8c-0.1,0.2-0.3,0.5-0.5,0.7l0.1,0.1
	c0.3-0.2,0.5-0.5,0.6-0.7c0.1-0.3,0.2-0.5,0.2-0.8c0-0.3-0.1-0.6-0.2-0.8c-0.1-0.3-0.3-0.5-0.6-0.8l-0.1,0.1
	C154.3,229.6,154.5,229.9,154.6,230.1L154.6,230.1z"/>
<path class="st1" d="M561.6,233.6c0.1-0.1,0.2-0.1,0.3-0.1c0.1,0,0.2,0,0.3,0.1c0.1,0.1,0.1,0.2,0.1,0.4c0,0.2,0,0.4-0.1,0.5
	c-0.1,0.1-0.2,0.1-0.3,0.1c-0.1,0-0.2-0.1-0.3-0.2c-0.1-0.1-0.1-0.3-0.1-0.6C561.4,233.8,561.5,233.7,561.6,233.6L561.6,233.6z
	 M561.6,233.5c-0.1,0.1-0.2,0.1-0.2,0.2c0-0.4,0.1-0.7,0.1-0.8c0.1-0.1,0.2-0.2,0.4-0.2c0.1,0,0.1,0,0.1,0c0,0,0,0,0,0.1
	c0,0,0,0,0,0.1c0,0,0,0,0,0.1c0,0,0,0.1,0,0.1c0,0,0.1,0,0.1,0c0.1,0,0.1,0,0.1,0c0,0,0-0.1,0-0.1s0-0.1-0.1-0.2
	c-0.1-0.1-0.2-0.1-0.3-0.1c-0.2,0-0.4,0.1-0.6,0.3c-0.1,0.2-0.2,0.5-0.2,0.9c0,0.3,0.1,0.6,0.2,0.7c0.1,0.2,0.3,0.3,0.5,0.3
	c0.2,0,0.3-0.1,0.4-0.2c0.1-0.1,0.2-0.3,0.2-0.6c0-0.2,0-0.3-0.1-0.4c-0.1-0.1-0.2-0.2-0.4-0.2C561.8,233.4,561.7,233.4,561.6,233.5
	L561.6,233.5z M563,233.9c0.1-0.1,0.1-0.2,0.2-0.2c0.2,0.1,0.3,0.2,0.4,0.3c0.1,0.1,0.1,0.2,0.1,0.3c0,0.1,0,0.2-0.1,0.3
	s-0.2,0.1-0.3,0.1c-0.1,0-0.2,0-0.3-0.1c-0.1-0.1-0.1-0.2-0.1-0.3C562.9,234.1,562.9,234,563,233.9L563,233.9z M563.9,233.9
	c-0.1-0.1-0.2-0.2-0.3-0.3c0.1-0.1,0.2-0.1,0.3-0.2c0.1-0.1,0.1-0.2,0.1-0.3c0-0.1-0.1-0.3-0.2-0.4c-0.1-0.1-0.2-0.1-0.4-0.1
	c-0.2,0-0.3,0.1-0.4,0.1c-0.1,0.1-0.2,0.2-0.2,0.4c0,0.1,0,0.2,0.1,0.3c0.1,0.1,0.1,0.2,0.3,0.2c-0.1,0.1-0.2,0.2-0.3,0.3
	c-0.1,0.1-0.1,0.2-0.1,0.4s0.1,0.3,0.2,0.4c0.1,0.1,0.3,0.2,0.4,0.2c0.2,0,0.3-0.1,0.5-0.2c0.1-0.1,0.2-0.2,0.2-0.4
	C564,234.1,563.9,234,563.9,233.9L563.9,233.9z M563.7,233.4c-0.1,0.1-0.1,0.1-0.2,0.2c-0.2-0.1-0.3-0.1-0.4-0.2
	c-0.1-0.1-0.1-0.2-0.1-0.3c0-0.1,0-0.2,0.1-0.3c0.1-0.1,0.2-0.1,0.3-0.1c0.1,0,0.2,0,0.3,0.1c0.1,0.1,0.1,0.2,0.1,0.3
	C563.8,233.2,563.8,233.3,563.7,233.4L563.7,233.4z"/>
<polyline class="st0" points="555.1,223.7 555.1,222.3 559.2,223 555.1,223.7 "/>
<polyline class="st1" points="555.1,223.7 555.1,222.3 559.2,223 555.1,223.7 "/>
<path class="st1" d="M417.3,256.7c-0.1,0-0.1,0-0.1-0.1c0,0,0-0.1,0-0.1v-0.2h-0.1v1.1h0.1v-0.1c0-0.1,0-0.1,0-0.2s0.1,0,0.1,0h3.3
	c0.1,0,0.1,0,0.1,0s0,0.1,0,0.2v0.2h0.1V255l-0.9-0.2l0,0.1c0.3,0.1,0.5,0.2,0.6,0.3s0.2,0.3,0.2,0.6v0.6c0,0.1,0,0.1,0,0.1
	c0,0-0.1,0.1-0.1,0.1H417.3z"/>
<path class="st0" d="M565.2,222v2.4 M564,223.2h2.4 M566.2,223.2c0-0.6-0.5-1.1-1.1-1.1c-0.6,0-1.1,0.5-1.1,1.1
	c0,0.6,0.5,1.1,1.1,1.1C565.8,224.2,566.2,223.8,566.2,223.2L566.2,223.2z"/>
<path class="st1" d="M578.5,223.8c0.2,0,0.3,0,0.4-0.1c0.1-0.1,0.1-0.2,0.1-0.3c0-0.1,0-0.2-0.1-0.3c-0.1-0.1-0.2-0.2-0.3-0.2
	c0.1-0.1,0.2-0.1,0.3-0.2c0-0.1,0.1-0.1,0.1-0.2c0-0.1,0-0.2-0.1-0.3c-0.1-0.1-0.2-0.1-0.4-0.1h-0.6v0.1h0.1c0,0,0.1,0,0.1,0
	c0,0,0,0,0,0.1v1.5c0,0,0,0,0,0.1c0,0,0,0-0.1,0h-0.1v0.1H578.5z M578.3,223.8C578.3,223.8,578.3,223.8,578.3,223.8
	C578.2,223.7,578.2,223.7,578.3,223.8l-0.1-0.9h0.2c0.1,0,0.2,0,0.3,0.1c0.1,0.1,0.1,0.2,0.1,0.3c0,0.1,0,0.2-0.1,0.3
	c-0.1,0.1-0.2,0.1-0.3,0.1H578.3z M578.7,222.7c-0.1,0.1-0.1,0.1-0.2,0.1h-0.3v-0.6c0,0,0,0,0-0.1c0,0,0,0,0.1,0h0.1
	c0.1,0,0.2,0,0.3,0.1c0.1,0.1,0.1,0.1,0.1,0.3C578.8,222.6,578.8,222.7,578.7,222.7L578.7,222.7z"/>
<path class="st1" d="M581.9,223.7c0.1-0.1,0.2-0.2,0.2-0.4l-0.1,0C582,223.4,581.9,223.5,581.9,223.7c-0.1,0-0.2,0-0.3,0
	c-0.2,0-0.3-0.1-0.3-0.2c-0.1-0.1-0.1-0.3-0.1-0.6c0-0.2,0-0.4,0.1-0.6s0.2-0.2,0.3-0.2c0.1,0,0.2,0,0.3,0.1
	c0.1,0.1,0.1,0.2,0.2,0.3l0.1,0L582,222c0,0,0,0,0,0c0,0,0,0-0.1,0c0,0-0.1,0-0.1,0c0,0-0.1,0-0.1,0c-0.2,0-0.4,0.1-0.5,0.3
	c-0.1,0.2-0.2,0.4-0.2,0.7c0,0.3,0.1,0.5,0.2,0.7c0.1,0.1,0.3,0.2,0.5,0.2C581.6,223.8,581.8,223.8,581.9,223.7L581.9,223.7z"/>
<path class="st0" d="M576.8,221.5h6.3 M580,221.5v3 M574,221.5v3"/>
<path class="st1" d="M568.9,223.2c0-0.1,0-0.3,0.1-0.3c0.1-0.1,0.1-0.1,0.3-0.1c0.1,0,0.2,0,0.2,0.1c0.1,0.1,0.1,0.2,0.1,0.3H568.9z
	 M569.8,223.2c0-0.2,0-0.4-0.1-0.5c-0.1-0.1-0.2-0.1-0.3-0.1c-0.1,0-0.3,0.1-0.4,0.2c-0.1,0.1-0.2,0.3-0.2,0.4
	c0,0.2,0.1,0.3,0.1,0.4c0.1,0.1,0.2,0.2,0.4,0.2c0.1,0,0.2,0,0.3-0.1c0.1-0.1,0.1-0.1,0.1-0.2l-0.1,0c0,0.1-0.1,0.1-0.1,0.2
	c-0.1,0.1-0.1,0.1-0.2,0.1c-0.1,0-0.2,0-0.3-0.1c-0.1-0.1-0.1-0.2-0.1-0.4H569.8z M570.3,223.2c0-0.1,0-0.3,0.1-0.3
	c0.1-0.1,0.1-0.1,0.3-0.1c0.1,0,0.2,0,0.2,0.1c0.1,0.1,0.1,0.2,0.1,0.3H570.3z M571.1,223.2c0-0.2,0-0.4-0.1-0.5
	c-0.1-0.1-0.2-0.1-0.3-0.1c-0.1,0-0.3,0.1-0.4,0.2c-0.1,0.1-0.2,0.3-0.2,0.4c0,0.2,0.1,0.3,0.1,0.4c0.1,0.1,0.2,0.2,0.4,0.2
	c0.1,0,0.2,0,0.3-0.1c0.1-0.1,0.1-0.1,0.1-0.2l-0.1,0c0,0.1-0.1,0.1-0.1,0.2c-0.1,0.1-0.1,0.1-0.2,0.1c-0.1,0-0.2,0-0.3-0.1
	c-0.1-0.1-0.1-0.2-0.1-0.4H571.1z M571.6,223.2c0-0.1,0-0.3,0.1-0.3c0.1-0.1,0.1-0.1,0.3-0.1c0.1,0,0.2,0,0.2,0.1
	c0.1,0.1,0.1,0.2,0.1,0.3H571.6z M572.5,223.2c0-0.2,0-0.4-0.1-0.5c-0.1-0.1-0.2-0.1-0.3-0.1c-0.1,0-0.3,0.1-0.4,0.2
	c-0.1,0.1-0.2,0.3-0.2,0.4c0,0.2,0.1,0.3,0.1,0.4c0.1,0.1,0.2,0.2,0.4,0.2c0.1,0,0.2,0,0.3-0.1c0.1-0.1,0.1-0.1,0.1-0.2l-0.1,0
	c0,0.1-0.1,0.1-0.1,0.2c-0.1,0.1-0.1,0.1-0.2,0.1c-0.1,0-0.2,0-0.3-0.1c-0.1-0.1-0.1-0.2-0.1-0.4H572.5z"/>
<path class="st1" d="M575.6,223.6C575.6,223.7,575.6,223.7,575.6,223.6c0,0.1,0,0.1,0,0.1c0,0,0,0-0.1,0h0v0.1h0.4v-0.1h0
	c0,0-0.1,0-0.1,0c0,0,0,0-0.1-0.1l-0.4-1.6l-0.2,0.1l-0.4,1.6c0,0,0,0.1,0,0.1c0,0,0,0-0.1,0h0v0.1h0.4v-0.1h0c0,0-0.1,0-0.1,0
	c0,0,0-0.1,0-0.1c0,0,0,0,0-0.1l0.1-0.4h0.5L575.6,223.6z M575.5,223.1H575l0.2-0.9h0L575.5,223.1z"/>
<path class="st0" d="M563.2,221.5h13.6 M567.2,221.5v3 M576.8,221.5v3 M583.1,224.5l-19.9,0.1 M563.2,221.5v3 M583.1,221.5v3
	 M559.2,223h4 M533.7,248.3h1.4l-0.7,4.1L533.7,248.3"/>
<polyline class="st1" points="533.7,248.3 535.1,248.3 534.4,252.4 533.7,248.3 "/>
<polyline class="st0" points="535.1,263.8 533.7,263.8 534.4,259.7 535.1,263.8 "/>
<polyline class="st1" points="535.1,263.8 533.7,263.8 534.4,259.7 535.1,263.8 "/>
<path class="st0" d="M575.9,251.3h42.6 M617.1,255.4h-1.4l0.7-4.1L617.1,255.4"/>
<path class="st1" d="M579,248.5c0,0.1-0.1,0.1-0.1,0.1c-0.1,0-0.1,0.1-0.2,0.1h-0.1v0.1h0.2c0,0,0.1,0,0.1,0c0,0,0,0,0,0.1v1.5
	c0,0.1,0,0.1-0.1,0.1c0,0-0.1,0.1-0.2,0.1h-0.1v0.1h0.9v-0.1h-0.1c-0.1,0-0.1,0-0.2-0.1c0,0-0.1-0.1-0.1-0.1L579,248.5L579,248.5z"
	/>
<path class="st1" d="M579.1,258.1c-0.1,0.1-0.2,0.3-0.3,0.4c-0.2,0.2-0.3,0.3-0.4,0.4c-0.1,0.1-0.2,0.2-0.2,0.3v0.2h1.2l0.1-0.5
	h-0.1c0,0.1-0.1,0.2-0.1,0.3c0,0.1-0.1,0.1-0.2,0.1h-0.7c0-0.1,0.1-0.1,0.2-0.3c0.1-0.1,0.3-0.3,0.6-0.6c0.1-0.1,0.2-0.2,0.2-0.3
	c0-0.1,0.1-0.2,0.1-0.3c0-0.1,0-0.3-0.1-0.4s-0.2-0.1-0.4-0.1c-0.1,0-0.3,0-0.4,0.1c-0.1,0.1-0.2,0.2-0.2,0.4c0,0.1,0,0.1,0,0.1
	c0,0,0.1,0,0.1,0c0,0,0.1,0,0.1,0c0,0,0-0.1,0-0.1c0,0,0-0.1,0-0.1c0,0,0-0.1,0-0.1c0-0.1,0-0.2,0.1-0.2c0.1-0.1,0.2-0.1,0.3-0.1
	c0.1,0,0.2,0,0.3,0.1c0.1,0.1,0.1,0.2,0.1,0.3C579.2,257.9,579.1,258,579.1,258.1L579.1,258.1z"/>
<path class="st1" d="M533.2,270.8h-0.1v0.1c0,0.1,0,0.1,0,0.1c0,0-0.1,0.1-0.1,0.1h-1.6c-0.2-0.1-0.3-0.3-0.4-0.4
	c-0.1-0.1-0.1-0.3-0.1-0.4c0-0.1,0-0.2,0.1-0.3c0.1-0.1,0.3-0.1,0.5-0.1h1.5c0.1,0,0.1,0,0.1,0c0,0,0,0.1,0,0.2v0.1h0.1v-1h-0.1v0.1
	c0,0.1,0,0.1,0,0.1c0,0-0.1,0.1-0.1,0.1h-1.5c-0.3,0-0.5,0.1-0.6,0.2s-0.2,0.3-0.2,0.5c0,0.2,0,0.3,0.1,0.5c0.1,0.1,0.2,0.3,0.4,0.4
	h-2v0c0.1,0.1,0.1,0.1,0.1,0.2c0,0.1,0,0.1,0,0.2v0.3h0.1v-0.1c0-0.1,0-0.1,0-0.2c0,0,0.1,0,0.1,0h3.3c0.1,0,0.1,0,0.1,0
	c0,0,0,0.1,0,0.2v0.1h0.1V270.8z"/>
<path class="st0" d="M559.2,260.7v16.1 M563.4,274v1.4l-4.1-0.7L563.4,274"/>
<polyline class="st1" points="563.4,274 563.4,275.4 559.2,274.7 563.4,274 "/>
<path class="st1" d="M540.9,273.6v-0.1h-0.1c-0.1,0-0.1,0-0.1,0c0,0-0.1-0.1-0.1-0.1v-1.6c0.1-0.2,0.3-0.3,0.4-0.4
	c0.1-0.1,0.3-0.1,0.4-0.1c0.1,0,0.2,0,0.3,0.1c0.1,0.1,0.1,0.3,0.1,0.5v1.5c0,0.1,0,0.1,0,0.1c0,0-0.1,0-0.2,0h-0.1v0.1h1v-0.1h-0.1
	c-0.1,0-0.1,0-0.1,0c0,0-0.1-0.1-0.1-0.1v-1.5c0-0.3-0.1-0.5-0.2-0.6c-0.1-0.1-0.3-0.2-0.5-0.2c-0.2,0-0.3,0-0.5,0.1
	c-0.1,0.1-0.3,0.2-0.4,0.4v-2h0c-0.1,0.1-0.1,0.1-0.2,0.1c-0.1,0-0.1,0-0.2,0h-0.3v0.1h0.1c0.1,0,0.1,0,0.2,0c0,0,0,0.1,0,0.1v3.3
	c0,0.1,0,0.1,0,0.1c0,0-0.1,0-0.2,0h-0.1v0.1H540.9z"/>
<path class="st0" d="M547.9,274.7h-9 M547.9,275.4V274l4.1,0.7L547.9,275.4"/>
<polyline class="st1" points="547.9,275.4 547.9,274 552,274.7 547.9,275.4 "/>
<path class="st1" d="M259.4,310.4c0-0.2,0-0.3,0.1-0.3s0.2-0.1,0.3-0.1h6.6c0.1,0,0.2,0,0.3,0.1s0.1,0.2,0.1,0.3v0.3h0.3V306
	l-1.8-0.5l-0.1,0.2c0.6,0.2,1,0.4,1.2,0.8c0.3,0.3,0.4,0.7,0.4,1.2v1.2c0,0.1,0,0.2-0.1,0.3c-0.1,0.1-0.2,0.1-0.3,0.1h-3.5v-1.3
	c0-0.3,0.1-0.5,0.3-0.7c0.2-0.1,0.4-0.2,0.8-0.2h0.2v-0.3h-2.7v0.3h0.3c0.3,0,0.5,0.1,0.7,0.2c0.2,0.1,0.2,0.4,0.2,0.7v1.3h-2.9
	c-0.1,0-0.2,0-0.3-0.1c-0.1-0.1-0.1-0.2-0.1-0.3v-1.3c0-0.3,0.1-0.7,0.3-0.9c0.2-0.3,0.6-0.5,1-0.8l-0.1-0.2l-1.6,0.5v4.5h0.3V310.4
	z"/>
<path class="st1" d="M348.7,405.9c0.1,0,0.2,0,0.2,0.1s0.1,0.1,0.1,0.2v4.6c0,0.1,0,0.1-0.1,0.2s-0.1,0.1-0.2,0.1h-0.2v0.2h3.3
	l0.4-1.3l-0.2-0.1c-0.1,0.4-0.3,0.7-0.5,0.9s-0.5,0.3-0.8,0.3h-0.8c-0.1,0-0.2,0-0.2-0.1c-0.1,0-0.1-0.1-0.1-0.2v-2.4h0.9
	c0.2,0,0.4,0.1,0.5,0.2c0.1,0.1,0.1,0.3,0.1,0.5v0.1h0.2v-1.9h-0.2v0.2c0,0.2,0,0.4-0.1,0.5c-0.1,0.1-0.2,0.2-0.5,0.2h-0.9v-2
	c0-0.1,0-0.1,0.1-0.2c0,0,0.1-0.1,0.2-0.1h0.9c0.2,0,0.5,0.1,0.6,0.2c0.2,0.2,0.4,0.4,0.5,0.7l0.2-0.1l-0.4-1.1h-3.2v0.2H348.7z
	 M355.7,406.1c0.1-0.1,0.1-0.1,0.2-0.2s0.1-0.1,0.2-0.1h0.2v-0.2H355v0.2h0.2c0.1,0,0.2,0,0.2,0.1c0,0.1,0,0.2-0.1,0.3l-0.8,1.6
	l-0.8-1.7c0-0.1-0.1-0.2,0-0.3s0.1-0.1,0.2-0.1h0.1v-0.2h-1.3v0.2h0.1c0.1,0,0.1,0,0.2,0.1c0,0,0.1,0.1,0.1,0.2l1.1,2.4l-1,2.2
	c0,0.1-0.1,0.2-0.2,0.2c-0.1,0.1-0.2,0.1-0.3,0.1h-0.1v0.2h1.2V411h-0.1c-0.1,0-0.2,0-0.2,0c0,0-0.1-0.1-0.1-0.2c0,0,0-0.1,0.1-0.2
	c0-0.1,0.1-0.1,0.1-0.3l0.7-1.6l0.9,1.9c0,0,0,0.1,0,0.1c0,0,0,0.1,0,0.1s-0.1,0-0.2,0H355v0.2h1.4V411h-0.1c-0.1,0-0.2,0-0.2-0.1
	c-0.1,0-0.1-0.1-0.2-0.3l-1.1-2.4L355.7,406.1z M358.8,408.6c0.4,0,0.8-0.1,1.1-0.4c0.3-0.3,0.5-0.6,0.5-1.1c0-0.4-0.1-0.8-0.4-1
	c-0.3-0.3-0.7-0.4-1.2-0.4h-1.9v0.2h0.2c0.1,0,0.2,0,0.2,0.1s0.1,0.1,0.1,0.2v4.6c0,0.1,0,0.1-0.1,0.2s-0.1,0.1-0.2,0.1h-0.2v0.2
	h1.6V411h-0.2c-0.1,0-0.2,0-0.2-0.1c-0.1,0-0.1-0.1-0.1-0.2v-2.1H358.8z M357.8,408.4v-2.3c0-0.1,0-0.1,0.1-0.2c0,0,0.1-0.1,0.2-0.1
	h0.5c0.4,0,0.8,0.1,1,0.3s0.3,0.5,0.3,1c0,0.5-0.1,0.8-0.4,1c-0.2,0.2-0.5,0.3-0.9,0.3H357.8z M361.9,406.5c0.2-0.4,0.5-0.6,0.9-0.6
	c0.4,0,0.7,0.2,0.9,0.7c0.2,0.5,0.3,1.1,0.3,1.9c0,1-0.1,1.7-0.3,2.1s-0.5,0.6-0.9,0.6c-0.3,0-0.6-0.2-0.9-0.6
	c-0.2-0.4-0.3-1.1-0.3-2C361.6,407.6,361.7,406.9,361.9,406.5L361.9,406.5z M364.1,406.5c-0.3-0.6-0.8-0.8-1.3-0.8
	c-0.5,0-1,0.3-1.3,0.8c-0.3,0.5-0.5,1.2-0.5,2c0,0.9,0.2,1.5,0.5,2.1c0.4,0.5,0.8,0.8,1.3,0.8c0.5,0,1-0.3,1.3-0.8
	c0.3-0.5,0.5-1.2,0.5-2.1C364.6,407.7,364.5,407,364.1,406.5L364.1,406.5z M367.7,409.2c0.2,0.2,0.3,0.4,0.3,0.6
	c0,0.4-0.1,0.7-0.3,0.9s-0.5,0.3-0.8,0.3c-0.3,0-0.7-0.1-0.9-0.3c-0.3-0.2-0.5-0.6-0.6-1.1l-0.2,0.1l0.3,1.6
	c0.1-0.1,0.2-0.1,0.2-0.2c0.1,0,0.1-0.1,0.2-0.1c0.1,0,0.3,0,0.5,0.1c0.2,0.1,0.4,0.1,0.6,0.1c0.5,0,0.9-0.1,1.2-0.5
	c0.3-0.3,0.4-0.6,0.4-1c0-0.4-0.1-0.7-0.3-1c-0.2-0.3-0.6-0.5-1.1-0.7c-0.6-0.3-1-0.5-1.1-0.6s-0.2-0.3-0.2-0.6
	c0-0.3,0.1-0.5,0.2-0.7c0.2-0.2,0.4-0.3,0.8-0.3c0.3,0,0.6,0.1,0.8,0.2c0.2,0.2,0.4,0.5,0.6,0.9l0.2-0.1l-0.1-1.3
	c0,0.1-0.1,0.1-0.1,0.2c-0.1,0-0.1,0-0.2,0c-0.1,0-0.2,0-0.4-0.1c-0.2-0.1-0.4-0.1-0.6-0.1c-0.5,0-0.9,0.1-1.1,0.4
	c-0.3,0.3-0.4,0.6-0.4,0.9c0,0.4,0.1,0.7,0.3,0.9c0.2,0.2,0.6,0.4,1.2,0.7C367.2,408.8,367.5,409,367.7,409.2L367.7,409.2z
	 M369.4,405.9c0.1,0,0.2,0,0.2,0.1s0.1,0.1,0.1,0.2v4.6c0,0.1,0,0.1-0.1,0.2s-0.1,0.1-0.2,0.1h-0.2v0.2h3.3l0.4-1.3l-0.2-0.1
	c-0.1,0.4-0.3,0.7-0.5,0.9s-0.5,0.3-0.8,0.3h-0.8c-0.1,0-0.2,0-0.2-0.1c-0.1,0-0.1-0.1-0.1-0.2v-2.4h0.9c0.2,0,0.4,0.1,0.5,0.2
	c0.1,0.1,0.1,0.3,0.1,0.5v0.1h0.2v-1.9h-0.2v0.2c0,0.2,0,0.4-0.1,0.5c-0.1,0.1-0.2,0.2-0.5,0.2h-0.9v-2c0-0.1,0-0.1,0.1-0.2
	c0,0,0.1-0.1,0.2-0.1h0.9c0.2,0,0.5,0.1,0.6,0.2c0.2,0.2,0.4,0.4,0.5,0.7l0.2-0.1l-0.4-1.1h-3.2v0.2H369.4z M375.9,410.5
	c-0.3,0.4-0.7,0.5-1.2,0.5c-0.1,0-0.2,0-0.3-0.1s-0.1-0.1-0.1-0.2v-4.6c0-0.1,0-0.1,0.1-0.2s0.2-0.1,0.3-0.1c0.5,0,0.9,0.2,1.2,0.6
	c0.3,0.4,0.4,1,0.4,2C376.4,409.4,376.2,410.1,375.9,410.5L375.9,410.5z M373.8,410.8c0,0.1,0,0.1-0.1,0.2s-0.1,0.1-0.2,0.1h-0.2
	v0.2h1.4c0.8,0,1.3-0.2,1.7-0.7s0.6-1.2,0.6-2.2c0-0.9-0.2-1.6-0.6-2c-0.4-0.4-0.9-0.6-1.6-0.6h-1.5v0.2h0.2c0.1,0,0.2,0,0.2,0.1
	s0.1,0.1,0.1,0.2V410.8z M384.3,411H384c-0.1,0-0.2,0-0.2-0.1c-0.1,0-0.1-0.1-0.1-0.2v-4.5c0-0.2,0-0.3,0-0.3s0.1,0,0.4,0
	c0.3,0,0.5,0.1,0.6,0.2c0.1,0.1,0.2,0.4,0.4,0.9l0.2,0l-0.3-1.2h-3.1l-0.3,1.2l0.2,0c0.2-0.5,0.3-0.8,0.4-0.9
	c0.1-0.1,0.3-0.2,0.6-0.2c0.1,0,0.2,0,0.3,0s0,0.1,0,0.3v4.5c0,0.1,0,0.1-0.1,0.2s-0.1,0.1-0.2,0.1h-0.3v0.2h1.7V411z M389.1,406.1
	c0-0.1,0-0.1,0.1-0.2c0,0,0.1-0.1,0.2-0.1h0.1v-0.2h-1.4v0.2h0.1c0.1,0,0.2,0,0.2,0.1s0.1,0.1,0.1,0.2v2.1h-1.9v-2.1
	c0-0.1,0-0.1,0.1-0.2c0,0,0.1-0.1,0.2-0.1h0.1v-0.2h-1.4v0.2h0.1c0.1,0,0.2,0,0.2,0.1s0.1,0.1,0.1,0.2v4.6c0,0.1,0,0.1-0.1,0.2
	s-0.1,0.1-0.2,0.1h-0.2v0.2h1.4V411h-0.2c-0.1,0-0.2,0-0.2-0.1c-0.1,0-0.1-0.1-0.1-0.2v-2.4h1.9v2.4c0,0.1,0,0.1-0.1,0.2
	s-0.1,0.1-0.2,0.1h-0.2v0.2h1.4V411h-0.2c-0.1,0-0.2,0-0.2-0.1c-0.1,0-0.1-0.1-0.1-0.2V406.1z M390.1,405.9c0.1,0,0.2,0,0.2,0.1
	s0.1,0.1,0.1,0.2v4.6c0,0.1,0,0.1-0.1,0.2s-0.1,0.1-0.2,0.1h-0.2v0.2h3.3l0.4-1.3l-0.2-0.1c-0.1,0.4-0.3,0.7-0.5,0.9
	s-0.5,0.3-0.8,0.3h-0.8c-0.1,0-0.2,0-0.2-0.1c-0.1,0-0.1-0.1-0.1-0.2v-2.4h0.9c0.2,0,0.4,0.1,0.5,0.2c0.1,0.1,0.1,0.3,0.1,0.5v0.1
	h0.2v-1.9h-0.2v0.2c0,0.2,0,0.4-0.1,0.5c-0.1,0.1-0.2,0.2-0.5,0.2h-0.9v-2c0-0.1,0-0.1,0.1-0.2c0,0,0.1-0.1,0.2-0.1h0.9
	c0.2,0,0.5,0.1,0.6,0.2c0.2,0.2,0.4,0.4,0.5,0.7l0.2-0.1l-0.4-1.1h-3.2v0.2H390.1z M397.1,406c-0.3-0.2-0.6-0.3-1.1-0.3h-1.8v0.2
	h0.2c0.1,0,0.2,0,0.2,0.1s0.1,0.1,0.1,0.2v4.6c0,0.1,0,0.1-0.1,0.2s-0.1,0.1-0.2,0.1h-0.2v0.2h1.5V411h-0.2c-0.1,0-0.2,0-0.2-0.1
	c-0.1,0-0.1-0.1-0.1-0.2v-2.3h0.7l1.1,2.8h0.9V411h-0.2c-0.1,0-0.1,0-0.2,0c0,0-0.1-0.1-0.1-0.2l-1-2.4c0.3,0,0.6-0.2,0.8-0.4
	c0.2-0.2,0.4-0.6,0.4-1S397.3,406.2,397.1,406L397.1,406z M395.1,406.1c0-0.1,0-0.1,0.1-0.2c0,0,0.1-0.1,0.2-0.1h0.4
	c0.4,0,0.7,0.1,0.9,0.3s0.3,0.5,0.3,0.9c0,0.4-0.1,0.7-0.3,0.9c-0.2,0.2-0.5,0.3-0.8,0.3h-0.7V406.1z M401.6,406.1
	c0-0.1,0-0.1,0.1-0.2c0,0,0.1-0.1,0.2-0.1h0.1v-0.2h-1l-1,4.3h-0.1l-0.9-4.3H398v0.2h0.1c0.1,0,0.2,0,0.2,0.1s0.1,0.1,0.1,0.2v4.6
	c0,0.1,0,0.1-0.1,0.2s-0.1,0.1-0.2,0.1h-0.1v0.2h1V411h-0.1c-0.1,0-0.2,0-0.2-0.1c-0.1,0-0.1-0.1-0.1-0.2v-4.1h0.1l1,4.6h0.2
	l1.1-4.7h0.1v4.2c0,0.1,0,0.1-0.1,0.2s-0.1,0.1-0.2,0.1h-0.2v0.2h1.4V411h-0.1c-0.1,0-0.2,0-0.2-0.1c-0.1,0-0.1-0.1-0.1-0.2V406.1z
	 M405,410.6c0,0.1,0,0.1,0,0.2c0,0,0,0.1,0,0.1c0,0.1-0.1,0.1-0.2,0.1h-0.1v0.2h1.4V411H406c-0.1,0-0.2,0-0.2-0.1
	c-0.1,0-0.1-0.1-0.2-0.3l-1.2-5.1l-0.5,0.2l-1.3,4.9c0,0.1-0.1,0.2-0.1,0.3c-0.1,0.1-0.1,0.1-0.2,0.1h-0.1v0.2h1.2V411h-0.1
	c-0.1,0-0.2,0-0.3-0.1c0-0.1,0-0.2,0-0.3c0-0.1,0-0.1,0-0.3l0.3-1.2h1.4L405,410.6z M404.7,409h-1.4l0.7-2.7h0L404.7,409z
	 M407.5,406.1c0-0.1,0-0.1,0.1-0.2c0,0,0.1-0.1,0.2-0.1h0.2v-0.2h-1.5v0.2h0.2c0.1,0,0.2,0,0.2,0.1s0.1,0.1,0.1,0.2v4.6
	c0,0.1,0,0.1-0.1,0.2s-0.1,0.1-0.2,0.1h-0.2v0.2h3.3l0.3-1.3l-0.2-0.1c-0.1,0.4-0.3,0.7-0.5,0.9s-0.5,0.3-0.8,0.3h-0.9
	c-0.1,0-0.2,0-0.2-0.1c-0.1,0-0.1-0.1-0.1-0.2V406.1z"/>
<path class="st1" d="M359.3,418.5c0.4,0,0.8-0.1,1.1-0.4c0.3-0.3,0.5-0.6,0.5-1.1c0-0.4-0.1-0.8-0.4-1c-0.3-0.3-0.7-0.4-1.2-0.4
	h-1.9v0.2h0.2c0.1,0,0.2,0,0.2,0.1s0.1,0.1,0.1,0.2v4.6c0,0.1,0,0.1-0.1,0.2s-0.1,0.1-0.2,0.1h-0.2v0.2h1.6v-0.2h-0.2
	c-0.1,0-0.2,0-0.2-0.1c-0.1,0-0.1-0.1-0.1-0.2v-2.1H359.3z M358.3,418.3V416c0-0.1,0-0.1,0.1-0.2c0,0,0.1-0.1,0.2-0.1h0.5
	c0.4,0,0.8,0.1,1,0.3s0.3,0.5,0.3,1c0,0.5-0.1,0.8-0.4,1c-0.2,0.2-0.5,0.3-0.9,0.3H358.3z M364.1,420.4c0,0.1,0,0.1,0,0.2
	c0,0,0,0.1,0,0.1c0,0.1-0.1,0.1-0.2,0.1h-0.1v0.2h1.4v-0.2h-0.1c-0.1,0-0.2,0-0.2-0.1c-0.1,0-0.1-0.1-0.2-0.3l-1.2-5.1l-0.5,0.2
	l-1.3,4.9c0,0.1-0.1,0.2-0.1,0.3c-0.1,0.1-0.1,0.1-0.2,0.1h-0.1v0.2h1.2v-0.2h-0.1c-0.1,0-0.2,0-0.3-0.1c0-0.1,0-0.2,0-0.3
	c0-0.1,0-0.1,0-0.3l0.3-1.2h1.4L364.1,420.4z M363.8,418.8h-1.4l0.7-2.7h0L363.8,418.8z M368.1,420.3c-0.3,0.4-0.7,0.5-1.2,0.5
	c-0.1,0-0.2,0-0.3-0.1s-0.1-0.1-0.1-0.2V416c0-0.1,0-0.1,0.1-0.2s0.2-0.1,0.3-0.1c0.5,0,0.9,0.2,1.2,0.6c0.3,0.4,0.4,1,0.4,2
	C368.6,419.3,368.4,420,368.1,420.3L368.1,420.3z M366,420.6c0,0.1,0,0.1-0.1,0.2s-0.1,0.1-0.2,0.1h-0.2v0.2h1.4
	c0.8,0,1.3-0.2,1.7-0.7s0.6-1.2,0.6-2.2c0-0.9-0.2-1.6-0.6-2c-0.4-0.4-0.9-0.6-1.6-0.6h-1.5v0.2h0.2c0.1,0,0.2,0,0.2,0.1
	s0.1,0.1,0.1,0.2V420.6z M374.5,420.9l2.8-5.3h-2.9l-0.4,1.1l0.2,0.1c0.2-0.3,0.4-0.6,0.6-0.7c0.2-0.2,0.5-0.2,0.8-0.2h1.1l-2.8,5.3
	h3.1l0.4-1.3l-0.2,0c-0.1,0.4-0.3,0.6-0.5,0.8s-0.4,0.3-0.7,0.3H374.5z M379,416.3c0.2-0.4,0.5-0.6,0.9-0.6c0.4,0,0.7,0.2,0.9,0.7
	c0.2,0.5,0.3,1.1,0.3,1.9c0,1-0.1,1.7-0.3,2.1s-0.5,0.6-0.9,0.6c-0.3,0-0.6-0.2-0.9-0.6c-0.2-0.4-0.3-1.1-0.3-2
	C378.7,417.4,378.8,416.8,379,416.3L379,416.3z M381.2,416.3c-0.3-0.6-0.8-0.8-1.3-0.8c-0.5,0-1,0.3-1.3,0.8c-0.3,0.5-0.5,1.2-0.5,2
	c0,0.9,0.2,1.5,0.5,2.1c0.4,0.5,0.8,0.8,1.3,0.8c0.5,0,1-0.3,1.3-0.8c0.3-0.5,0.5-1.2,0.5-2.1C381.7,417.5,381.5,416.9,381.2,416.3
	L381.2,416.3z M383,415.5H382v0.2h0.2c0.1,0,0.2,0,0.2,0.1s0.1,0.1,0.1,0.2v4.6c0,0.1,0,0.1-0.1,0.2s-0.1,0.1-0.2,0.1H382v0.2h1.3
	v-0.2H383c-0.1,0-0.2,0-0.2-0.1c-0.1,0-0.1-0.1-0.1-0.2v-4.4h0.1l2.5,4.8h0.2V416c0-0.1,0-0.1,0.1-0.2c0,0,0.1-0.1,0.2-0.1h0.3v-0.2
	h-1.3v0.2h0.3c0.1,0,0.2,0,0.2,0.1s0.1,0.1,0.1,0.2v3.8h-0.1L383,415.5z"/>
<path class="st1" d="M386.5,415.7c0.1,0,0.2,0,0.2,0.1s0.1,0.1,0.1,0.2v4.6c0,0.1,0,0.1-0.1,0.2s-0.1,0.1-0.2,0.1h-0.2v0.2h3.3
	l0.4-1.3l-0.2-0.1c-0.1,0.4-0.3,0.7-0.5,0.9s-0.5,0.3-0.8,0.3h-0.8c-0.1,0-0.2,0-0.2-0.1c-0.1,0-0.1-0.1-0.1-0.2v-2.4h0.9
	c0.2,0,0.4,0.1,0.5,0.2c0.1,0.1,0.1,0.3,0.1,0.5v0.1h0.2v-1.9h-0.2v0.2c0,0.2,0,0.4-0.1,0.5c-0.1,0.1-0.2,0.2-0.5,0.2h-0.9v-2
	c0-0.1,0-0.1,0.1-0.2c0,0,0.1-0.1,0.2-0.1h0.9c0.2,0,0.5,0.1,0.6,0.2c0.2,0.2,0.4,0.4,0.5,0.7l0.2-0.1l-0.4-1.1h-3.2v0.2H386.5z"/>
<polyline class="st0" points="441.8,356.9 445.7,352.1 443.6,358 441.8,356.9 "/>
<polyline class="st1" points="441.8,356.9 445.7,352.1 443.6,358 441.8,356.9 "/>
<path class="st0" d="M442.7,357.5L411,413.3 M615.8,362.9h1.4l-0.7,4.1L615.8,362.9"/>
<path class="st1" d="M64.7,379c-0.1,0.1-0.2,0.3-0.4,0.5c-0.2,0.2-0.3,0.4-0.5,0.5c-0.1,0.1-0.2,0.3-0.2,0.3v0.2H65l0.1-0.6H65
	c0,0.1-0.1,0.2-0.1,0.3c-0.1,0.1-0.1,0.1-0.2,0.1h-0.9c0-0.1,0.1-0.2,0.3-0.4c0.2-0.2,0.4-0.4,0.7-0.7c0.1-0.1,0.2-0.2,0.3-0.3
	c0.1-0.1,0.1-0.2,0.1-0.4c0-0.2-0.1-0.3-0.2-0.4s-0.3-0.2-0.5-0.2c-0.2,0-0.3,0.1-0.5,0.2c-0.1,0.1-0.2,0.3-0.2,0.5
	c0,0.1,0,0.1,0.1,0.2c0,0,0.1,0.1,0.1,0.1c0,0,0.1,0,0.1,0c0,0,0-0.1,0-0.1c0,0,0-0.1,0-0.1c0,0-0.1-0.1-0.1-0.1
	c0-0.1,0-0.2,0.1-0.2c0.1-0.1,0.2-0.1,0.3-0.1c0.2,0,0.3,0,0.4,0.1c0.1,0.1,0.1,0.2,0.1,0.4C64.8,378.8,64.8,378.9,64.7,379
	L64.7,379z M66.8,378.2C66.9,378.2,66.9,378.1,66.8,378.2c0.1-0.1,0.1-0.1,0.2-0.1h0.1V378h-0.6v0.1h0.1c0.1,0,0.1,0,0.1,0.1
	c0,0,0,0.1,0,0.2l-0.4,0.8l-0.4-0.8c0-0.1,0-0.1,0-0.1s0,0,0.1,0h0V378h-0.6v0.1h0.1c0,0,0.1,0,0.1,0c0,0,0,0,0.1,0.1l0.5,1.1
	l-0.5,1c0,0,0,0.1-0.1,0.1c0,0-0.1,0-0.1,0h-0.1v0.1H66v-0.1h0c0,0-0.1,0-0.1,0c0,0,0,0,0-0.1c0,0,0,0,0-0.1c0,0,0-0.1,0-0.1
	l0.3-0.7l0.4,0.9c0,0,0,0,0,0.1c0,0,0,0,0,0.1s0,0-0.1,0h-0.1v0.1h0.6v-0.1h0c0,0-0.1,0-0.1,0c0,0-0.1-0.1-0.1-0.1l-0.5-1.1
	L66.8,378.2z"/>
<path class="st0" d="M241.5,381.5h29.9 M267.9,373.2h2.8l-1.4,8.3L267.9,373.2"/>
<polyline class="st1" points="267.9,373.2 270.7,373.2 269.3,381.5 267.9,373.2 "/>
<path class="st0" d="M450.8,373.2h-34.5 M444.7,365.9h-28.4 M418.4,361.8V352 M418.4,377.4v4.1 M419.1,377.4h-1.4l0.7-4.1
	L419.1,377.4"/>
<polyline class="st1" points="419.1,377.4 417.7,377.4 418.4,373.2 419.1,377.4 "/>
<polyline class="st0" points="417.7,361.8 419.1,361.8 418.4,365.9 417.7,361.8 "/>
<polyline class="st1" points="417.7,361.8 419.1,361.8 418.4,365.9 417.7,361.8 "/>
<path class="st1" d="M417.1,353.1v0.1c0,0,0,0.1-0.1,0.1c0,0.1-0.1,0.1-0.2,0.1l-2.1,1l-1-0.7c-0.1-0.1-0.2-0.2-0.2-0.2
	s-0.1-0.2-0.1-0.2v0h-0.1v1h0.1v-0.1c0-0.1,0-0.2,0.1-0.2s0.1,0,0.2,0.1l1.5,1.1h-1.7c-0.1,0-0.1,0-0.1-0.1c0,0,0-0.1,0-0.1v-0.1
	h-0.1v1.1h0.1v-0.1c0-0.1,0-0.1,0-0.2s0.1,0,0.1,0h3.3c0.1,0,0.1,0,0.1,0s0,0.1,0,0.2v0.1h0.1v-1.1h-0.1v0.1c0,0.1,0,0.1,0,0.1
	c0,0-0.1,0.1-0.1,0.1h-1.3l-0.5-0.4l1.7-0.8c0.1-0.1,0.2-0.1,0.2-0.1c0.1,0,0.1,0.1,0.1,0.2v0.1h0.1v-1H417.1z"/>
<polyline class="st0" points="454.9,393.2 454.9,391.8 459.1,392.5 454.9,393.2 "/>
<polyline class="st1" points="454.9,393.2 454.9,391.8 459.1,392.5 454.9,393.2 "/>
<polyline class="st0" points="470.5,391.8 470.5,393.2 466.3,392.5 470.5,391.8 "/>
<polyline class="st1" points="470.5,391.8 470.5,393.2 466.3,392.5 470.5,391.8 "/>
<path class="st1" d="M69.6,389.2c-0.1,0.1-0.2,0.3-0.4,0.5c-0.2,0.2-0.3,0.4-0.5,0.5c-0.1,0.1-0.2,0.3-0.2,0.3v0.2h1.4L70,390h-0.1
	c0,0.1-0.1,0.2-0.1,0.3c-0.1,0.1-0.1,0.1-0.2,0.1h-0.9c0-0.1,0.1-0.2,0.3-0.4c0.2-0.2,0.4-0.4,0.7-0.7c0.1-0.1,0.2-0.2,0.3-0.3
	c0.1-0.1,0.1-0.2,0.1-0.4c0-0.2-0.1-0.3-0.2-0.4s-0.3-0.2-0.5-0.2c-0.2,0-0.3,0.1-0.5,0.2c-0.1,0.1-0.2,0.3-0.2,0.5
	c0,0.1,0,0.1,0.1,0.2c0,0,0.1,0.1,0.1,0.1c0,0,0.1,0,0.1,0c0,0,0-0.1,0-0.1c0,0,0-0.1,0-0.1c0,0-0.1-0.1-0.1-0.1
	c0-0.1,0-0.2,0.1-0.2c0.1-0.1,0.2-0.1,0.3-0.1c0.2,0,0.3,0,0.4,0.1c0.1,0.1,0.1,0.2,0.1,0.4C69.7,388.9,69.6,389,69.6,389.2
	L69.6,389.2z M71.7,388.3C71.8,388.3,71.8,388.2,71.7,388.3c0.1-0.1,0.1-0.1,0.2-0.1H72v-0.1h-0.6v0.1h0.1c0.1,0,0.1,0,0.1,0.1
	c0,0,0,0.1,0,0.2l-0.4,0.8l-0.4-0.8c0-0.1,0-0.1,0-0.1s0,0,0.1,0h0v-0.1h-0.6v0.1h0.1c0,0,0.1,0,0.1,0c0,0,0,0,0.1,0.1l0.5,1.1
	l-0.5,1c0,0,0,0.1-0.1,0.1c0,0-0.1,0-0.1,0h-0.1v0.1h0.6v-0.1h0c0,0-0.1,0-0.1,0c0,0,0,0,0-0.1c0,0,0,0,0-0.1c0,0,0-0.1,0-0.1
	l0.3-0.7l0.4,0.9c0,0,0,0,0,0.1c0,0,0,0,0,0.1s0,0-0.1,0h-0.1v0.1H72v-0.1h0c0,0-0.1,0-0.1,0c0,0-0.1-0.1-0.1-0.1l-0.5-1.1
	L71.7,388.3z"/>
<path class="st0" d="M74,390.7h4.3 M78.3,390.7c0-1.2-1-2.1-2.1-2.1c-1.2,0-2.1,1-2.1,2.1"/>
<path class="st1" d="M93.4,390.5c0.1-0.1,0.2-0.3,0.3-0.5l-0.1,0c0,0.2-0.1,0.3-0.2,0.5s-0.3,0.2-0.4,0.2c-0.2,0-0.4-0.1-0.5-0.3
	c-0.1-0.2-0.1-0.5-0.1-0.9c0-0.3,0.1-0.6,0.2-0.9s0.3-0.3,0.5-0.3c0.2,0,0.3,0,0.4,0.1c0.1,0.1,0.2,0.2,0.2,0.4l0.1,0l-0.1-0.7
	c0,0,0,0-0.1,0.1c0,0-0.1,0-0.1,0c0,0-0.1,0-0.2,0c-0.1,0-0.1,0-0.2,0c-0.3,0-0.5,0.1-0.7,0.4c-0.2,0.2-0.3,0.6-0.3,0.9
	c0,0.5,0.1,0.8,0.2,1s0.4,0.3,0.7,0.3C93.1,390.7,93.3,390.6,93.4,390.5L93.4,390.5z"/>
<path class="st0" d="M73.4,387.3h22.3 M79.1,387.3v4.3 M73.4,387.3v4.3 M90.2,387.3v4.3 M95.7,385.7v5.9 M95.7,391.6H73.4
	 M95.7,381.5v6.2 M69,380.6h4.3 M73.3,380.6c0-1.2-1-2.1-2.1-2.1c-1.2,0-2.1,1-2.1,2.1"/>
<path class="st1" d="M78.2,379.4C78.2,379.4,78.2,379.4,78.2,379.4c0.1,0,0.2,0,0.2,0c0,0,0-0.1,0-0.1c0-0.1,0-0.2-0.1-0.3
	s-0.2-0.1-0.4-0.1c-0.2,0-0.4,0.1-0.6,0.2c-0.1,0.2-0.2,0.4-0.2,0.6c0,0.3,0.1,0.5,0.2,0.6c0.1,0.1,0.3,0.2,0.6,0.2
	c0.2,0,0.3-0.1,0.4-0.2c0.1-0.1,0.2-0.2,0.2-0.4l-0.1,0c0,0.1-0.1,0.2-0.2,0.3c-0.1,0.1-0.2,0.1-0.3,0.1c-0.2,0-0.4-0.1-0.4-0.2
	s-0.1-0.3-0.1-0.5c0-0.2,0.1-0.4,0.2-0.6c0.1-0.1,0.2-0.2,0.4-0.2c0.1,0,0.2,0,0.3,0.1c0,0.1,0.1,0.1,0.1,0.1c0,0,0,0,0,0.1
	C78.1,379.2,78.1,379.3,78.2,379.4C78.1,379.3,78.1,379.4,78.2,379.4L78.2,379.4z M80.1,379.4C80.1,379.4,80.1,379.4,80.1,379.4
	c0.1,0,0.2,0,0.2,0c0,0,0-0.1,0-0.1c0-0.1,0-0.2-0.1-0.3s-0.2-0.1-0.4-0.1c-0.2,0-0.4,0.1-0.6,0.2c-0.1,0.2-0.2,0.4-0.2,0.6
	c0,0.3,0.1,0.5,0.2,0.6c0.1,0.1,0.3,0.2,0.6,0.2c0.2,0,0.3-0.1,0.4-0.2c0.1-0.1,0.2-0.2,0.2-0.4l-0.1,0c0,0.1-0.1,0.2-0.2,0.3
	c-0.1,0.1-0.2,0.1-0.3,0.1c-0.2,0-0.4-0.1-0.4-0.2s-0.1-0.3-0.1-0.5c0-0.2,0.1-0.4,0.2-0.6c0.1-0.1,0.2-0.2,0.4-0.2
	c0.1,0,0.2,0,0.3,0.1c0,0.1,0.1,0.1,0.1,0.1c0,0,0,0,0,0.1C80,379.2,80,379.3,80.1,379.4C80,379.3,80.1,379.4,80.1,379.4L80.1,379.4
	z M82,379.4C82,379.4,82.1,379.4,82,379.4c0.1,0,0.2,0,0.2,0c0,0,0-0.1,0-0.1c0-0.1,0-0.2-0.1-0.3s-0.2-0.1-0.4-0.1
	c-0.2,0-0.4,0.1-0.6,0.2c-0.1,0.2-0.2,0.4-0.2,0.6c0,0.3,0.1,0.5,0.2,0.6c0.1,0.1,0.3,0.2,0.6,0.2c0.2,0,0.3-0.1,0.4-0.2
	c0.1-0.1,0.2-0.2,0.2-0.4l-0.1,0c0,0.1-0.1,0.2-0.2,0.3c-0.1,0.1-0.2,0.1-0.3,0.1c-0.2,0-0.4-0.1-0.4-0.2s-0.1-0.3-0.1-0.5
	c0-0.2,0.1-0.4,0.2-0.6c0.1-0.1,0.2-0.2,0.4-0.2c0.1,0,0.2,0,0.3,0.1c0,0.1,0.1,0.1,0.1,0.1c0,0,0,0,0,0.1
	C82,379.2,82,379.3,82,379.4C82,379.3,82,379.4,82,379.4L82,379.4z"/>
<path class="st1" d="M88.4,380.4c0.1-0.1,0.2-0.3,0.3-0.5l-0.1,0c0,0.2-0.1,0.3-0.2,0.5s-0.3,0.2-0.4,0.2c-0.2,0-0.4-0.1-0.5-0.3
	c-0.1-0.2-0.1-0.5-0.1-0.9c0-0.3,0.1-0.6,0.2-0.9s0.3-0.3,0.5-0.3c0.2,0,0.3,0,0.4,0.1c0.1,0.1,0.2,0.2,0.2,0.4l0.1,0l-0.1-0.7
	c0,0,0,0-0.1,0.1c0,0-0.1,0-0.1,0c0,0-0.1,0-0.2,0c-0.1,0-0.1,0-0.2,0c-0.3,0-0.5,0.1-0.7,0.4c-0.2,0.2-0.3,0.6-0.3,0.9
	c0,0.5,0.1,0.8,0.2,1s0.4,0.3,0.7,0.3C88.1,380.6,88.3,380.5,88.4,380.4L88.4,380.4z"/>
<path class="st0" d="M68.4,377.2h22.4 M74.1,377.2v4.3 M68.4,377.2v4.3 M85.2,377.2v4.3 M90.8,377.2v4.3 M95.7,381.5H68.4"/>
<path class="st1" d="M269.3,389.1c0.2,0,0.4-0.1,0.5-0.2c0.1-0.1,0.2-0.2,0.2-0.4c0-0.1,0-0.3-0.1-0.4s-0.2-0.2-0.4-0.3
	c0.2-0.1,0.3-0.1,0.3-0.2c0.1-0.1,0.1-0.2,0.1-0.3c0-0.2-0.1-0.3-0.2-0.4s-0.3-0.1-0.5-0.1h-0.8v0.1h0.1c0,0,0.1,0,0.1,0s0,0,0,0.1
	v1.9c0,0,0,0.1,0,0.1s0,0-0.1,0h-0.1v0.1H269.3z M269,389C269,389,268.9,389,269,389c-0.1,0-0.1-0.1-0.1-0.1v-1h0.3
	c0.2,0,0.3,0,0.4,0.1c0.1,0.1,0.1,0.2,0.1,0.4c0,0.2,0,0.3-0.1,0.4c-0.1,0.1-0.2,0.1-0.4,0.1H269z M269.5,387.7
	c-0.1,0.1-0.2,0.1-0.3,0.1h-0.3V387c0,0,0-0.1,0-0.1c0,0,0.1,0,0.1,0h0.2c0.1,0,0.3,0,0.3,0.1c0.1,0.1,0.1,0.2,0.1,0.3
	C269.6,387.5,269.6,387.6,269.5,387.7L269.5,387.7z"/>
<path class="st0" d="M269.2,386.5v-2.6 M270.8,388c0-0.9-0.7-1.6-1.6-1.6c-0.9,0-1.6,0.7-1.6,1.6c0,0.9,0.7,1.6,1.6,1.6
	C270,389.6,270.8,388.9,270.8,388L270.8,388z M266.7,383.9h5.1"/>
<path class="st1" d="M82.2,389.3C82.3,389.4,82.3,389.4,82.2,389.3c0.1,0,0.2,0,0.2,0c0,0,0-0.1,0-0.1c0-0.1,0-0.2-0.1-0.3
	s-0.2-0.1-0.4-0.1c-0.2,0-0.4,0.1-0.6,0.2c-0.1,0.2-0.2,0.4-0.2,0.6c0,0.3,0.1,0.5,0.2,0.6c0.1,0.1,0.3,0.2,0.6,0.2
	c0.2,0,0.3-0.1,0.4-0.2c0.1-0.1,0.2-0.2,0.2-0.4l-0.1,0c0,0.1-0.1,0.2-0.2,0.3c-0.1,0.1-0.2,0.1-0.3,0.1c-0.2,0-0.4-0.1-0.4-0.2
	s-0.1-0.3-0.1-0.5c0-0.2,0.1-0.4,0.2-0.6c0.1-0.1,0.2-0.2,0.4-0.2c0.1,0,0.2,0,0.3,0.1c0,0.1,0.1,0.1,0.1,0.1c0,0,0,0,0,0.1
	C82.2,389.2,82.2,389.2,82.2,389.3C82.2,389.3,82.2,389.3,82.2,389.3L82.2,389.3z M84.2,389.3C84.2,389.4,84.2,389.4,84.2,389.3
	c0.1,0,0.2,0,0.2,0c0,0,0-0.1,0-0.1c0-0.1,0-0.2-0.1-0.3s-0.2-0.1-0.4-0.1c-0.2,0-0.4,0.1-0.6,0.2c-0.1,0.2-0.2,0.4-0.2,0.6
	c0,0.3,0.1,0.5,0.2,0.6c0.1,0.1,0.3,0.2,0.6,0.2c0.2,0,0.3-0.1,0.4-0.2c0.1-0.1,0.2-0.2,0.2-0.4l-0.1,0c0,0.1-0.1,0.2-0.2,0.3
	c-0.1,0.1-0.2,0.1-0.3,0.1c-0.2,0-0.4-0.1-0.4-0.2s-0.1-0.3-0.1-0.5c0-0.2,0.1-0.4,0.2-0.6c0.1-0.1,0.2-0.2,0.4-0.2
	c0.1,0,0.2,0,0.3,0.1c0,0.1,0.1,0.1,0.1,0.1c0,0,0,0,0,0.1C84.1,389.2,84.1,389.2,84.2,389.3C84.1,389.3,84.1,389.3,84.2,389.3
	L84.2,389.3z M86.1,389.3C86.1,389.4,86.1,389.4,86.1,389.3c0.1,0,0.2,0,0.2,0c0,0,0-0.1,0-0.1c0-0.1,0-0.2-0.1-0.3
	s-0.2-0.1-0.4-0.1c-0.2,0-0.4,0.1-0.6,0.2c-0.1,0.2-0.2,0.4-0.2,0.6c0,0.3,0.1,0.5,0.2,0.6c0.1,0.1,0.3,0.2,0.6,0.2
	c0.2,0,0.3-0.1,0.4-0.2c0.1-0.1,0.2-0.2,0.2-0.4l-0.1,0c0,0.1-0.1,0.2-0.2,0.3c-0.1,0.1-0.2,0.1-0.3,0.1c-0.2,0-0.4-0.1-0.4-0.2
	s-0.1-0.3-0.1-0.5c0-0.2,0.1-0.4,0.2-0.6c0.1-0.1,0.2-0.2,0.4-0.2c0.1,0,0.2,0,0.3,0.1c0,0.1,0.1,0.1,0.1,0.1c0,0,0,0,0,0.1
	C86,389.2,86,389.2,86.1,389.3C86,389.3,86,389.3,86.1,389.3L86.1,389.3z"/>
<path class="st0" d="M351.5,377.5h-2.1v-3.7h2.1V377.5 M352.6,381.5h1v-8.3h-1V381.5 M512,402.8h-4.1 M512,403.5v-1.4l4.1,0.7
	L512,403.5"/>
<polyline class="st1" points="512,403.5 512,402.2 516.1,402.8 512,403.5 "/>
<path class="st0" d="M518.5,380.5v11.9 M522.6,389.6v1.4l-4.1-0.7L522.6,389.6"/>
<polyline class="st1" points="522.6,389.6 522.6,391 518.5,390.3 522.6,389.6 "/>
<path class="st0" d="M517.8,382.5v22.4 M521.9,402.8h11.5 M521.9,402.2v1.4l-4.1-0.7L521.9,402.2"/>
<polyline class="st1" points="521.9,402.2 521.9,403.5 517.8,402.8 521.9,402.2 "/>
<path class="st1" d="M527.9,397.6c-0.1,0.1-0.2,0.1-0.2,0.1c-0.1,0-0.2,0-0.2,0h-0.2v0.1h0.1c0.1,0,0.1,0,0.2,0c0,0,0,0.1,0,0.1v3.6
	h0.1l0.2-0.3c0.1,0.1,0.2,0.2,0.3,0.2s0.3,0.1,0.4,0.1c0.3,0,0.6-0.1,0.8-0.3c0.2-0.2,0.3-0.6,0.3-1c0-0.4-0.1-0.8-0.2-1
	c-0.2-0.2-0.4-0.3-0.7-0.3c-0.2,0-0.3,0-0.5,0.1c-0.2,0.1-0.3,0.2-0.4,0.4V397.6z M527.9,400c0.1-0.3,0.2-0.5,0.3-0.6
	c0.1-0.1,0.3-0.2,0.5-0.2c0.2,0,0.4,0.1,0.5,0.3c0.1,0.2,0.1,0.5,0.1,0.8c0,0.4-0.1,0.7-0.2,0.9c-0.1,0.2-0.3,0.3-0.6,0.3
	c-0.2,0-0.4-0.1-0.5-0.2c-0.1-0.1-0.2-0.3-0.2-0.4V400z M531.6,397.7c-0.1,0.1-0.1,0.2-0.3,0.3c-0.1,0.1-0.3,0.1-0.4,0.1h-0.2v0.1
	h0.4c0.1,0,0.1,0,0.2,0.1c0,0,0.1,0.1,0.1,0.1v2.8c0,0.1,0,0.2-0.1,0.3c-0.1,0.1-0.2,0.1-0.3,0.1h-0.2v0.1h1.7v-0.1h-0.2
	c-0.1,0-0.2,0-0.3-0.1c-0.1-0.1-0.1-0.2-0.1-0.3L531.6,397.7L531.6,397.7z"/>
<path class="st1" d="M156.3,402.7h-0.2c-0.1,0-0.1,0-0.2-0.1c0,0-0.1-0.1-0.1-0.1V399c0-0.1,0-0.2,0-0.2c0,0,0.1,0,0.3,0
	c0.2,0,0.4,0,0.5,0.1c0.1,0.1,0.2,0.3,0.3,0.7l0.1,0l-0.2-0.9h-2.4l-0.2,0.9l0.1,0c0.1-0.4,0.2-0.6,0.3-0.7c0.1-0.1,0.3-0.1,0.5-0.1
	c0.1,0,0.2,0,0.2,0c0,0,0,0.1,0,0.2v3.5c0,0.1,0,0.1-0.1,0.1c0,0-0.1,0.1-0.2,0.1H155v0.1h1.3V402.7z M158.2,399.2
	c0.2-0.3,0.4-0.5,0.7-0.5c0.3,0,0.6,0.2,0.7,0.5c0.1,0.4,0.2,0.9,0.2,1.5c0,0.7-0.1,1.3-0.2,1.6s-0.4,0.5-0.7,0.5
	c-0.3,0-0.5-0.2-0.7-0.5c-0.2-0.3-0.3-0.8-0.3-1.6C158,400,158.1,399.5,158.2,399.2L158.2,399.2z M159.9,399.2
	c-0.2-0.4-0.6-0.6-1-0.6c-0.4,0-0.8,0.2-1,0.6c-0.3,0.4-0.4,0.9-0.4,1.6c0,0.7,0.1,1.2,0.4,1.6c0.3,0.4,0.6,0.6,1,0.6
	c0.4,0,0.7-0.2,1-0.6c0.3-0.4,0.4-0.9,0.4-1.6C160.3,400.1,160.2,399.6,159.9,399.2L159.9,399.2z M162.2,400.8
	c0.3,0,0.6-0.1,0.9-0.3c0.2-0.2,0.4-0.5,0.4-0.9c0-0.3-0.1-0.6-0.3-0.8c-0.2-0.2-0.5-0.3-1-0.3h-1.5v0.1h0.2c0.1,0,0.1,0,0.2,0.1
	c0,0,0.1,0.1,0.1,0.1v3.6c0,0.1,0,0.1-0.1,0.1c0,0-0.1,0.1-0.2,0.1h-0.2v0.1h1.2v-0.1h-0.2c-0.1,0-0.1,0-0.2-0.1
	c0,0-0.1-0.1-0.1-0.1v-1.7H162.2z M161.4,400.7v-1.8c0-0.1,0-0.1,0.1-0.1c0,0,0.1-0.1,0.2-0.1h0.4c0.3,0,0.6,0.1,0.8,0.2
	s0.2,0.4,0.2,0.7c0,0.4-0.1,0.6-0.3,0.8c-0.2,0.1-0.4,0.2-0.7,0.2H161.4z M169.1,398.7c0.1,0,0.2,0,0.2,0.1c0,0,0,0.1,0,0.1
	c0,0,0,0.1,0,0.2l-0.7,2.8h-0.1l-0.7-2.9c0-0.1,0-0.1,0-0.2s0.1-0.1,0.2-0.1h0.1v-0.1H167v0.1h0.1c0.1,0,0.1,0,0.2,0.1
	c0,0.1,0.1,0.1,0.1,0.3l0.9,3.8h0.1l1-3.8c0-0.1,0.1-0.2,0.1-0.3s0.1-0.1,0.2-0.1h0.1v-0.1H169L169.1,398.7L169.1,398.7z
	 M171.3,398.7c0.1,0,0.1,0,0.2,0.1c0,0,0.1,0.1,0.1,0.1v3.6c0,0.1,0,0.1-0.1,0.1c0,0-0.1,0.1-0.2,0.1h-0.6v0.1h2v-0.1h-0.6
	c-0.1,0-0.1,0-0.2-0.1c0,0-0.1-0.1-0.1-0.1v-3.6c0-0.1,0-0.1,0.1-0.1c0,0,0.1-0.1,0.2-0.1h0.6v-0.1h-2v0.1H171.3z M173.6,398.7
	c0.1,0,0.1,0,0.2,0.1c0,0,0.1,0.1,0.1,0.1v3.6c0,0.1,0,0.1-0.1,0.1c0,0-0.1,0.1-0.2,0.1h-0.2v0.1h2.6l0.3-1l-0.1-0.1
	c-0.1,0.3-0.2,0.5-0.4,0.7s-0.4,0.2-0.6,0.2h-0.7c-0.1,0-0.1,0-0.2-0.1c0,0-0.1-0.1-0.1-0.1v-1.9h0.7c0.2,0,0.3,0.1,0.4,0.1
	c0.1,0.1,0.1,0.2,0.1,0.4v0.1h0.1v-1.5h-0.1v0.2c0,0.2,0,0.3-0.1,0.4c-0.1,0.1-0.2,0.1-0.4,0.1h-0.7v-1.6c0-0.1,0-0.1,0.1-0.1
	c0,0,0.1-0.1,0.2-0.1h0.7c0.2,0,0.4,0.1,0.5,0.2c0.2,0.1,0.3,0.3,0.4,0.6l0.1-0.1l-0.3-0.8h-2.4v0.1H173.6z M178.9,398.6v0.1h0.1
	c0.1,0,0.1,0,0.2,0.1c0,0,0.1,0.1,0,0.2l-0.4,2.6h-0.1l-0.4-2.7c0-0.1,0-0.1,0-0.1c0,0,0.1-0.1,0.1-0.1h0.1v-0.1h-0.8v0.1h0.1
	c0,0,0.1,0,0.1,0.1c0,0,0.1,0.1,0.1,0.1l0.1,0.7l-0.4,2.1h-0.1l-0.4-2.7c0-0.1,0-0.1,0-0.1c0,0,0.1-0.1,0.2-0.1h0.1v-0.1h-0.9v0.1
	h0.1c0,0,0.1,0,0.1,0.1c0,0,0,0.1,0,0.1l0.6,3.9h0.1l0.5-2.6h0.1l0.4,2.6h0.2l0.7-3.9c0-0.1,0-0.1,0.1-0.2c0,0,0.1-0.1,0.1-0.1h0.1
	v-0.1H178.9z"/>
<path class="st1" d="M476,390c0-0.3,0.1-0.6,0.2-0.8s0.3-0.3,0.6-0.3c0.2,0,0.4,0.1,0.5,0.3s0.2,0.4,0.2,0.8H476z M477.9,390.1
	c0-0.5-0.1-0.8-0.3-1c-0.2-0.2-0.5-0.3-0.8-0.3c-0.3,0-0.6,0.1-0.8,0.4c-0.2,0.3-0.3,0.6-0.3,1c0,0.4,0.1,0.8,0.3,1
	c0.2,0.2,0.5,0.3,0.9,0.3c0.3,0,0.5-0.1,0.7-0.2c0.2-0.2,0.3-0.3,0.3-0.5l-0.1,0c-0.1,0.2-0.2,0.3-0.3,0.4c-0.1,0.1-0.3,0.2-0.5,0.2
	c-0.3,0-0.5-0.1-0.6-0.3s-0.2-0.5-0.2-0.9H477.9z"/>
<path class="st0" d="M515.4,380.5v11.9 M511.3,390.3h-4.1 M511.3,391v-1.4l4.1,0.7L511.3,391"/>
<polyline class="st1" points="511.3,391 511.3,389.6 515.4,390.3 511.3,391 "/>
<path class="st1" d="M529.7,385c-0.1,0.1-0.2,0.1-0.2,0.1s-0.2,0-0.2,0H529v0.1h0.1c0.1,0,0.1,0,0.2,0s0,0.1,0,0.1v3.6h0.1l0.2-0.3
	c0.1,0.1,0.2,0.2,0.3,0.2s0.3,0.1,0.4,0.1c0.3,0,0.6-0.1,0.8-0.3c0.2-0.2,0.3-0.6,0.3-1c0-0.4-0.1-0.8-0.2-1
	c-0.2-0.2-0.4-0.3-0.7-0.3c-0.2,0-0.3,0-0.5,0.1c-0.2,0.1-0.3,0.2-0.4,0.4V385z M529.7,387.5c0.1-0.3,0.2-0.5,0.3-0.6
	c0.1-0.1,0.3-0.2,0.5-0.2c0.2,0,0.4,0.1,0.5,0.3c0.1,0.2,0.1,0.5,0.1,0.8c0,0.4-0.1,0.7-0.2,0.9c-0.1,0.2-0.3,0.3-0.6,0.3
	c-0.2,0-0.4-0.1-0.5-0.2c-0.1-0.1-0.2-0.3-0.2-0.4V387.5z"/>
<path class="st1" d="M551.4,389.5c0.1-0.1,0.2-0.2,0.2-0.4l-0.1,0C551.5,389.2,551.4,389.3,551.4,389.5c-0.1,0-0.2,0-0.3,0
	c-0.2,0-0.3-0.1-0.3-0.2c-0.1-0.1-0.1-0.3-0.1-0.6c0-0.2,0-0.4,0.1-0.6s0.2-0.2,0.3-0.2c0.1,0,0.2,0,0.3,0.1
	c0.1,0.1,0.1,0.2,0.2,0.3l0.1,0l-0.1-0.5c0,0,0,0,0,0c0,0,0,0-0.1,0c0,0-0.1,0-0.1,0c0,0-0.1,0-0.1,0c-0.2,0-0.4,0.1-0.5,0.3
	c-0.1,0.2-0.2,0.4-0.2,0.7c0,0.3,0.1,0.5,0.2,0.7c0.1,0.1,0.3,0.2,0.5,0.2C551.2,389.6,551.3,389.6,551.4,389.5L551.4,389.5z"/>
<path class="st1" d="M538,389.6c0.1,0,0.1-0.1,0.2-0.1c0,0.1,0,0.1,0.1,0.1c0,0,0.1,0,0.1,0c0.1,0,0.1,0,0.1-0.1
	c0,0,0.1-0.1,0.1-0.2h-0.1c0,0.1,0,0.1,0,0.1c0,0,0,0-0.1,0c0,0,0,0-0.1,0c0,0,0,0,0-0.1v-0.7c0-0.1,0-0.2-0.1-0.2
	c-0.1-0.1-0.2-0.1-0.3-0.1c-0.1,0-0.2,0-0.3,0.1c-0.1,0.1-0.1,0.1-0.1,0.2c0,0,0,0.1,0,0.1c0,0,0,0,0.1,0c0,0,0.1,0,0.1,0
	c0,0,0,0,0-0.1c0,0,0,0,0,0c0,0,0-0.1,0.1-0.1c0,0,0.1-0.1,0.2-0.1c0.1,0,0.2,0,0.2,0.1c0,0,0,0.1,0,0.2v0.1c-0.3,0-0.5,0.1-0.6,0.2
	c-0.1,0.1-0.2,0.2-0.2,0.3c0,0.1,0,0.1,0.1,0.2c0.1,0.1,0.2,0.1,0.3,0.1C537.9,389.7,538,389.6,538,389.6L538,389.6z M537.7,389.1
	c0.1-0.1,0.3-0.1,0.5-0.1v0.5c-0.1,0-0.1,0.1-0.2,0.1c-0.1,0-0.1,0-0.2,0c-0.1,0-0.1,0-0.2-0.1c0-0.1-0.1-0.1-0.1-0.2
	C537.6,389.2,537.6,389.1,537.7,389.1L537.7,389.1z M539.4,389.6c0.1,0,0.1-0.1,0.2-0.1c0,0.1,0,0.1,0.1,0.1c0,0,0.1,0,0.1,0
	c0.1,0,0.1,0,0.1-0.1c0,0,0.1-0.1,0.1-0.2h-0.1c0,0.1,0,0.1,0,0.1c0,0,0,0-0.1,0c0,0,0,0-0.1,0c0,0,0,0,0-0.1v-0.7
	c0-0.1,0-0.2-0.1-0.2c-0.1-0.1-0.2-0.1-0.3-0.1c-0.1,0-0.2,0-0.3,0.1s-0.1,0.1-0.1,0.2c0,0,0,0.1,0,0.1c0,0,0,0,0.1,0
	c0,0,0.1,0,0.1,0c0,0,0,0,0-0.1c0,0,0,0,0,0c0,0,0-0.1,0.1-0.1c0,0,0.1-0.1,0.2-0.1c0.1,0,0.2,0,0.2,0.1c0,0,0,0.1,0,0.2v0.1
	c-0.3,0-0.5,0.1-0.6,0.2c-0.1,0.1-0.2,0.2-0.2,0.3c0,0.1,0,0.1,0.1,0.2c0.1,0.1,0.2,0.1,0.3,0.1
	C539.2,389.7,539.3,389.6,539.4,389.6L539.4,389.6z M539.1,389.1c0.1-0.1,0.3-0.1,0.5-0.1v0.5c-0.1,0-0.1,0.1-0.2,0.1
	c-0.1,0-0.1,0-0.2,0c-0.1,0-0.1,0-0.2-0.1c0-0.1-0.1-0.1-0.1-0.2C538.9,389.2,539,389.1,539.1,389.1L539.1,389.1z"/>
<path class="st1" d="M540.7,389.6c0.1,0,0.1-0.1,0.2-0.1c0,0.1,0,0.1,0.1,0.1c0,0,0.1,0,0.1,0c0.1,0,0.1,0,0.1-0.1
	c0,0,0.1-0.1,0.1-0.2h-0.1c0,0.1,0,0.1,0,0.1c0,0,0,0-0.1,0c0,0,0,0-0.1,0c0,0,0,0,0-0.1v-0.7c0-0.1,0-0.2-0.1-0.2
	c-0.1-0.1-0.2-0.1-0.3-0.1c-0.1,0-0.2,0-0.3,0.1s-0.1,0.1-0.1,0.2c0,0,0,0.1,0,0.1c0,0,0,0,0.1,0c0,0,0.1,0,0.1,0c0,0,0,0,0-0.1
	c0,0,0,0,0,0c0,0,0-0.1,0.1-0.1c0,0,0.1-0.1,0.2-0.1c0.1,0,0.2,0,0.2,0.1c0,0,0,0.1,0,0.2v0.1c-0.3,0-0.5,0.1-0.6,0.2
	c-0.1,0.1-0.2,0.2-0.2,0.3c0,0.1,0,0.1,0.1,0.2c0.1,0.1,0.2,0.1,0.3,0.1C540.6,389.7,540.6,389.6,540.7,389.6L540.7,389.6z
	 M540.4,389.1c0.1-0.1,0.3-0.1,0.5-0.1v0.5c-0.1,0-0.1,0.1-0.2,0.1c-0.1,0-0.1,0-0.2,0c-0.1,0-0.1,0-0.2-0.1c0-0.1-0.1-0.1-0.1-0.2
	C540.3,389.2,540.3,389.1,540.4,389.1L540.4,389.1z M545.1,389.4C545.1,389.5,545.1,389.5,545.1,389.4c0,0.1,0,0.1,0,0.1
	c0,0,0,0-0.1,0h0v0.1h0.4v-0.1h0c0,0-0.1,0-0.1,0c0,0,0,0-0.1-0.1l-0.4-1.6l-0.2,0.1l-0.4,1.6c0,0,0,0.1,0,0.1c0,0,0,0-0.1,0h0v0.1
	h0.4v-0.1h0c0,0-0.1,0-0.1,0c0,0,0-0.1,0-0.1c0,0,0,0,0-0.1l0.1-0.4h0.5L545.1,389.4z M545,388.9h-0.4l0.2-0.9h0L545,388.9z"/>
<path class="st1" d="M548,389.6c0.2,0,0.3,0,0.4-0.1c0.1-0.1,0.1-0.2,0.1-0.3c0-0.1,0-0.2-0.1-0.3c-0.1-0.1-0.2-0.2-0.3-0.2
	c0.1-0.1,0.2-0.1,0.3-0.2c0-0.1,0.1-0.1,0.1-0.2c0-0.1,0-0.2-0.1-0.3c-0.1-0.1-0.2-0.1-0.4-0.1h-0.6v0.1h0.1c0,0,0.1,0,0.1,0
	c0,0,0,0,0,0.1v1.5c0,0,0,0,0,0.1c0,0,0,0-0.1,0h-0.1v0.1H548z M547.8,389.6C547.8,389.6,547.8,389.6,547.8,389.6
	C547.7,389.5,547.7,389.5,547.8,389.6l-0.1-0.9h0.2c0.1,0,0.2,0,0.3,0.1c0.1,0.1,0.1,0.2,0.1,0.3c0,0.1,0,0.2-0.1,0.3
	c-0.1,0.1-0.2,0.1-0.3,0.1H547.8z M548.2,388.6c-0.1,0.1-0.1,0.1-0.2,0.1h-0.3V388c0,0,0,0,0-0.1c0,0,0,0,0.1,0h0.1
	c0.1,0,0.2,0,0.3,0.1c0.1,0.1,0.1,0.1,0.1,0.3C548.3,388.4,548.3,388.5,548.2,388.6L548.2,388.6z"/>
<path class="st1" d="M537.6,391.5h-0.3v0.1L537.6,391.5v1c0,0,0,0,0,0.1c0,0,0,0-0.1,0h-0.2v0.1h0.8v-0.1h-0.3c0,0-0.1,0-0.1,0
	c0,0,0,0,0-0.1v-1h0.4v-0.1h-0.4v-0.2c0-0.1,0-0.2,0.1-0.3c0.1-0.1,0.1-0.1,0.2-0.1c0.1,0,0.1,0,0.1,0c0,0,0,0,0,0.1c0,0,0,0,0,0
	c0,0,0,0,0,0c0,0,0,0.1,0,0.1c0,0,0,0,0.1,0c0,0,0.1,0,0.1,0c0,0,0,0,0-0.1c0-0.1,0-0.1-0.1-0.1c-0.1,0-0.1-0.1-0.3-0.1
	c-0.1,0-0.2,0-0.3,0.1c-0.1,0.1-0.1,0.2-0.1,0.3V391.5z M539,391.5h-0.3v0.1L539,391.5v1c0,0,0,0,0,0.1c0,0,0,0-0.1,0h-0.2v0.1h0.8
	v-0.1h-0.3c0,0-0.1,0-0.1,0c0,0,0,0,0-0.1v-1h0.4v-0.1h-0.4v-0.2c0-0.1,0-0.2,0.1-0.3c0.1-0.1,0.1-0.1,0.2-0.1c0.1,0,0.1,0,0.1,0
	c0,0,0,0,0,0.1c0,0,0,0,0,0c0,0,0,0,0,0c0,0,0,0.1,0,0.1c0,0,0,0,0.1,0c0,0,0.1,0,0.1,0s0,0,0-0.1c0-0.1,0-0.1-0.1-0.1
	c-0.1,0-0.1-0.1-0.3-0.1c-0.1,0-0.2,0-0.3,0.1c-0.1,0.1-0.1,0.2-0.1,0.3V391.5z"/>
<path class="st1" d="M540.3,391.5H540v0.1L540.3,391.5v1c0,0,0,0,0,0.1c0,0,0,0-0.1,0H540v0.1h0.8v-0.1h-0.3c0,0-0.1,0-0.1,0
	c0,0,0,0,0-0.1v-1h0.4v-0.1h-0.4v-0.2c0-0.1,0-0.2,0.1-0.3c0.1-0.1,0.1-0.1,0.2-0.1c0.1,0,0.1,0,0.1,0c0,0,0,0,0,0.1c0,0,0,0,0,0
	c0,0,0,0,0,0c0,0,0,0.1,0,0.1c0,0,0,0,0.1,0c0,0,0.1,0,0.1,0s0,0,0-0.1c0-0.1,0-0.1-0.1-0.1c-0.1,0-0.1-0.1-0.3-0.1
	c-0.1,0-0.2,0-0.3,0.1c-0.1,0.1-0.1,0.2-0.1,0.3V391.5z"/>
<path class="st1" d="M545.1,392.5c0.1-0.1,0.2-0.2,0.2-0.4l-0.1,0C545.2,392.3,545.2,392.4,545.1,392.5c-0.1,0-0.2,0-0.3,0
	c-0.2,0-0.3-0.1-0.3-0.2c-0.1-0.1-0.1-0.3-0.1-0.6c0-0.2,0-0.4,0.1-0.6c0.1-0.2,0.2-0.2,0.3-0.2c0.1,0,0.2,0,0.3,0.1
	c0.1,0.1,0.1,0.2,0.2,0.3l0.1,0l-0.1-0.5c0,0,0,0,0,0c0,0,0,0-0.1,0c0,0-0.1,0-0.1,0c0,0-0.1,0-0.1,0c-0.2,0-0.4,0.1-0.5,0.3
	c-0.1,0.2-0.2,0.4-0.2,0.7c0,0.3,0.1,0.5,0.2,0.7c0.1,0.1,0.3,0.2,0.5,0.2C544.9,392.7,545,392.6,545.1,392.5L545.1,392.5z"/>
<path class="st1" d="M579.1,395.6c-0.1,0-0.1,0-0.1-0.1c0,0,0-0.1,0-0.1v-0.2h-0.1v1.1h0.1v-0.1c0-0.1,0-0.1,0-0.2c0,0,0.1,0,0.1,0
	h3.3c0.1,0,0.1,0,0.1,0c0,0,0,0.1,0,0.2v0.2h0.1V394l-0.9-0.2l0,0.1c0.3,0.1,0.5,0.2,0.6,0.3s0.2,0.3,0.2,0.6v0.6c0,0.1,0,0.1,0,0.1
	c0,0-0.1,0.1-0.1,0.1H579.1z M578.7,392c0.1,0.1,0.2,0.1,0.3,0.3c0.1,0.1,0.1,0.3,0.1,0.4v0.2h0.1v-0.4c0-0.1,0-0.1,0.1-0.2
	c0,0,0.1-0.1,0.1-0.1h2.8c0.1,0,0.2,0,0.3,0.1c0.1,0.1,0.1,0.2,0.1,0.3v0.2h0.1v-1.7h-0.1v0.2c0,0.1,0,0.2-0.1,0.3
	c-0.1,0.1-0.2,0.1-0.3,0.1L578.7,392L578.7,392z"/>
<path class="st1" d="M591.3,401.4c-0.1,0-0.1,0-0.1-0.1c0,0,0-0.1,0-0.1V401h-0.1v1.1h0.1v-0.1c0-0.1,0-0.1,0-0.2c0,0,0.1,0,0.1,0
	h3.3c0.1,0,0.1,0,0.1,0c0,0,0,0.1,0,0.2v0.2h0.1v-2.4l-0.9-0.2l0,0.1c0.3,0.1,0.5,0.2,0.6,0.3s0.2,0.3,0.2,0.6v0.6
	c0,0.1,0,0.1,0,0.1c0,0-0.1,0.1-0.1,0.1H591.3z M592.6,397.4c0.2,0.1,0.5,0.3,0.7,0.6c0.3,0.3,0.6,0.5,0.8,0.7
	c0.2,0.2,0.4,0.3,0.5,0.4h0.3v-2.1l-1-0.1v0.1c0.2,0,0.4,0.1,0.5,0.2c0.1,0.1,0.2,0.2,0.2,0.3v1.4c-0.1,0-0.3-0.2-0.5-0.4
	c-0.3-0.2-0.6-0.6-1-1c-0.2-0.2-0.3-0.3-0.5-0.4c-0.2-0.1-0.4-0.1-0.6-0.1c-0.3,0-0.5,0.1-0.7,0.3c-0.2,0.2-0.3,0.4-0.3,0.8
	c0,0.3,0.1,0.5,0.3,0.7c0.2,0.2,0.4,0.3,0.7,0.3c0.1,0,0.2,0,0.3-0.1c0.1-0.1,0.1-0.1,0.1-0.2c0-0.1,0-0.1-0.1-0.2
	c0,0-0.1-0.1-0.2-0.1c-0.1,0-0.1,0-0.2,0.1c-0.1,0.1-0.1,0.1-0.2,0.1c-0.2,0-0.3-0.1-0.4-0.2c-0.1-0.1-0.1-0.3-0.1-0.5
	c0-0.2,0.1-0.4,0.2-0.6c0.1-0.1,0.4-0.2,0.6-0.2C592.1,397.2,592.3,397.2,592.6,397.4L592.6,397.4z M592.4,393.7c0,0-0.1,0-0.2,0
	c-0.1,0-0.1,0-0.2,0.1c0,0-0.1,0.1-0.1,0.1c0,0,0,0.1,0,0.1c0,0,0.1,0.1,0.1,0.2l0.6,0.7l-1-0.2c0,0-0.1,0-0.1,0c0,0-0.1,0-0.1,0
	c0,0-0.1,0-0.2,0c-0.1,0-0.1,0.1-0.1,0.2c0,0.1,0,0.1,0.1,0.2c0.1,0,0.1,0.1,0.2,0.1c0,0,0.1,0,0.1,0c0,0,0.1,0,0.1,0l1-0.2
	l-0.7,0.7c0,0-0.1,0.1-0.1,0.2c0,0.1,0,0.1,0,0.1s0,0.1,0.1,0.1c0,0,0.1,0.1,0.2,0.1c0.1,0,0.2,0,0.2-0.1c0-0.1,0.1-0.2,0.1-0.3
	l0.3-0.8l0.3,0.8c0.1,0.2,0.1,0.3,0.2,0.3c0,0,0.1,0.1,0.2,0.1c0.1,0,0.2,0,0.2-0.1c0,0,0-0.1,0-0.1s0-0.1,0-0.1
	c0-0.1-0.1-0.1-0.1-0.2l-0.6-0.7l1,0.2c0,0,0.1,0,0.1,0c0,0,0.1,0,0.1,0c0.1,0,0.2,0,0.2-0.1c0-0.1,0-0.1,0-0.2c0-0.1,0-0.1-0.1-0.2
	c0,0-0.1-0.1-0.2-0.1c0,0,0,0-0.1,0c0,0-0.1,0-0.1,0l-1,0.2l0.6-0.7c0-0.1,0.1-0.1,0.1-0.2c0,0,0-0.1,0-0.1s0-0.1,0-0.1
	c0,0-0.1-0.1-0.2-0.1c0,0-0.1,0-0.1,0s-0.1,0.1-0.2,0.3l-0.3,0.8l-0.3-0.8C592.5,393.9,592.4,393.7,592.4,393.7L592.4,393.7z
	 M593.4,392.7c-0.2-0.1-0.3-0.2-0.5-0.4c0.2-0.4,0.3-0.6,0.5-0.8c0.2-0.2,0.4-0.3,0.6-0.3c0.2,0,0.4,0.1,0.6,0.2s0.2,0.3,0.2,0.6
	c0,0.2-0.1,0.4-0.2,0.6s-0.4,0.2-0.6,0.2C593.7,392.8,593.5,392.8,593.4,392.7L593.4,392.7z M593.3,391c-0.2,0.1-0.4,0.3-0.5,0.6
	c-0.1-0.2-0.3-0.4-0.4-0.5c-0.2-0.1-0.3-0.2-0.5-0.2c-0.3,0-0.5,0.1-0.7,0.3c-0.2,0.2-0.3,0.5-0.3,0.8c0,0.4,0.1,0.6,0.3,0.8
	c0.2,0.2,0.4,0.3,0.7,0.3c0.2,0,0.4-0.1,0.5-0.2c0.2-0.1,0.3-0.3,0.4-0.5c0.1,0.2,0.3,0.4,0.5,0.6c0.2,0.1,0.4,0.2,0.7,0.2
	s0.5-0.1,0.7-0.3s0.3-0.5,0.3-0.8c0-0.4-0.1-0.6-0.3-0.9c-0.2-0.2-0.4-0.3-0.7-0.3C593.7,390.8,593.5,390.9,593.3,391L593.3,391z
	 M592.4,391.3c0.1,0.1,0.3,0.2,0.3,0.4c-0.1,0.3-0.3,0.6-0.4,0.7c-0.2,0.2-0.3,0.3-0.5,0.3c-0.2,0-0.3-0.1-0.5-0.2s-0.2-0.3-0.2-0.6
	c0-0.3,0.1-0.4,0.2-0.6c0.2-0.1,0.3-0.2,0.6-0.2C592.1,391.2,592.2,391.2,592.4,391.3L592.4,391.3z"/>
<path class="st0" d="M563,379.4h23 M562.2,381.5h23.7 M583.9,385.6v11.7 M583.9,375.3v-4.1 M583.2,375.3h1.4l-0.7,4.1L583.2,375.3"
	/>
<polyline class="st1" points="583.2,375.3 584.6,375.3 583.9,379.4 583.2,375.3 "/>
<polyline class="st0" points="584.6,385.6 583.2,385.6 583.9,381.5 584.6,385.6 "/>
<polyline class="st1" points="584.6,385.6 583.2,385.6 583.9,381.5 584.6,385.6 "/>
<path class="st0" d="M561.1,373.3h37 M561.1,381.5h37 M596,385.6v17.5 M596,373.3v8.2 M596,369.1V365 M595.3,369.1h1.4l-0.7,4.1
	L595.3,369.1"/>
<path class="st1" d="M593.3,311.1c0-0.1,0-0.1,0-0.2c0,0,0.1,0,0.1,0h3.3c0.1,0,0.1,0,0.1,0c0,0,0,0.1,0,0.2v0.1h0.1v-2.4l-0.9-0.3
	l0,0.1c0.3,0.1,0.5,0.2,0.6,0.4s0.2,0.4,0.2,0.6v0.6c0,0.1,0,0.1,0,0.1c0,0-0.1,0.1-0.1,0.1h-1.7v-0.7c0-0.2,0-0.3,0.1-0.3
	c0.1-0.1,0.2-0.1,0.4-0.1h0.1v-0.1h-1.4v0.1h0.1c0.2,0,0.3,0,0.3,0.1c0.1,0.1,0.1,0.2,0.1,0.3v0.7h-1.4c-0.1,0-0.1,0-0.1-0.1
	c0,0,0-0.1,0-0.1v-0.6c0-0.2,0.1-0.3,0.2-0.5c0.1-0.1,0.3-0.3,0.5-0.4l0-0.1l-0.8,0.3v2.3h0.1V311.1z M594.8,306.5
	c0.2,0.1,0.5,0.3,0.7,0.6c0.3,0.3,0.6,0.5,0.8,0.7c0.2,0.2,0.4,0.3,0.5,0.4h0.3V306l-1-0.1v0.1c0.2,0,0.4,0.1,0.5,0.2
	c0.1,0.1,0.2,0.2,0.2,0.3v1.4c-0.1,0-0.3-0.2-0.5-0.4c-0.3-0.2-0.6-0.6-1-1c-0.2-0.2-0.3-0.3-0.5-0.4c-0.2-0.1-0.4-0.1-0.6-0.1
	c-0.3,0-0.5,0.1-0.7,0.3c-0.2,0.2-0.3,0.4-0.3,0.8c0,0.3,0.1,0.5,0.3,0.7c0.2,0.2,0.4,0.3,0.7,0.3c0.1,0,0.2,0,0.3-0.1
	c0.1-0.1,0.1-0.1,0.1-0.2c0-0.1,0-0.1-0.1-0.2c0,0-0.1-0.1-0.2-0.1c-0.1,0-0.1,0-0.2,0.1c-0.1,0.1-0.1,0.1-0.2,0.1
	c-0.2,0-0.3-0.1-0.4-0.2c-0.1-0.1-0.1-0.3-0.1-0.5c0-0.2,0.1-0.4,0.2-0.6c0.1-0.1,0.4-0.2,0.6-0.2
	C594.4,306.3,594.6,306.4,594.8,306.5L594.8,306.5z"/>
<path class="st0" d="M806.1,396.8l-3.2-5.5l-3.2,5.5L806.1,396.8 M262,443.9l1.3-2 M263.4,443.9l1.3-2"/>
<path class="st1" d="M489.8,412.1c0.4,0,0.7-0.1,0.9-0.3c0.2-0.2,0.4-0.5,0.4-0.8c0-0.3-0.1-0.5-0.2-0.7c-0.1-0.2-0.4-0.4-0.8-0.5
	c0.3-0.1,0.5-0.2,0.6-0.4c0.1-0.1,0.1-0.3,0.1-0.6c0-0.3-0.1-0.6-0.3-0.7c-0.2-0.2-0.5-0.2-0.9-0.2h-1.4v0.1h0.1
	c0.1,0,0.1,0,0.2,0.1c0,0,0.1,0.1,0.1,0.1v3.6c0,0.1,0,0.1-0.1,0.1c0,0-0.1,0.1-0.2,0.1h-0.2v0.1H489.8z M489.3,412
	c-0.1,0-0.1,0-0.2-0.1c0,0-0.1-0.1-0.1-0.1v-1.9h0.6c0.3,0,0.6,0.1,0.7,0.3c0.2,0.2,0.2,0.4,0.2,0.8c0,0.3-0.1,0.6-0.2,0.7
	c-0.2,0.2-0.4,0.3-0.7,0.3H489.3z M490.2,409.5c-0.2,0.1-0.3,0.2-0.5,0.2H489v-1.6c0-0.1,0-0.1,0.1-0.1c0,0,0.1-0.1,0.2-0.1h0.3
	c0.3,0,0.5,0.1,0.7,0.2c0.2,0.1,0.2,0.3,0.2,0.6C490.5,409.1,490.4,409.4,490.2,409.5L490.2,409.5z M492.3,408.5
	c0.2-0.3,0.4-0.5,0.7-0.5c0.3,0,0.6,0.2,0.7,0.5c0.1,0.4,0.2,0.9,0.2,1.5c0,0.7-0.1,1.3-0.2,1.6s-0.4,0.5-0.7,0.5
	c-0.3,0-0.5-0.2-0.7-0.5c-0.2-0.3-0.3-0.8-0.3-1.6C492,409.3,492.1,408.8,492.3,408.5L492.3,408.5z M494,408.4
	c-0.2-0.4-0.6-0.6-1-0.6c-0.4,0-0.8,0.2-1,0.6c-0.3,0.4-0.4,0.9-0.4,1.6c0,0.7,0.1,1.2,0.4,1.6c0.3,0.4,0.6,0.6,1,0.6
	c0.4,0,0.7-0.2,1-0.6c0.3-0.4,0.4-0.9,0.4-1.6C494.3,409.4,494.2,408.9,494,408.4L494,408.4z M496.7,412h-0.2c-0.1,0-0.1,0-0.2-0.1
	c0,0-0.1-0.1-0.1-0.1v-3.5c0-0.1,0-0.2,0-0.2c0,0,0.1,0,0.3,0c0.2,0,0.4,0,0.5,0.1c0.1,0.1,0.2,0.3,0.3,0.7l0.1,0l-0.2-0.9h-2.4
	l-0.2,0.9l0.1,0c0.1-0.4,0.2-0.6,0.3-0.7c0.1-0.1,0.3-0.1,0.5-0.1c0.1,0,0.2,0,0.2,0c0,0,0,0.1,0,0.2v3.5c0,0.1,0,0.1-0.1,0.1
	c0,0-0.1,0.1-0.2,0.1h-0.2v0.1h1.3V412z M499.9,412h-0.2c-0.1,0-0.1,0-0.2-0.1c0,0-0.1-0.1-0.1-0.1v-3.5c0-0.1,0-0.2,0-0.2
	c0,0,0.1,0,0.3,0c0.2,0,0.4,0,0.5,0.1c0.1,0.1,0.2,0.3,0.3,0.7l0.1,0l-0.2-0.9h-2.4l-0.2,0.9l0.1,0c0.1-0.4,0.2-0.6,0.3-0.7
	c0.1-0.1,0.3-0.1,0.5-0.1c0.1,0,0.2,0,0.2,0c0,0,0,0.1,0,0.2v3.5c0,0.1,0,0.1-0.1,0.1c0,0-0.1,0.1-0.2,0.1h-0.2v0.1h1.3V412z
	 M501.8,408.5c0.2-0.3,0.4-0.5,0.7-0.5c0.3,0,0.6,0.2,0.7,0.5c0.1,0.4,0.2,0.9,0.2,1.5c0,0.7-0.1,1.3-0.2,1.6s-0.4,0.5-0.7,0.5
	c-0.3,0-0.5-0.2-0.7-0.5c-0.2-0.3-0.3-0.8-0.3-1.6C501.6,409.3,501.7,408.8,501.8,408.5L501.8,408.5z M503.5,408.4
	c-0.2-0.4-0.6-0.6-1-0.6c-0.4,0-0.8,0.2-1,0.6c-0.3,0.4-0.4,0.9-0.4,1.6c0,0.7,0.1,1.2,0.4,1.6c0.3,0.4,0.6,0.6,1,0.6
	c0.4,0,0.7-0.2,1-0.6c0.3-0.4,0.4-0.9,0.4-1.6C503.9,409.4,503.8,408.9,503.5,408.4L503.5,408.4z M506.9,408.2c0-0.1,0-0.1,0.1-0.1
	c0,0,0.1-0.1,0.2-0.1h0.1v-0.1h-0.8l-0.8,3.3h-0.1l-0.7-3.3h-0.7v0.1h0.1c0.1,0,0.1,0,0.2,0.1c0,0,0.1,0.1,0.1,0.1v3.6
	c0,0.1,0,0.1-0.1,0.1c0,0-0.1,0.1-0.2,0.1h-0.1v0.1h0.7V412h-0.1c-0.1,0-0.1,0-0.2-0.1c0,0-0.1-0.1-0.1-0.1v-3.2h0.1l0.8,3.5h0.2
	l0.8-3.6h0.1v3.3c0,0.1,0,0.1-0.1,0.1c0,0-0.1,0.1-0.2,0.1h-0.1v0.1h1.1V412h-0.1c-0.1,0-0.1,0-0.2-0.1c0,0-0.1-0.1-0.1-0.1V408.2z
	 M512.7,408c0.1,0,0.2,0,0.2,0.1c0,0,0,0.1,0,0.1c0,0,0,0.1,0,0.2l-0.7,2.8h-0.1l-0.7-2.9c0-0.1,0-0.1,0-0.2s0.1-0.1,0.2-0.1h0.1
	v-0.1h-1.1v0.1h0.1c0.1,0,0.1,0,0.2,0.1c0,0.1,0.1,0.1,0.1,0.3l0.9,3.8h0.1l1-3.8c0-0.1,0.1-0.2,0.1-0.3s0.1-0.1,0.2-0.1h0.1v-0.1
	h-0.9L512.7,408L512.7,408z M514.9,408c0.1,0,0.1,0,0.2,0.1c0,0,0.1,0.1,0.1,0.1v3.6c0,0.1,0,0.1-0.1,0.1c0,0-0.1,0.1-0.2,0.1h-0.6
	v0.1h2V412h-0.6c-0.1,0-0.1,0-0.2-0.1c0,0-0.1-0.1-0.1-0.1v-3.6c0-0.1,0-0.1,0.1-0.1c0,0,0.1-0.1,0.2-0.1h0.6v-0.1h-2v0.1H514.9z
	 M517.2,408c0.1,0,0.1,0,0.2,0.1c0,0,0.1,0.1,0.1,0.1v3.6c0,0.1,0,0.1-0.1,0.1c0,0-0.1,0.1-0.2,0.1h-0.2v0.1h2.6l0.3-1l-0.1-0.1
	c-0.1,0.3-0.2,0.5-0.4,0.7s-0.4,0.2-0.6,0.2h-0.7c-0.1,0-0.1,0-0.2-0.1c0,0-0.1-0.1-0.1-0.1v-1.9h0.7c0.2,0,0.3,0.1,0.4,0.1
	c0.1,0.1,0.1,0.2,0.1,0.4v0.1h0.1v-1.5H519v0.2c0,0.2,0,0.3-0.1,0.4c-0.1,0.1-0.2,0.1-0.4,0.1h-0.7v-1.6c0-0.1,0-0.1,0.1-0.1
	c0,0,0.1-0.1,0.2-0.1h0.7c0.2,0,0.4,0.1,0.5,0.2c0.2,0.1,0.3,0.3,0.4,0.6l0.1-0.1l-0.3-0.8h-2.4v0.1H517.2z M522.5,407.8v0.1h0.1
	c0.1,0,0.1,0,0.2,0.1c0,0,0.1,0.1,0,0.2l-0.4,2.6h-0.1l-0.4-2.7c0-0.1,0-0.1,0-0.1c0,0,0.1-0.1,0.1-0.1h0.1v-0.1h-0.8v0.1h0.1
	c0,0,0.1,0,0.1,0.1c0,0,0.1,0.1,0.1,0.1l0.1,0.7l-0.4,2.1h-0.1l-0.4-2.7c0-0.1,0-0.1,0-0.1c0,0,0.1-0.1,0.2-0.1h0.1v-0.1h-0.9v0.1
	h0.1c0,0,0.1,0,0.1,0.1c0,0,0,0.1,0,0.1l0.6,3.9h0.1l0.5-2.6h0.1l0.4,2.6h0.2l0.7-3.9c0-0.1,0-0.1,0.1-0.2c0,0,0.1-0.1,0.1-0.1h0.1
	v-0.1H522.5z"/>
<path class="st1" d="M268.1,443.4c0,0.1-0.1,0.2-0.1,0.2c-0.1,0.1-0.1,0.1-0.2,0.1c-0.1,0-0.2,0-0.3-0.1s-0.1-0.2-0.1-0.4
	c0-0.2,0-0.3,0.1-0.4c0.1-0.1,0.2-0.2,0.3-0.2c0.1,0,0.1,0,0.2,0c0.1,0,0.1,0.1,0.2,0.1V443.4z M267.9,443.7c0.1,0,0.1-0.1,0.2-0.2
	v0.2h0c0,0,0.1,0,0.1-0.1s0.1,0,0.1,0h0.1v-0.1h-0.1c0,0-0.1,0-0.1,0s0,0,0-0.1v-1.9c0,0-0.1,0.1-0.1,0.1s-0.1,0-0.1,0h-0.1v0.1h0.1
	c0,0,0.1,0,0.1,0s0,0.1,0,0.1v0.6c0-0.1-0.1-0.1-0.2-0.1s-0.1,0-0.2,0c-0.1,0-0.3,0.1-0.4,0.2c-0.1,0.1-0.2,0.3-0.2,0.5
	c0,0.2,0.1,0.4,0.2,0.5c0.1,0.1,0.2,0.2,0.4,0.2C267.8,443.8,267.9,443.8,267.9,443.7L267.9,443.7z M269.6,443.4
	c0,0.1-0.1,0.2-0.1,0.2c-0.1,0.1-0.1,0.1-0.2,0.1c-0.1,0-0.2,0-0.3-0.1s-0.1-0.2-0.1-0.4c0-0.2,0-0.3,0.1-0.4
	c0.1-0.1,0.2-0.2,0.3-0.2c0.1,0,0.1,0,0.2,0c0.1,0,0.1,0.1,0.2,0.1V443.4z M269.4,443.7c0.1,0,0.1-0.1,0.2-0.2v0.2h0
	c0,0,0.1,0,0.1-0.1s0.1,0,0.1,0h0.1v-0.1h-0.1c0,0-0.1,0-0.1,0s0,0,0-0.1v-1.9c0,0-0.1,0.1-0.1,0.1s-0.1,0-0.1,0h-0.1v0.1h0.1
	c0,0,0.1,0,0.1,0s0,0.1,0,0.1v0.6c0-0.1-0.1-0.1-0.2-0.1s-0.1,0-0.2,0c-0.1,0-0.3,0.1-0.4,0.2c-0.1,0.1-0.2,0.3-0.2,0.5
	c0,0.2,0.1,0.4,0.2,0.5c0.1,0.1,0.2,0.2,0.4,0.2C269.3,443.8,269.4,443.8,269.4,443.7L269.4,443.7z"/>
<path class="st1" d="M271.1,443.4c0,0.1-0.1,0.2-0.1,0.2c-0.1,0.1-0.1,0.1-0.2,0.1c-0.1,0-0.2,0-0.3-0.1s-0.1-0.2-0.1-0.4
	c0-0.2,0-0.3,0.1-0.4c0.1-0.1,0.2-0.2,0.3-0.2c0.1,0,0.1,0,0.2,0c0.1,0,0.1,0.1,0.2,0.1V443.4z M270.9,443.7c0.1,0,0.1-0.1,0.2-0.2
	v0.2h0c0,0,0.1,0,0.1-0.1s0.1,0,0.1,0h0.1v-0.1h-0.1c0,0-0.1,0-0.1,0s0,0,0-0.1v-1.9c0,0-0.1,0.1-0.1,0.1s-0.1,0-0.1,0h-0.1v0.1h0.1
	c0,0,0.1,0,0.1,0s0,0.1,0,0.1v0.6c0-0.1-0.1-0.1-0.2-0.1s-0.1,0-0.2,0c-0.1,0-0.3,0.1-0.4,0.2c-0.1,0.1-0.2,0.3-0.2,0.5
	c0,0.2,0.1,0.4,0.2,0.5c0.1,0.1,0.2,0.2,0.4,0.2C270.8,443.8,270.9,443.8,270.9,443.7L270.9,443.7z"/>
<path class="st1" d="M275.2,443.6c0.1-0.1,0.2-0.2,0.2-0.4l-0.1,0C275.4,443.4,275.3,443.5,275.2,443.6c-0.1,0-0.2,0.1-0.4,0.1
	c-0.2,0-0.3-0.1-0.4-0.2s-0.1-0.4-0.1-0.7c0-0.3,0-0.5,0.1-0.7s0.2-0.3,0.4-0.3c0.1,0,0.2,0,0.3,0.1s0.1,0.2,0.2,0.3l0.1,0l-0.1-0.5
	c0,0,0,0-0.1,0c0,0,0,0-0.1,0c0,0-0.1,0-0.1,0c-0.1,0-0.1,0-0.2,0c-0.2,0-0.4,0.1-0.6,0.3c-0.1,0.2-0.2,0.4-0.2,0.7
	c0,0.4,0.1,0.6,0.2,0.8c0.1,0.2,0.3,0.2,0.5,0.2C275,443.8,275.1,443.8,275.2,443.6L275.2,443.6z"/>
<polyline class="st0" points="257.5,447 256.1,447 256.8,442.9 257.5,447 "/>
<polyline class="st1" points="257.5,447 256.1,447 256.8,442.9 257.5,447 "/>
<path class="st0" d="M108.3,458.3h-22 M108.3,454.2h-22 M88.4,450.1v-4.1 M89.1,462.5h-1.4l0.7-4.1L89.1,462.5"/>
<polyline class="st1" points="89.1,462.5 87.7,462.5 88.4,458.3 89.1,462.5 "/>
<polyline class="st0" points="87.7,450.1 89.1,450.1 88.4,454.2 87.7,450.1 "/>
<polyline class="st1" points="87.7,450.1 89.1,450.1 88.4,454.2 87.7,450.1 "/>
<path class="st1" d="M103,467.2c0.1-0.1,0.2-0.3,0.2-0.5l-0.1,0C103.2,466.8,103.1,467,103,467.2c-0.1,0-0.3,0.1-0.4,0.1
	c-0.2,0-0.4-0.1-0.4-0.3s-0.1-0.4-0.1-0.8c0-0.3,0.1-0.6,0.2-0.8s0.2-0.3,0.4-0.3c0.1,0,0.3,0,0.3,0.1s0.2,0.2,0.2,0.4l0.1,0
	l-0.1-0.6c0,0,0,0-0.1,0.1c0,0-0.1,0-0.1,0c0,0-0.1,0-0.2,0c-0.1,0-0.1,0-0.2,0c-0.3,0-0.5,0.1-0.6,0.3c-0.2,0.2-0.2,0.5-0.2,0.8
	c0,0.4,0.1,0.7,0.2,0.9s0.3,0.3,0.6,0.3C102.8,467.4,102.9,467.3,103,467.2L103,467.2z"/>
<path class="st0" d="M102.6,464.6V462 M104.1,466.2c0-0.9-0.7-1.6-1.6-1.6c-0.9,0-1.6,0.7-1.6,1.6c0,0.9,0.7,1.6,1.6,1.6
	C103.4,467.8,104.1,467.1,104.1,466.2L104.1,466.2z M100,462h5.1 M99.8,456.2v-2.1h3.7v2.1H99.8 M95.7,457.3v1h8.3v-1H95.7
	 M227.8,458.3h20.9 M227.8,457.3h20.9 M246.7,453.2v-4.1 M247.4,462.5H246l0.7-4.1L247.4,462.5"/>
<polyline class="st1" points="247.4,462.5 246,462.5 246.7,458.3 247.4,462.5 "/>
<polyline class="st0" points="246,453.2 247.4,453.2 246.7,457.3 246,453.2 "/>
<polyline class="st1" points="246,453.2 247.4,453.2 246.7,457.3 246,453.2 "/>
<path class="st0" d="M227.8,458.3h31 M256.1,454.2h1.4l-0.7,4.1L256.1,454.2"/>
<polyline class="st1" points="256.1,454.2 257.5,454.2 256.8,458.3 256.1,454.2 "/>
<path class="st1" d="M254.2,450c0,0,0.1,0,0.2,0c0,0,0.1,0,0.1,0c0,0,0.1,0.1,0.1,0.2v0.1h0.1v-1h-0.1v0.1c0,0.1,0,0.1-0.1,0.2
	c0,0-0.1,0.1-0.2,0.1l-3.7,0.9l0.1,0.3l3.5,0.9c0.1,0,0.2,0,0.2,0.1c0,0,0.1,0.1,0.1,0.2v0.1h0.1v-0.9h-0.1v0.1c0,0.1,0,0.2-0.1,0.2
	c-0.1,0-0.1,0-0.2,0c0,0-0.1,0-0.2,0l-0.9-0.2v-1L254.2,450z M253,450.3v1l-1.9-0.5v0L253,450.3z"/>
<path class="st0" d="M261.8,459.1h3.4 M265.1,459.1c0-0.9-0.8-1.7-1.7-1.7c-0.9,0-1.7,0.8-1.7,1.7 M261.2,456.7v3.4 M258.9,458.3
	h2.4 M236.4,456.2v-2.1h-3.7v2.1H236.4 M240.4,457.3v1h-8.3v-1H240.4"/>
<path class="st1" d="M266.9,457.2c0,0-0.1,0.1-0.1,0.1s-0.1,0-0.1,0h-0.1v0.1h0.1c0,0,0.1,0,0.1,0s0,0,0,0.1v1.9h0l0.1-0.1
	c0,0,0.1,0.1,0.2,0.1s0.1,0,0.2,0c0.2,0,0.3-0.1,0.4-0.2c0.1-0.1,0.2-0.3,0.2-0.5c0-0.2,0-0.4-0.1-0.5c-0.1-0.1-0.2-0.2-0.4-0.2
	c-0.1,0-0.2,0-0.2,0.1c-0.1,0.1-0.1,0.1-0.2,0.2V457.2z M266.9,458.4c0-0.1,0.1-0.2,0.2-0.3c0.1-0.1,0.2-0.1,0.2-0.1
	c0.1,0,0.2,0,0.2,0.1c0.1,0.1,0.1,0.2,0.1,0.4c0,0.2,0,0.3-0.1,0.4c-0.1,0.1-0.2,0.1-0.3,0.1c-0.1,0-0.2,0-0.3-0.1
	c-0.1-0.1-0.1-0.1-0.1-0.2V458.4z M268.4,457.2c0,0-0.1,0.1-0.1,0.1s-0.1,0-0.1,0H268v0.1h0.1c0,0,0.1,0,0.1,0s0,0,0,0.1v1.9h0
	l0.1-0.1c0,0,0.1,0.1,0.2,0.1s0.1,0,0.2,0c0.2,0,0.3-0.1,0.4-0.2c0.1-0.1,0.2-0.3,0.2-0.5c0-0.2,0-0.4-0.1-0.5
	c-0.1-0.1-0.2-0.2-0.4-0.2c-0.1,0-0.2,0-0.2,0.1c-0.1,0.1-0.1,0.1-0.2,0.2V457.2z M268.4,458.4c0-0.1,0.1-0.2,0.2-0.3
	c0.1-0.1,0.2-0.1,0.2-0.1c0.1,0,0.2,0,0.2,0.1c0.1,0.1,0.1,0.2,0.1,0.4c0,0.2,0,0.3-0.1,0.4c-0.1,0.1-0.2,0.1-0.3,0.1
	c-0.1,0-0.2,0-0.3-0.1c-0.1-0.1-0.1-0.1-0.1-0.2V458.4z"/>
<path class="st1" d="M269.9,457.2c0,0-0.1,0.1-0.1,0.1c0,0-0.1,0-0.1,0h-0.1v0.1h0.1c0,0,0.1,0,0.1,0c0,0,0,0,0,0.1v1.9h0l0.1-0.1
	c0,0,0.1,0.1,0.2,0.1s0.1,0,0.2,0c0.2,0,0.3-0.1,0.4-0.2c0.1-0.1,0.2-0.3,0.2-0.5c0-0.2,0-0.4-0.1-0.5c-0.1-0.1-0.2-0.2-0.4-0.2
	c-0.1,0-0.2,0-0.2,0.1c-0.1,0.1-0.1,0.1-0.2,0.2V457.2z M269.9,458.4c0-0.1,0.1-0.2,0.2-0.3c0.1-0.1,0.2-0.1,0.2-0.1
	c0.1,0,0.2,0,0.2,0.1c0.1,0.1,0.1,0.2,0.1,0.4c0,0.2,0,0.3-0.1,0.4c-0.1,0.1-0.2,0.1-0.3,0.1c-0.1,0-0.2,0-0.3-0.1
	c-0.1-0.1-0.1-0.1-0.1-0.2V458.4z"/>
<path class="st1" d="M275.2,459.2c0.1-0.1,0.2-0.2,0.2-0.4l-0.1,0C275.4,458.9,275.3,459,275.2,459.2c-0.1,0-0.2,0.1-0.4,0.1
	c-0.2,0-0.3-0.1-0.4-0.2s-0.1-0.4-0.1-0.7c0-0.3,0-0.5,0.1-0.7s0.2-0.3,0.4-0.3c0.1,0,0.2,0,0.3,0.1s0.1,0.2,0.2,0.3l0.1,0l-0.1-0.5
	c0,0,0,0-0.1,0c0,0,0,0-0.1,0c0,0-0.1,0-0.1,0c-0.1,0-0.1,0-0.2,0c-0.2,0-0.4,0.1-0.6,0.3c-0.1,0.2-0.2,0.4-0.2,0.7
	c0,0.4,0.1,0.6,0.2,0.8c0.1,0.2,0.3,0.2,0.5,0.2C275,459.3,275.1,459.3,275.2,459.2L275.2,459.2z"/>
<path class="st1" d="M84.4,469.2c0,0,0.1-0.1,0.1-0.1c0-0.1,0-0.1-0.1-0.2c0,0-0.1-0.1-0.2-0.1c-0.1,0-0.3,0.1-0.4,0.2
	s-0.2,0.3-0.2,0.6c0,0.4,0.1,0.7,0.4,0.9s0.6,0.3,1,0.3c0.4,0,0.8-0.1,1-0.3c0.2-0.2,0.3-0.5,0.3-0.9c0-0.3-0.1-0.5-0.2-0.7
	c-0.2-0.2-0.4-0.3-0.6-0.3l0,0.1c0.2,0.1,0.3,0.2,0.5,0.3c0.1,0.1,0.2,0.3,0.2,0.5c0,0.3-0.1,0.6-0.3,0.7s-0.5,0.2-0.8,0.2
	c-0.4,0-0.7-0.1-0.9-0.2s-0.3-0.4-0.3-0.6c0-0.2,0-0.3,0.1-0.4c0.1-0.1,0.2-0.1,0.2-0.1c0,0,0.1,0,0.1,0c0,0,0,0,0.1,0
	C84.3,469.3,84.4,469.3,84.4,469.2L84.4,469.2z"/>
<path class="st1" d="M244.1,472.6c0,0,0.1,0,0.2,0c0,0,0.1,0,0.1,0c0,0,0.1,0.1,0.1,0.2v0.1h0.1v-1h-0.1v0.1c0,0.1,0,0.1-0.1,0.2
	c0,0-0.1,0.1-0.2,0.1l-3.7,0.9l0.1,0.3l3.5,0.9c0.1,0,0.2,0,0.2,0.1c0,0,0.1,0.1,0.1,0.2v0.1h0.1v-0.9h-0.1v0.1c0,0.1,0,0.2-0.1,0.2
	c-0.1,0-0.1,0-0.2,0c0,0-0.1,0-0.2,0l-0.9-0.2v-1L244.1,472.6z M242.9,472.8v1l-1.9-0.5v0L242.9,472.8z M240.5,470.1
	c0.1,0.1,0.2,0.1,0.3,0.3c0.1,0.1,0.1,0.3,0.1,0.4v0.2h0.1v-0.4c0-0.1,0-0.1,0.1-0.2c0,0,0.1-0.1,0.1-0.1h2.8c0.1,0,0.2,0,0.3,0.1
	c0.1,0.1,0.1,0.2,0.1,0.3v0.2h0.1v-1.7h-0.1v0.2c0,0.1,0,0.2-0.1,0.3c-0.1,0.1-0.2,0.1-0.3,0.1L240.5,470.1L240.5,470.1z"/>
<path class="st1" d="M152.4,488.9c0.2,0.2,0.2,0.3,0.2,0.5c0,0.3-0.1,0.6-0.2,0.7s-0.4,0.2-0.6,0.2c-0.3,0-0.5-0.1-0.7-0.2
	c-0.2-0.2-0.4-0.4-0.5-0.9l-0.1,0.1l0.2,1.2c0.1-0.1,0.1-0.1,0.2-0.1c0,0,0.1-0.1,0.1-0.1c0.1,0,0.2,0,0.4,0.1
	c0.1,0.1,0.3,0.1,0.4,0.1c0.4,0,0.7-0.1,0.9-0.4c0.2-0.2,0.3-0.5,0.3-0.8c0-0.3-0.1-0.5-0.3-0.7c-0.2-0.2-0.5-0.4-0.9-0.6
	c-0.5-0.2-0.8-0.4-0.9-0.5c-0.1-0.1-0.2-0.2-0.2-0.4c0-0.2,0.1-0.4,0.2-0.6c0.1-0.2,0.3-0.3,0.7-0.3c0.2,0,0.5,0.1,0.6,0.2
	c0.2,0.1,0.3,0.4,0.5,0.7l0.1-0.1l-0.1-1c0,0.1-0.1,0.1-0.1,0.1c0,0-0.1,0-0.1,0c-0.1,0-0.2,0-0.3-0.1c-0.2-0.1-0.3-0.1-0.5-0.1
	c-0.4,0-0.7,0.1-0.9,0.3c-0.2,0.2-0.3,0.5-0.3,0.7c0,0.3,0.1,0.5,0.2,0.7c0.2,0.2,0.5,0.3,0.9,0.5
	C152,488.6,152.3,488.8,152.4,488.9L152.4,488.9z M154.6,486.4c0.1,0,0.1,0,0.2,0.1c0,0,0.1,0.1,0.1,0.1v3.6c0,0.1,0,0.1-0.1,0.1
	c0,0-0.1,0.1-0.2,0.1H154v0.1h2v-0.1h-0.6c-0.1,0-0.1,0-0.2-0.1c0,0-0.1-0.1-0.1-0.1v-3.6c0-0.1,0-0.1,0.1-0.1c0,0,0.1-0.1,0.2-0.1
	h0.6v-0.1h-2v0.1H154.6z M158.7,490c-0.2,0.3-0.6,0.4-0.9,0.4c-0.1,0-0.1,0-0.2-0.1c-0.1,0-0.1-0.1-0.1-0.1v-3.6
	c0-0.1,0-0.1,0.1-0.1c0.1,0,0.1-0.1,0.3-0.1c0.4,0,0.7,0.1,0.9,0.4c0.2,0.3,0.3,0.8,0.3,1.5C159.1,489.1,159,489.7,158.7,490
	L158.7,490z M157.1,490.2c0,0.1,0,0.1-0.1,0.1c0,0-0.1,0.1-0.2,0.1h-0.2v0.1h1.1c0.6,0,1-0.2,1.3-0.5s0.4-0.9,0.4-1.7
	c0-0.7-0.2-1.2-0.5-1.5c-0.3-0.3-0.7-0.5-1.2-0.5h-1.1v0.1h0.2c0.1,0,0.1,0,0.2,0.1c0,0,0.1,0.1,0.1,0.1V490.2z M160.1,486.4
	c0.1,0,0.1,0,0.2,0.1c0,0,0.1,0.1,0.1,0.1v3.6c0,0.1,0,0.1-0.1,0.1c0,0-0.1,0.1-0.2,0.1H160v0.1h2.6l0.3-1l-0.1-0.1
	c-0.1,0.3-0.2,0.5-0.4,0.7s-0.4,0.2-0.6,0.2H161c-0.1,0-0.1,0-0.2-0.1c0,0-0.1-0.1-0.1-0.1v-1.9h0.7c0.2,0,0.3,0.1,0.4,0.1
	c0.1,0.1,0.1,0.2,0.1,0.4v0.1h0.1v-1.5h-0.1v0.2c0,0.2,0,0.3-0.1,0.4c-0.1,0.1-0.2,0.1-0.4,0.1h-0.7v-1.6c0-0.1,0-0.1,0.1-0.1
	c0,0,0.1-0.1,0.2-0.1h0.7c0.2,0,0.4,0.1,0.5,0.2c0.2,0.1,0.3,0.3,0.4,0.6l0.1-0.1l-0.3-0.8H160v0.1H160.1z M168.4,486.4
	c0.1,0,0.2,0,0.2,0.1c0,0,0,0.1,0,0.1c0,0,0,0.1,0,0.2l-0.7,2.8h-0.1l-0.7-2.9c0-0.1,0-0.1,0-0.2s0.1-0.1,0.2-0.1h0.1v-0.1h-1.1v0.1
	h0.1c0.1,0,0.1,0,0.2,0.1c0,0.1,0.1,0.1,0.1,0.3l0.9,3.8h0.1l1-3.8c0-0.1,0.1-0.2,0.1-0.3s0.1-0.1,0.2-0.1h0.1v-0.1h-0.9
	L168.4,486.4L168.4,486.4z M170.6,486.4c0.1,0,0.1,0,0.2,0.1c0,0,0.1,0.1,0.1,0.1v3.6c0,0.1,0,0.1-0.1,0.1c0,0-0.1,0.1-0.2,0.1H170
	v0.1h2v-0.1h-0.6c-0.1,0-0.1,0-0.2-0.1c0,0-0.1-0.1-0.1-0.1v-3.6c0-0.1,0-0.1,0.1-0.1c0,0,0.1-0.1,0.2-0.1h0.6v-0.1h-2v0.1H170.6z
	 M172.9,486.4c0.1,0,0.1,0,0.2,0.1c0,0,0.1,0.1,0.1,0.1v3.6c0,0.1,0,0.1-0.1,0.1c0,0-0.1,0.1-0.2,0.1h-0.2v0.1h2.6l0.3-1l-0.1-0.1
	c-0.1,0.3-0.2,0.5-0.4,0.7s-0.4,0.2-0.6,0.2h-0.7c-0.1,0-0.1,0-0.2-0.1c0,0-0.1-0.1-0.1-0.1v-1.9h0.7c0.2,0,0.3,0.1,0.4,0.1
	c0.1,0.1,0.1,0.2,0.1,0.4v0.1h0.1v-1.5h-0.1v0.2c0,0.2,0,0.3-0.1,0.4c-0.1,0.1-0.2,0.1-0.4,0.1h-0.7v-1.6c0-0.1,0-0.1,0.1-0.1
	c0,0,0.1-0.1,0.2-0.1h0.7c0.2,0,0.4,0.1,0.5,0.2c0.2,0.1,0.3,0.3,0.4,0.6l0.1-0.1l-0.3-0.8h-2.4v0.1H172.9z"/>
<path class="st1" d="M178.2,486.2v0.1h0.1c0.1,0,0.1,0,0.2,0.1c0,0,0.1,0.1,0,0.2l-0.4,2.6h-0.1l-0.4-2.7c0-0.1,0-0.1,0-0.1
	c0,0,0.1-0.1,0.1-0.1h0.1v-0.1H177v0.1h0.1c0,0,0.1,0,0.1,0.1c0,0,0.1,0.1,0.1,0.1l0.1,0.7l-0.4,2.1h-0.1l-0.4-2.7
	c0-0.1,0-0.1,0-0.1c0,0,0.1-0.1,0.2-0.1h0.1v-0.1h-0.9v0.1h0.1c0,0,0.1,0,0.1,0.1c0,0,0,0.1,0,0.1l0.6,3.9h0.1l0.5-2.6h0.1l0.4,2.6
	h0.2l0.7-3.9c0-0.1,0-0.1,0.1-0.2c0,0,0.1-0.1,0.1-0.1h0.1v-0.1H178.2z"/>
<path class="st1" d="M417.5,505.5c0.1-0.1,0.2-0.3,0.2-0.5c0-0.2-0.1-0.4-0.2-0.6c-0.1-0.2-0.3-0.2-0.5-0.2c-0.2,0-0.3,0-0.5,0.1
	c-0.2,0.1-0.4,0.2-0.6,0.4l-2.5,2.3l0.7-3.4c0-0.1,0.1-0.2,0.1-0.4c0-0.1,0-0.3,0-0.4c0-0.2,0-0.4-0.1-0.6c-0.1-0.2-0.3-0.3-0.7-0.3
	c-0.2,0-0.4,0.1-0.6,0.3s-0.2,0.4-0.2,0.6c0,0.1,0,0.2,0.1,0.3c0,0.1,0,0.2,0,0.4l0.6,3.4l-2.5-2.3c-0.2-0.1-0.3-0.3-0.5-0.4
	c-0.2-0.1-0.4-0.1-0.5-0.1s-0.3,0.1-0.5,0.2c-0.2,0.1-0.2,0.3-0.2,0.6c0,0.3,0.1,0.6,0.4,0.7c0.3,0.1,0.6,0.3,1,0.5l2.8,1.1
	l-2.8,1.1c-0.6,0.2-1,0.4-1.1,0.6c-0.2,0.2-0.2,0.4-0.2,0.6c0,0.3,0.1,0.5,0.2,0.6s0.3,0.2,0.5,0.2s0.3-0.1,0.5-0.2
	c0.2-0.1,0.4-0.2,0.5-0.3l2.5-2.3l-0.7,3.4c0,0.2,0,0.3,0,0.4c0,0.1-0.1,0.2-0.1,0.3c0,0.4,0.1,0.6,0.3,0.7s0.4,0.2,0.5,0.2
	c0.2,0,0.4-0.1,0.6-0.2c0.2-0.1,0.2-0.4,0.2-0.7c0-0.1,0-0.1,0-0.3c0-0.1,0-0.3-0.1-0.4l-0.6-3.4l2.5,2.3c0.2,0.2,0.4,0.3,0.6,0.4
	c0.1,0.1,0.3,0.1,0.5,0.1s0.3,0,0.5-0.1s0.2-0.3,0.2-0.7c0-0.2-0.1-0.3-0.2-0.5s-0.5-0.4-1.2-0.6l-2.8-1.1l2.8-1.1
	C416.9,505.9,417.3,505.7,417.5,505.5L417.5,505.5z M427.8,505.5c0.1-0.1,0.2-0.3,0.2-0.5c0-0.2-0.1-0.4-0.2-0.6
	c-0.1-0.2-0.3-0.2-0.5-0.2c-0.2,0-0.3,0-0.5,0.1c-0.2,0.1-0.4,0.2-0.6,0.4l-2.5,2.3l0.7-3.4c0-0.1,0.1-0.2,0.1-0.4
	c0-0.1,0-0.3,0-0.4c0-0.2,0-0.4-0.1-0.6c-0.1-0.2-0.3-0.3-0.7-0.3c-0.2,0-0.4,0.1-0.6,0.3s-0.2,0.4-0.2,0.6c0,0.1,0,0.2,0.1,0.3
	c0,0.1,0,0.2,0,0.4l0.6,3.4l-2.5-2.3c-0.2-0.1-0.3-0.3-0.5-0.4c-0.2-0.1-0.4-0.1-0.5-0.1s-0.3,0.1-0.5,0.2c-0.2,0.1-0.2,0.3-0.2,0.6
	c0,0.3,0.1,0.6,0.4,0.7c0.3,0.1,0.6,0.3,1,0.5l2.8,1.1l-2.8,1.1c-0.6,0.2-1,0.4-1.1,0.6c-0.2,0.2-0.2,0.4-0.2,0.6
	c0,0.3,0.1,0.5,0.2,0.6s0.3,0.2,0.5,0.2s0.3-0.1,0.5-0.2c0.2-0.1,0.4-0.2,0.5-0.3l2.5-2.3l-0.7,3.4c0,0.2,0,0.3,0,0.4
	c0,0.1-0.1,0.2-0.1,0.3c0,0.4,0.1,0.6,0.3,0.7s0.4,0.2,0.5,0.2c0.2,0,0.4-0.1,0.6-0.2c0.2-0.1,0.2-0.4,0.2-0.7c0-0.1,0-0.1,0-0.3
	c0-0.1,0-0.3-0.1-0.4l-0.6-3.4l2.5,2.3c0.2,0.2,0.4,0.3,0.6,0.4c0.1,0.1,0.3,0.1,0.5,0.1s0.3,0,0.5-0.1s0.2-0.3,0.2-0.7
	c0-0.2-0.1-0.3-0.2-0.5s-0.5-0.4-1.2-0.6l-2.8-1.1l2.8-1.1C427.3,505.9,427.7,505.7,427.8,505.5L427.8,505.5z"/>
<path class="st1" d="M444,507.8c0.3-0.1,0.7-0.1,1-0.1h0.6v1.8H443l0.4,0.4c0.3-0.1,0.7-0.1,1-0.1h5.2l-0.8-0.9l-0.6,0.6h-2v-1.8
	h2.5l-0.7-0.8l-0.6,0.5h-1.2v-1.2l0.3-0.3l-0.9-0.4c0,0.5,0,1.1,0,1.8h-2.1L444,507.8z M445.1,514.7c0.9,0.2,1.4,0.5,1.5,0.9
	c0.7-0.2,1.1-0.6,1-1.3v-2.8h2.1l-0.8-0.8l-0.6,0.6h-0.8v-0.7l0.3-0.3l-1-0.5c0,0.3,0,0.8,0,1.5h-3.8l0.4,0.4c0.3-0.1,0.7-0.1,1-0.1
	h2.4v2.7c0,0.2-0.1,0.3-0.2,0.3c-0.1,0-0.2,0-0.4,0c-0.3,0-0.7,0-1.4-0.1V514.7z M443.9,512c0.3,0.5,0.6,1,0.7,1.5
	c0.1,0.3,0.2,0.5,0.3,0.5c0.1,0,0.2-0.1,0.3-0.3c0.1-0.2,0.2-0.3,0.2-0.5c0-0.1-0.1-0.3-0.3-0.5c-0.2-0.2-0.5-0.5-1-0.8L443.9,512z
	 M442.4,515.5c0-0.5,0-1.8,0-4l1.6-0.9l-0.1-0.1l-1.5,0.6V509h1.8l-0.7-0.8l-0.5,0.5h-0.5v-2.3l0.3-0.3l-1-0.5c0,0.4,0,1.5,0,3.1
	h-1.2c0.1-0.3,0.2-0.5,0.3-0.8c0.1-0.3,0.2-0.5,0.4-0.6l-0.9-0.4c0,0.4-0.1,0.9-0.2,1.6c-0.1,0.7-0.3,1.4-0.5,2.1l0.1,0.1
	c0.3-0.5,0.6-1.1,0.8-1.7h1.2v2.4c-1.1,0.4-1.8,0.7-2.1,0.8l0.6,0.8l0.3-0.4c0.4-0.3,0.8-0.5,1.2-0.7c0,2.1,0,3.4,0,3.9L442.4,515.5
	z M455.6,507.9c0.1-0.3,0.2-0.6,0.4-1l0.3-0.2l-0.9-0.4c-0.1,1.3-0.4,2.5-1.1,3.6l0.1,0.1c0.5-0.5,0.9-1.1,1.1-1.7h1.3v1.9h-2.7
	l0.3,0.3l0.6-0.1h1.2c-0.3,0.9-0.8,1.7-1.4,2.5c-0.6,0.8-1.3,1.5-2,2l0.1,0.1c0.7-0.4,1.4-0.9,2.1-1.7c0.7-0.7,1.2-1.5,1.7-2.5
	c0,2.6,0,4.2,0,4.8l0.7-0.4c0-0.6,0-2.2,0-4.9h0.2c0.1,0.9,0.4,1.7,0.7,2.3s0.8,1.3,1.3,1.9c0.2-0.3,0.5-0.5,0.9-0.5V514
	c-0.4-0.1-0.9-0.5-1.5-1c-0.5-0.5-1-1.4-1.3-2.6h2.7l-0.8-0.8l-0.6,0.6h-1.7v-1.9h2.5l-0.8-0.8l-0.6,0.6h-1.1v-1.5l0.4-0.3l-1.1-0.5
	c0,0.5,0,1.3,0,2.3H455.6z M454.8,507.1l-0.7-0.7l-0.5,0.5h-3l0.3,0.3l0.6-0.1h0.4c-0.1,0.8-0.2,1.6-0.4,2.5c-0.2,0.9-0.6,1.7-1,2.4
	l0.1,0.1c0.4-0.5,0.8-1,1.1-1.5c0.2,0.3,0.4,0.7,0.5,1c0.1,0.2,0.1,0.3,0.2,0.3c0,0,0.1-0.1,0.2-0.2c0.1-0.1,0.1-0.3,0.1-0.4
	c0-0.1,0-0.2-0.1-0.4c-0.1-0.1-0.3-0.3-0.8-0.5c0.1-0.4,0.3-0.8,0.4-1.2h1.3c-0.1,0.9-0.3,1.7-0.5,2.5c-0.2,0.7-0.5,1.4-0.9,2
	c-0.4,0.6-0.9,1.2-1.5,1.7l0.1,0.1c0.7-0.5,1.3-1.1,1.8-1.7c0.4-0.6,0.8-1.3,1-2c0.3-0.7,0.4-1.6,0.6-2.5l0.3-0.3l-0.7-0.5l-0.3,0.4
	h-1.2c0.1-0.5,0.2-1.1,0.3-1.9H454.8z M463.5,507.4c0.1,0.3,0.1,0.4,0.3,0.4c0,0,0.1-0.1,0.2-0.2c0.1-0.1,0.2-0.3,0.2-0.4
	c0-0.2-0.1-0.4-0.3-0.6c-0.2-0.2-0.5-0.4-1-0.7l-0.1,0.1C463.2,506.5,463.4,507,463.5,507.4L463.5,507.4z M464,509.7l0.4-0.3
	l-0.8-0.6l-0.3,0.4h-1.7l0.4,0.4c0.3-0.1,0.6-0.1,0.8-0.1h0.6v3.9c0,0.2,0,0.4-0.2,0.6l0.6,0.6c0.2-0.4,0.5-0.8,0.8-1.2
	c0.3-0.4,0.7-0.9,1.1-1.4l-0.1-0.1l-1.6,1.4V509.7z M469.3,510.4c-0.3,1.1-0.8,2-1.3,2.7c-0.5-0.5-1-1.4-1.4-2.7H469.3z
	 M465.8,510.5l0.4-0.1h0.2c0.2,1.1,0.6,2.1,1.2,3c-0.7,0.9-2,1.6-3.9,2.1l0,0.1c1.6-0.2,3-0.8,4.2-1.8c0.7,0.7,1.6,1.2,2.6,1.6
	c0-0.3,0.3-0.5,0.9-0.6v-0.1c-1.3-0.1-2.3-0.5-3.1-1.2c0.6-0.8,1.1-1.7,1.5-2.9l0.4-0.2l-0.8-0.7l-0.3,0.4h-3.8L465.8,510.5z
	 M469.4,506.7l0.3-0.3l-0.7-0.6l-0.3,0.4h-1.8l-0.7-0.4c0,0.4,0,0.8,0,1.2c0,0.4-0.1,0.9-0.2,1.4c-0.2,0.5-0.7,1.1-1.6,1.9l0.1,0.1
	c1-0.5,1.7-1.1,2-1.6c0.3-0.6,0.5-1.4,0.4-2.3h1.9v2.1c0,0.4,0.2,0.7,0.7,0.7h0.7c0.7,0,1.1,0,1.1,0c0.1,0,0.1-0.1,0.1-0.1
	c0-0.1,0-0.2-0.1-0.4c-0.1-0.2-0.3-0.2-0.5-0.2c-0.3,0.1-0.6,0.1-0.9,0.1c-0.3,0-0.5-0.1-0.5-0.4V506.7z M474.7,507.3
	c0.1,0.4,0.2,0.5,0.4,0.5c0,0,0.1,0,0.2-0.1c0.1-0.1,0.2-0.2,0.2-0.4c0-0.2-0.1-0.4-0.4-0.6c-0.2-0.2-0.7-0.4-1.3-0.7l0,0.1
	C474.2,506.5,474.5,506.9,474.7,507.3L474.7,507.3z M475.7,509.6l0.4,0.4c0.3-0.1,0.6-0.1,1-0.1h1.5v3.8c0,0.5,0,1.1,0,2l0.7-0.3
	c0-0.5,0-1,0-1.6v-3.9h3.3l-0.8-0.8l-0.6,0.6h-1.9v-2.9l0.3-0.3l-1-0.5c0,0.6,0,1.8,0,3.7H475.7z M474.9,510l0.4-0.3l-0.6-0.6
	l-0.5,0.5h-1.8l0.4,0.4c0.3-0.1,0.6-0.1,0.7-0.1h0.7v3.9c0,0.4-0.1,0.6-0.2,0.8l0.6,0.7c0.2-0.4,0.8-1.3,1.8-2.6l-0.1-0.1l-1.7,1.5
	V510z M485.1,513.3c-0.1,0-0.3,0.1-0.5,0.2s-0.3,0.3-0.3,0.6c0,0.3,0.1,0.5,0.3,0.6c0.2,0.1,0.4,0.2,0.4,0.2c0.1,0,0.2-0.1,0.4-0.2
	c0.2-0.1,0.3-0.3,0.3-0.6c0-0.3-0.1-0.5-0.2-0.6C485.5,513.3,485.3,513.3,485.1,513.3L485.1,513.3z M485.2,510.7
	c-0.1,0-0.3,0.1-0.5,0.2c-0.2,0.1-0.3,0.3-0.3,0.6c0,0.3,0.1,0.5,0.3,0.6c0.2,0.1,0.4,0.2,0.5,0.2c0.1,0,0.3-0.1,0.5-0.2
	c0.2-0.1,0.3-0.3,0.3-0.6c0-0.3-0.1-0.5-0.3-0.6C485.5,510.8,485.3,510.7,485.2,510.7L485.2,510.7z M494.5,509.6l0.4,0.4
	c0.3-0.1,0.7-0.1,1-0.1h2.8c-0.2,1.3-0.6,2.4-1.2,3.3c-0.6,0.9-1.6,1.7-3.1,2.3l0,0.2c1.7-0.6,2.9-1.4,3.6-2.3
	c0.7-0.9,1.1-2.1,1.3-3.5h0.4v4.6c0,0.5,0.3,0.7,0.9,0.7h2.3c0.8,0.1,1.3-0.2,1.5-0.7c-0.5,0-0.7-0.6-0.6-1.9h-0.2
	c0,0.8-0.1,1.3-0.1,1.6c-0.1,0.3-0.3,0.5-0.6,0.5h-1.8c-0.4,0-0.7-0.1-0.7-0.5v-4.3h3.9l-1-1l-0.7,0.7h-3.1c0.1-1.3,0.1-2.2,0.2-2.9
	h4.1l-0.9-0.9l-0.6,0.6h-6.9l0.4,0.4c0.3-0.1,0.7-0.1,1-0.1h2.3c0,0.9-0.1,1.8-0.2,2.9H494.5z"/>
<path class="st0" d="M417.8,309.2h19.4 M440.4,309.2h3.3 M447,309.2h19.7 M470,309.2h3.3 M476.5,309.2h19.7 M499.5,309.2h3.3
	 M506.1,309.2h19.7 M529,309.2h3.3 M535.6,309.2h19.7 M558.6,309.2h3.3 M565.1,309.2h19.4 M574.8,236.8v144.7 M430.1,236.8v144.7
	 M430.1,236.8h144.7 M430.1,381.5h144.7 M504,374.8c0-0.9-0.7-1.5-1.6-1.5c-0.9,0-1.5,0.7-1.5,1.5 M511.3,374.8
	c0-0.9-0.7-1.5-1.6-1.5c-0.9,0-1.6,0.7-1.6,1.5 M518.5,374.8c0-0.9-0.7-1.5-1.6-1.5c-0.9,0-1.6,0.7-1.6,1.5 M525.7,374.8
	c0-0.9-0.7-1.5-1.6-1.5c-0.9,0-1.6,0.7-1.6,1.5 M533,374.8c0-0.9-0.7-1.5-1.6-1.5c-0.9,0-1.6,0.7-1.6,1.5 M540.2,374.8
	c0-0.9-0.7-1.5-1.6-1.5c-0.9,0-1.6,0.7-1.6,1.5 M547.5,374.8c0-0.9-0.7-1.5-1.5-1.5c-0.9,0-1.6,0.7-1.6,1.5 M554.7,374.8
	c0-0.9-0.7-1.5-1.5-1.5c-0.9,0-1.6,0.7-1.6,1.5 M496.8,374.8c0-0.9-0.7-1.5-1.6-1.5c-0.9,0-1.6,0.7-1.6,1.5 M489.6,374.8
	c0-0.9-0.7-1.5-1.6-1.5c-0.9,0-1.5,0.7-1.5,1.5 M482.3,374.8c0-0.9-0.7-1.5-1.6-1.5c-0.9,0-1.6,0.7-1.6,1.5 M475.1,374.8
	c0-0.9-0.7-1.5-1.6-1.5c-0.9,0-1.5,0.7-1.5,1.5 M467.9,374.8c0-0.9-0.7-1.5-1.6-1.5c-0.9,0-1.5,0.7-1.5,1.5 M460.6,374.8
	c0-0.9-0.7-1.5-1.6-1.5c-0.9,0-1.6,0.7-1.6,1.5 M453.4,374.8c0-0.9-0.7-1.5-1.6-1.5c-0.9,0-1.5,0.7-1.5,1.5 M450.3,374.8v4.7
	 M453.4,374.8v4.7 M446.2,374.8c0-0.7-0.5-1.4-1.2-1.5 M443.1,375.2l1.9-1.9 M560,373.3c-0.7,0.2-1.2,0.8-1.2,1.5 M561.9,375.2v4.3
	 M561.9,375.2l-1.9-1.9 M445.7,252.4H552 M559.2,259.7v106.3 M445.7,365.9h113.5 M445.7,252.4v113.5 M450.3,379.4l0.7,1
	 M453.4,379.4l-0.7,1 M452.7,380.5v1 M451,380.5v1 M457.5,374.8v4.7 M460.6,374.8v4.7 M457.5,379.4l0.7,1 M460.6,379.4l-0.7,1
	 M459.9,380.5v1 M458.3,380.5v1 M464.8,374.8v4.7 M467.9,374.8v4.7 M464.8,379.4l0.7,1 M467.9,379.4l-0.7,1 M467.1,380.5v1
	 M465.5,380.5v1 M472,374.8v4.7 M475.1,374.8v4.7 M472,379.4l0.7,1 M475.1,379.4l-0.7,1 M474.4,380.5v1 M472.7,380.5v1 M479.2,374.8
	v4.7 M482.3,374.8v4.7 M479.2,379.4l0.7,1 M482.3,379.4l-0.7,1 M481.6,380.5v1 M480,380.5v1 M486.5,374.8v4.7 M489.6,374.8v4.7
	 M486.5,379.4l0.7,1 M489.6,379.4l-0.7,1 M488.8,380.5v1 M487.2,380.5v1 M493.7,374.8v4.7 M496.8,374.8v4.7 M493.7,379.4l0.7,1
	 M496.8,379.4l-0.7,1 M496.1,380.5v1 M494.4,380.5v1 M500.9,374.8v4.7 M504,374.8v4.7 M500.9,379.4l0.7,1 M504,379.4l-0.7,1
	 M503.3,380.5v1 M501.7,380.5v1 M508.2,374.8v4.7 M511.3,374.8v4.7 M508.2,379.4l0.7,1 M511.3,379.4l-0.7,1 M510.6,380.5v1
	 M508.9,380.5v1 M515.4,374.8v4.7 M518.5,374.8v4.7 M515.4,379.4l0.7,1 M518.5,379.4l-0.7,1 M517.8,380.5v1 M516.1,380.5v1
	 M522.6,374.8v4.7 M525.7,374.8v4.7 M522.6,379.4l0.7,1 M525.7,379.4l-0.7,1 M525,380.5v1 M523.4,380.5v1 M529.9,374.8v4.7
	 M533,374.8v4.7 M529.9,379.4l0.7,1 M533,379.4l-0.7,1 M532.3,380.5v1 M530.6,380.5v1 M537.1,374.8v4.7 M540.2,374.8v4.7
	 M537.1,379.4l0.7,1 M540.2,379.4l-0.7,1 M539.5,380.5v1 M537.8,380.5v1 M544.4,374.8v4.7 M547.5,374.8v4.7 M544.4,379.4l0.7,1
	 M547.5,379.4l-0.7,1 M546.7,380.5v1 M545.1,380.5v1 M551.6,374.8v4.7 M554.7,374.8v4.7 M551.6,379.4l0.7,1 M554.7,379.4l-0.7,1
	 M554,380.5v1 M552.3,380.5v1 M558.8,374.8v4.7 M558.8,379.4l0.7,1 M561.9,379.4l-0.7,1 M561.2,380.5v1 M559.6,380.5v1 M443.1,375.2
	v4.3 M446.2,374.8v4.7 M446.2,379.4l-0.7,1 M443.1,379.4l0.7,1 M443.8,380.5v1 M445.4,380.5v1 M436.9,310.7c0.9,0,1.6-0.7,1.6-1.5
	c0-0.9-0.7-1.6-1.6-1.6 M436.9,303.5c0.9,0,1.6-0.7,1.6-1.6c0-0.9-0.7-1.5-1.6-1.5 M436.9,296.2c0.9,0,1.6-0.7,1.6-1.5
	c0-0.9-0.7-1.6-1.6-1.6 M436.9,289c0.9,0,1.6-0.7,1.6-1.5c0-0.9-0.7-1.6-1.6-1.6 M436.9,281.8c0.9,0,1.6-0.7,1.6-1.5
	c0-0.9-0.7-1.6-1.6-1.6 M436.9,274.5c0.9,0,1.6-0.7,1.6-1.5c0-0.9-0.7-1.6-1.6-1.6 M436.9,267.3c0.9,0,1.6-0.7,1.6-1.5
	c0-0.9-0.7-1.6-1.6-1.6 M436.9,260.1c0.9,0,1.6-0.7,1.6-1.6c0-0.9-0.7-1.6-1.6-1.6 M436.9,318c0.9,0,1.6-0.7,1.6-1.6
	c0-0.9-0.7-1.5-1.6-1.5 M436.9,325.2c0.9,0,1.6-0.7,1.6-1.5s-0.7-1.5-1.6-1.5 M436.9,332.4c0.9,0,1.6-0.7,1.6-1.6
	c0-0.9-0.7-1.6-1.6-1.6 M436.9,339.7c0.9,0,1.6-0.7,1.6-1.6s-0.7-1.6-1.6-1.6 M436.9,346.9c0.9,0,1.6-0.7,1.6-1.6
	c0-0.9-0.7-1.5-1.6-1.5 M436.9,354.1c0.9,0,1.6-0.7,1.6-1.6c0-0.9-0.7-1.6-1.6-1.6 M436.9,361.4c0.9,0,1.6-0.7,1.6-1.6
	c0-0.9-0.7-1.5-1.6-1.5 M436.9,361.4h-4.7 M436.9,358.3h-4.7 M438.4,366.7c-0.2-0.7-0.8-1.2-1.5-1.2 M436.5,368.6l1.9-1.9
	 M436.9,252.8c0.7,0,1.4-0.5,1.5-1.2 M436.5,249.7h-4.3 M436.5,249.7l1.9,1.9 M432.2,361.4l-1-0.7 M432.2,358.3l-1,0.7 M431.2,359
	h-1 M431.2,360.6h-1 M436.9,354.1h-4.7 M436.9,351h-4.7 M432.2,354.1l-1-0.7 M432.2,351l-1,0.7 M431.2,351.7h-1 M431.2,353.4h-1
	 M436.9,346.9h-4.7 M436.9,343.8h-4.7 M432.2,346.9l-1-0.7 M432.2,343.8l-1,0.7 M431.2,344.5h-1 M431.2,346.2h-1 M436.9,339.7h-4.7
	 M436.9,336.6h-4.7 M432.2,339.7l-1-0.7 M432.2,336.6l-1,0.7 M431.2,337.3h-1 M431.2,338.9h-1 M436.9,332.4h-4.7 M436.9,329.3h-4.7
	 M432.2,332.4l-1-0.7 M432.2,329.3l-1,0.7 M431.2,330h-1 M431.2,331.7h-1 M436.9,325.2h-4.7 M436.9,322.1h-4.7 M432.2,325.2l-1-0.7
	 M432.2,322.1l-1,0.7 M431.2,322.8h-1 M431.2,324.5h-1 M436.9,318h-4.7 M436.9,314.9h-4.7 M432.2,318l-1-0.7 M432.2,314.9l-1,0.7
	 M431.2,315.6h-1 M431.2,317.2h-1 M436.9,310.7h-4.7 M436.9,307.6h-4.7"/>
<path class="st0" d="M432.2,310.7l-1-0.7 M432.2,307.6l-1,0.7 M431.2,308.3h-1 M431.2,310h-1 M436.9,303.5h-4.7 M436.9,300.4h-4.7
	 M432.2,303.5l-1-0.7 M432.2,300.4l-1,0.7 M431.2,301.1h-1 M431.2,302.8h-1 M436.9,296.2h-4.7 M436.9,293.1h-4.7 M432.2,296.2
	l-1-0.7 M432.2,293.1l-1,0.7 M431.2,293.9h-1 M431.2,295.5h-1 M436.9,289h-4.7 M436.9,285.9h-4.7 M432.2,289l-1-0.7 M432.2,285.9
	l-1,0.7 M431.2,286.6h-1 M431.2,288.3h-1 M436.9,281.8h-4.7 M436.9,278.7h-4.7 M432.2,281.8l-1-0.7 M432.2,278.7l-1,0.7
	 M431.2,279.4h-1 M431.2,281.1h-1 M436.9,274.5h-4.7 M436.9,271.4h-4.7 M432.2,274.5l-1-0.7 M432.2,271.4l-1,0.7 M431.2,272.2h-1
	 M431.2,273.8h-1 M436.9,267.3h-4.7 M436.9,264.2h-4.7 M432.2,267.3l-1-0.7 M432.2,264.2l-1,0.7 M431.2,264.9h-1 M431.2,266.6h-1
	 M436.9,260.1h-4.7 M436.9,257h-4.7 M432.2,260.1l-1-0.7 M432.2,257l-1,0.7 M431.2,257.7h-1 M431.2,259.3h-1 M436.9,252.8h-4.7
	 M432.2,252.8l-1-0.7 M432.2,249.7l-1,0.7 M431.2,250.4h-1 M431.2,252.1h-1 M436.5,368.6h-4.3 M436.9,365.5h-4.7 M432.2,365.5
	l-1,0.7 M432.2,368.6l-1-0.7 M431.2,367.9h-1 M431.2,366.2h-1 M568.1,307.6c-0.9,0-1.6,0.7-1.6,1.6c0,0.9,0.7,1.5,1.6,1.5
	 M568.1,314.9c-0.9,0-1.6,0.7-1.6,1.5c0,0.9,0.7,1.6,1.6,1.6 M568.1,322.1c-0.9,0-1.6,0.7-1.6,1.5s0.7,1.5,1.6,1.5 M568.1,329.3
	c-0.9,0-1.6,0.7-1.6,1.6c0,0.9,0.7,1.6,1.6,1.6 M568.1,336.6c-0.9,0-1.6,0.7-1.6,1.6c0,0.9,0.7,1.6,1.6,1.6 M568.1,343.8
	c-0.9,0-1.6,0.7-1.6,1.5c0,0.9,0.7,1.6,1.6,1.6 M568.1,351c-0.9,0-1.6,0.7-1.6,1.6c0,0.9,0.7,1.6,1.6,1.6 M568.1,358.3
	c-0.9,0-1.6,0.7-1.6,1.5c0,0.9,0.7,1.6,1.6,1.6 M568.1,300.4c-0.9,0-1.6,0.7-1.6,1.5c0,0.9,0.7,1.6,1.6,1.6 M568.1,293.1
	c-0.9,0-1.6,0.7-1.6,1.6c0,0.9,0.7,1.5,1.6,1.5 M568.1,285.9c-0.9,0-1.6,0.7-1.6,1.6c0,0.9,0.7,1.5,1.6,1.5 M568.1,278.7
	c-0.9,0-1.6,0.7-1.6,1.6c0,0.9,0.7,1.5,1.6,1.5 M568.1,271.4c-0.9,0-1.6,0.7-1.6,1.6c0,0.9,0.7,1.5,1.6,1.5 M568.1,264.2
	c-0.9,0-1.6,0.7-1.6,1.6c0,0.9,0.7,1.5,1.6,1.5 M568.1,257c-0.9,0-1.6,0.7-1.6,1.5c0,0.9,0.7,1.6,1.6,1.6 M568.1,257h4.7
	 M568.1,260.1h4.7 M566.6,251.6c0.2,0.7,0.8,1.2,1.5,1.2 M568.5,249.7l-1.9,1.9 M568.1,365.5c-0.7,0-1.4,0.5-1.5,1.2 M568.5,368.6
	h4.3 M568.5,368.6l-1.9-1.9 M572.8,257l1,0.7 M572.8,260.1l1-0.7 M573.8,259.3h1 M573.8,257.7h1 M568.1,264.2h4.7 M568.1,267.3h4.7
	 M572.8,264.2l1,0.7 M572.8,267.3l1-0.7 M573.8,266.6h1 M573.8,264.9h1 M568.1,271.4h4.7 M568.1,274.5h4.7 M572.8,271.4l1,0.7
	 M572.8,274.5l1-0.7 M573.8,273.8h1 M573.8,272.2h1 M568.1,278.7h4.7 M568.1,281.8h4.7 M572.8,278.7l1,0.7 M572.8,281.8l1-0.7
	 M573.8,281.1h1 M573.8,279.4h1 M568.1,285.9h4.7 M568.1,289h4.7 M572.8,285.9l1,0.7 M572.8,289l1-0.7 M573.8,288.3h1 M573.8,286.6
	h1 M568.1,293.1h4.7 M568.1,296.2h4.7 M572.8,293.1l1,0.7 M572.8,296.2l1-0.7 M573.8,295.5h1 M573.8,293.9h1 M568.1,300.4h4.7
	 M568.1,303.5h4.7 M572.8,300.4l1,0.7 M572.8,303.5l1-0.7 M573.8,302.8h1 M573.8,301.1h1 M568.1,307.6h4.7 M568.1,310.7h4.7
	 M572.8,307.6l1,0.7 M572.8,310.7l1-0.7 M573.8,310h1 M573.8,308.3h1 M568.1,314.9h4.7 M568.1,318h4.7 M572.8,314.9l1,0.7
	 M572.8,318l1-0.7 M573.8,317.2h1 M573.8,315.6h1 M568.1,322.1h4.7 M568.1,325.2h4.7 M572.8,322.1l1,0.7 M572.8,325.2l1-0.7
	 M573.8,324.5h1 M573.8,322.8h1 M568.1,329.3h4.7 M568.1,332.4h4.7 M572.8,329.3l1,0.7 M572.8,332.4l1-0.7 M573.8,331.7h1
	 M573.8,330h1 M568.1,336.6h4.7 M568.1,339.7h4.7 M572.8,336.6l1,0.7 M572.8,339.7l1-0.7 M573.8,338.9h1 M573.8,337.3h1
	 M568.1,343.8h4.7 M568.1,346.9h4.7 M572.8,343.8l1,0.7 M572.8,346.9l1-0.7 M573.8,346.2h1 M573.8,344.5h1 M568.1,351h4.7
	 M568.1,354.1h4.7 M572.8,351l1,0.7 M572.8,354.1l1-0.7 M573.8,353.4h1 M573.8,351.7h1 M568.1,358.3h4.7 M568.1,361.4h4.7
	 M572.8,358.3l1,0.7 M572.8,361.4l1-0.7 M573.8,360.6h1 M573.8,359h1 M568.1,365.5h4.7 M572.8,365.5l1,0.7 M572.8,368.6l1-0.7
	 M573.8,367.9h1 M573.8,366.2h1 M568.5,249.7h4.3 M568.1,252.8h4.7 M572.8,252.8l1-0.7 M572.8,249.7l1,0.7 M573.8,250.4h1
	 M573.8,252.1h1 M500.9,243.5c0,0.9,0.7,1.6,1.6,1.6c0.9,0,1.6-0.7,1.6-1.6 M493.7,243.5c0,0.9,0.7,1.6,1.6,1.6
	c0.9,0,1.6-0.7,1.6-1.6 M486.5,243.5c0,0.9,0.7,1.6,1.5,1.6c0.9,0,1.6-0.7,1.6-1.6 M479.2,243.5c0,0.9,0.7,1.6,1.6,1.6
	c0.9,0,1.6-0.7,1.6-1.6 M472,243.5c0,0.9,0.7,1.6,1.5,1.6c0.9,0,1.6-0.7,1.6-1.6 M464.8,243.5c0,0.9,0.7,1.6,1.5,1.6
	c0.9,0,1.6-0.7,1.6-1.6 M457.5,243.5c0,0.9,0.7,1.6,1.6,1.6c0.9,0,1.6-0.7,1.6-1.6 M450.3,243.5c0,0.9,0.7,1.6,1.5,1.6
	c0.9,0,1.5-0.7,1.5-1.6 M508.2,243.5c0,0.9,0.7,1.6,1.6,1.6c0.9,0,1.6-0.7,1.6-1.6 M515.4,243.5c0,0.9,0.7,1.6,1.6,1.6
	c0.9,0,1.6-0.7,1.6-1.6 M522.6,243.5c0,0.9,0.7,1.6,1.6,1.6c0.9,0,1.6-0.7,1.6-1.6 M529.9,243.5c0,0.9,0.7,1.6,1.6,1.6
	c0.9,0,1.6-0.7,1.6-1.6 M537.1,243.5c0,0.9,0.7,1.6,1.6,1.6c0.9,0,1.6-0.7,1.6-1.6 M544.4,243.5c0,0.9,0.7,1.6,1.6,1.6
	c0.9,0,1.5-0.7,1.5-1.6 M551.6,243.5c0,0.9,0.7,1.6,1.6,1.6c0.9,0,1.5-0.7,1.5-1.6 M554.7,243.5v-4.7 M551.6,243.5v-4.7
	 M558.8,243.5c0,0.7,0.5,1.4,1.2,1.5 M561.9,243.1L560,245 M444.9,245c0.7-0.2,1.2-0.8,1.2-1.5 M443.1,243.2v-4.3 M443.1,243.2
	l1.9,1.9 M554.7,238.9l-0.7-1 M551.6,238.9l0.7-1 M552.3,237.8v-1"/>
<path class="st0" d="M554,237.8v-1 M547.5,243.5v-4.7 M544.4,243.5v-4.7 M547.5,238.9l-0.7-1 M544.4,238.9l0.7-1 M545.1,237.8v-1
	 M546.7,237.8v-1 M540.2,243.5v-4.7 M537.1,243.5v-4.7 M540.2,238.9l-0.7-1 M537.1,238.9l0.7-1 M537.8,237.8v-1 M539.5,237.8v-1
	 M533,243.5v-4.7 M529.9,243.5v-4.7 M533,238.9l-0.7-1 M529.9,238.9l0.7-1 M530.6,237.8v-1 M532.3,237.8v-1 M525.7,243.5v-4.7
	 M522.6,243.5v-4.7 M525.7,238.9l-0.7-1 M522.6,238.9l0.7-1 M523.4,237.8v-1 M525,237.8v-1 M518.5,243.5v-4.7 M515.4,243.5v-4.7
	 M518.5,238.9l-0.7-1 M515.4,238.9l0.7-1 M516.1,237.8v-1 M517.8,237.8v-1 M511.3,243.5v-4.7 M508.2,243.5v-4.7 M511.3,238.9l-0.7-1
	 M508.2,238.9l0.7-1 M508.9,237.8v-1 M510.6,237.8v-1 M504,243.5v-4.7 M500.9,243.5v-4.7 M504,238.9l-0.7-1 M500.9,238.9l0.7-1
	 M501.7,237.8v-1 M503.3,237.8v-1 M496.8,243.5v-4.7 M493.7,243.5v-4.7 M496.8,238.9l-0.7-1 M493.7,238.9l0.7-1 M494.4,237.8v-1
	 M496.1,237.8v-1 M489.6,243.5v-4.7 M486.5,243.5v-4.7 M489.6,238.9l-0.7-1 M486.5,238.9l0.7-1 M487.2,237.8v-1 M488.8,237.8v-1
	 M482.3,243.5v-4.7 M479.2,243.5v-4.7 M482.3,238.9l-0.7-1 M479.2,238.9l0.7-1 M480,237.8v-1 M481.6,237.8v-1 M475.1,243.5v-4.7
	 M472,243.5v-4.7 M475.1,238.9l-0.7-1 M472,238.9l0.7-1 M472.7,237.8v-1 M474.4,237.8v-1 M467.9,243.5v-4.7 M464.8,243.5v-4.7
	 M467.9,238.9l-0.7-1 M464.8,238.9l0.7-1 M465.5,237.8v-1 M467.1,237.8v-1 M460.6,243.5v-4.7 M457.5,243.5v-4.7 M460.6,238.9l-0.7-1
	 M457.5,238.9l0.7-1 M458.3,237.8v-1 M459.9,237.8v-1 M453.4,243.5v-4.7 M450.3,243.5v-4.7 M453.4,238.9l-0.7-1 M450.3,238.9l0.7-1
	 M451,237.8v-1 M452.7,237.8v-1 M446.2,243.5v-4.7 M446.2,238.9l-0.7-1 M443.1,238.9l0.7-1 M443.8,237.8v-1 M445.4,237.8v-1
	 M561.9,243.2v-4.3 M558.8,243.5v-4.7 M558.8,238.9l0.7-1 M561.9,238.9l-0.7-1 M561.2,237.8v-1 M559.6,237.8v-1 M559.2,259.7
	l-7.2-7.2 M502.5,229.6v17 M502.5,250v3.3 M502.5,256.5v19.7 M502.5,279.5v3.3 M502.5,286.1v19.7 M502.5,309v3.3 M502.5,315.6v19.7
	 M502.5,338.6v3.3 M502.5,345.1v19.7 M502.5,368.1v3.3 M502.5,374.7v17"/>
</svg>
